<svg xmlns="http://www.w3.org/2000/svg" preserveAspectRatio="none" viewBox="0 0 1199 147" class="bricks-shape-svg">
  <path fill-rule="evenodd" d="M152,1058 C171.464364,1040.35381 189.797697,1031.02048 207,1030 C231.281822,1028.55955 248.827443,1039.57102 259.978825,1048.37458 C260.677632,1048.92626 265,1035 294,1029 C323,1023 337,1039 350,1040 C375,999 419,997 448,993 C519,989 537,1023 548,1035 C558,1026 567.47205,1021.02484 581,1020 C594.52795,1018.97516 608,1027 614,1030 C653,1004 664,997 728,993 C773,988 800,999 817,1012 C828,1002 845,998 864,997 C867.333333,965.666667 889.333333,946.333333 930,939 C958.666667,935 989,937.333333 1021,946 C1037.66667,922 1063,910 1097,910 C1132.33333,912 1156.33333,927.333333 1169,956 C1200.33333,955.333333 1226.66667,959 1248,967 C1268,973 1282,983 1290,997 C1301,998 1312.31174,993.613167 1331,1012 C1343.45884,1024.25789 1350.45884,1039.59122 1352,1058 L152,1058 Z" transform="translate(-153 -910)"/>
</svg>
