<svg xmlns="http://www.w3.org/2000/svg" preserveAspectRatio="none" viewBox="0 0 1200 103" class="bricks-shape-svg">
  <path fill-rule="evenodd" d="M444.799513,117.901007 C447.767675,133.838283 444.752516,138.950503 440,138 C433.167237,137.37884 433,129 435,119 C435.089534,118.552332 435.14523,118.116464 435.170162,117.693476 C435.110036,117.470709 435.053246,117.239607 435,117 C434.952512,116.240194 434.896568,115.504067 434.832167,114.791619 C434.042851,112.244358 432.04454,110.511135 430,110 C427,110 419.364637,112.005505 423,132 C427,154 424.628426,161 418,161 C409.507804,161 411.726023,148.013752 413,134 C414,123 416,113 410,111 C405,111 404,115 399,115 C394,113 394,107 390,107 C387,108 383,110 385,114 C389.49391,122.987821 385.077616,128.509702 381,128 C373.887516,127.353411 377,116 378,113 C380.326593,106.02022 375.534105,103.060232 372,102 C368,101 362,105 363,115 C365.302235,138.022353 367,146 359,146 C351,145 355,132.0087 355,120 C355,112 351.932436,106.138254 347,105 C342,106 334,111 338,131 C344.401309,163.006546 343.137761,177.612546 334,176 C325.313137,174.978016 328,161 329,144 C330,127 327.89008,109.489008 323,109 C317,109 318,118 320,126 C321.498644,131.994576 318,138 314,138 C308,137 307,128 308,119 C308,110 303.755775,102 299,102 C288,103 287,119 289,145 C292.616364,192.012732 294.622201,203.011638 284,202 C273.680856,202.982776 276,185 278,158 C280,131 283,110 272,101 C267,100 257,99 258,106 C260.143888,121.007215 259,124 255,125 C251,124 251,120 250,115 C249.446398,112.231991 247.776627,110.603339 245,111 C240,112 237,114 239,135 C241.858456,165.013787 242,178 232,178 C226,178 222.947267,172.790514 224,162 C228,121 226,113 219,109 C206,108 196,113 197,127 C198.35845,146.018304 199.47235,159.533739 192,159 C182,161 184.2259,139.8705 187,126 C189,116 188,107 182,106 C180,106 177,106 177,112 C177,121.024549 177.407988,129.101997 173,128 C167.741517,128.584276 169,119 170,112 C171,105 168.157242,101.584276 164,102 C159.71747,103.070632 153,103 157,132 C160.586616,158.002965 160.629346,176.507609 152,176 C150,176 144,175 144,163 C144,152.622795 144.580603,144.935781 146,135 C148,121 144.899734,107.398406 144,102 C139,99 114,90 122,138 C121.333333,144.666667 119.333333,148 116,148 C111.333333,148.666667 109,145.333333 109,138 C110,120 116,104 102,101 C98,101 94,104 93,113 C92,117 91,128 86,129 C82,127 82.3297028,121.989109 81,118 C80,115 79.0247351,114.182037 77,115 C72.0378618,117.004631 71,128 72,135 C74.4292115,152.00448 76,161 75,168 C74.4329871,171.96909 67,178 63,172 C59,166 60.6236878,154.029986 63,145 C68,126 62,115 55,114 C51,114 45,119 47,130 C48.8184916,140.001704 46.8876093,149.668586 46,151 C44,154 38.4021733,155.953803 35,150 C27,136 41,105 26,104 C19,105 19,110 17,117 C16,123 9,126 7,117 C6.33333333,106.333333 4,100.333333 0,99 L428,99 L856,99 L1307,99 C1301,103 1298.66667,108 1300,114 C1304.22441,133.009829 1301.12068,139.024137 1296,138 C1289.16724,137.37884 1289,129 1291,119 C1291.95986,114.20072 1289.03072,110.75768 1286,110 C1283,110 1275.36464,112.005505 1279,132 C1283,154 1280.62843,161 1274,161 C1265.5078,161 1267.72602,148.013752 1269,134 C1270,123 1272,113 1266,111 C1261,111 1260,115 1255,115 C1250,113 1250,107 1246,107 C1243,108 1239,110 1241,114 C1245.49391,122.987821 1241.07762,128.509702 1237,128 C1229.88752,127.353411 1233,116 1234,113 C1236.32659,106.02022 1231.53411,103.060232 1228,102 C1224,101 1218,105 1219,115 C1221.30224,138.022353 1223,146 1215,146 C1207,145 1211,132.0087 1211,120 C1211,112 1208.93244,98.1382544 1204,97 C1199,98 1190,111 1194,131 C1200.40131,163.006546 1199.13776,177.612546 1190,176 C1181.31314,174.978016 1184,161 1185,144 C1186,127 1183.89008,109.489008 1179,109 C1173,109 1174,118 1176,126 C1177.49864,131.994576 1174,138 1170,138 C1164,137 1163,128 1164,119 C1164,110 1159.75577,102 1155,102 C1144,103 1143,119 1145,145 C1148.61636,192.012732 1150.6222,203.011638 1140,202 C1129.68086,202.982776 1132,185 1134,158 C1136,131 1139,110 1128,101 C1123,100 1113,99 1114,106 C1116.14389,121.007215 1115,124 1111,125 C1107,124 1107,120 1106,115 C1105.4464,112.231991 1103.77663,110.603339 1101,111 C1096,112 1093,114 1095,135 C1097.85846,165.013787 1098,178 1088,178 C1082,178 1078.94727,172.790514 1080,162 C1084,121 1082,113 1075,109 C1062,108 1052,113 1053,127 C1054.35845,146.018304 1055.47235,159.533739 1048,159 C1038,161 1040.2259,139.8705 1043,126 C1045,116 1044,107 1038,106 C1036,106 1033,106 1033,112 C1033,121.024549 1033.40799,129.101997 1029,128 C1023.74152,128.584276 1025,119 1026,112 C1027,105 1024.15724,101.584276 1020,102 C1015.71747,103.070632 1009,103 1013,132 C1016.58662,158.002965 1016.62935,176.507609 1008,176 C1006,176 1000,175 1000,163 C1000,152.622795 1000.5806,144.935781 1002,135 C1004,121 1000.89973,107.398406 1000,102 C995,99 970,90 978,138 C977.333333,144.666667 975.333333,148 972,148 C967.333333,148.666667 965,145.333333 965,138 C966,120 972,104 958,101 C954,101 950,104 949,113 C948,117 947,128 942,129 C938,127 938.329703,121.989109 937,118 C936,115 935.024735,114.182037 933,115 C928.037862,117.004631 927,128 928,135 C930.429211,152.00448 932,161 931,168 C930.432987,171.96909 923,178 919,172 C915,166 916.623688,154.029986 919,145 C924,126 918,115 911,114 C907,114 901,119 903,130 C904.818492,140.001704 902.887609,149.668586 902,151 C900,154 894.402173,155.953803 891,150 C883,136 897,105 882,104 C875,105 875,110 873,117 C872.948553,117.308685 872.881224,117.609429 872.799513,117.901007 C875.767675,133.838283 872.752516,138.950503 868,138 C861.167237,137.37884 861,129 863,119 C863.089534,118.552332 863.14523,118.116464 863.170162,117.693476 C863.110036,117.470709 863.053246,117.239607 863,117 C862.952512,116.240194 862.896568,115.504067 862.832167,114.791619 C862.042851,112.244358 860.04454,110.511135 858,110 C855,110 847.364637,112.005505 851,132 C855,154 852.628426,161 846,161 C837.507804,161 839.726023,148.013752 841,134 C842,123 844,113 838,111 C833,111 832,115 827,115 C822,113 822,107 818,107 C815,108 811,110 813,114 C817.49391,122.987821 813.077616,128.509702 809,128 C801.887516,127.353411 805,116 806,113 C808.326593,106.02022 803.534105,103.060232 800,102 C796,101 790,105 791,115 C793.302235,138.022353 795,146 787,146 C779,145 783,132.0087 783,120 C783,112 779.932436,106.138254 775,105 C770,106 762,111 766,131 C772.401309,163.006546 771.137761,177.612546 762,176 C753.313137,174.978016 756,161 757,144 C758,127 755.89008,109.489008 751,109 C745,109 746,118 748,126 C749.498644,131.994576 746,138 742,138 C736,137 735,128 736,119 C736,110 731.755775,102 727,102 C716,103 715,119 717,145 C720.616364,192.012732 722.622201,203.011638 712,202 C701.680856,202.982776 704,185 706,158 C708,131 711,110 700,101 C695,100 685,99 686,106 C688.143888,121.007215 687,124 683,125 C679,124 679,120 678,115 C677.446398,112.231991 675.776627,110.603339 673,111 C668,112 665,114 667,135 C669.858456,165.013787 670,178 660,178 C654,178 650.947267,172.790514 652,162 C656,121 654,113 647,109 C634,108 624,113 625,127 C626.35845,146.018304 627.47235,159.533739 620,159 C610,161 612.2259,139.8705 615,126 C617,116 616,107 610,106 C608,106 605,106 605,112 C605,121.024549 605.407988,129.101997 601,128 C595.741517,128.584276 597,119 598,112 C599,105 596.157242,101.584276 592,102 C587.71747,103.070632 581,103 585,132 C588.586616,158.002965 588.629346,176.507609 580,176 C578,176 572,175 572,163 C572,152.622795 572.580603,144.935781 574,135 C576,121 572.899734,107.398406 572,102 C567,99 542,90 550,138 C549.333333,144.666667 547.333333,148 544,148 C539.333333,148.666667 537,145.333333 537,138 C538,120 544,104 530,101 C526,101 522,104 521,113 C520,117 519,128 514,129 C510,127 510.329703,121.989109 509,118 C508,115 507.024735,114.182037 505,115 C500.037862,117.004631 499,128 500,135 C502.429211,152.00448 504,161 503,168 C502.432987,171.96909 495,178 491,172 C487,166 488.623688,154.029986 491,145 C496,126 490,115 483,114 C479,114 473,119 475,130 C476.818492,140.001704 474.887609,149.668586 474,151 C472,154 466.402173,155.953803 463,150 C455,136 469,105 454,104 C447,105 447,110 445,117 C444.948553,117.308685 444.881224,117.609429 444.799513,117.901007 Z" transform="matrix(1 0 0 -1 0 202.062)"/>
</svg>
