<svg xmlns="http://www.w3.org/2000/svg" preserveAspectRatio="none" viewBox="0 0 1144 42" class="bricks-shape-svg">
  <path fill-rule="evenodd" d="M651.272869,223.188313 C651.409503,223.458313 651.499169,223.620313 651.580295,223.767313 C651.272869,223.806313 650.973983,223.833313 650.670827,223.869313 C650.845889,223.671313 651.03376,223.476313 651.272869,223.188313 Z M715.578222,176.802517 C715.044497,176.694517 714.53639,176.583517 714.015474,176.478517 C714.263123,176.397517 714.557739,176.238517 714.76269,176.256517 C715.309224,176.310517 715.813061,176.454517 716.329707,176.556517 C716.073519,176.634517 715.83441,176.718517 715.578222,176.802517 Z M570.579305,173.156813 C570.89954,173.138813 571.228315,173.105813 571.599787,173.078813 C571.809008,173.186813 572.039577,173.309813 572.265877,173.432813 C571.834627,173.615813 571.420456,173.792813 570.997745,173.978813 C570.861112,173.708813 570.728748,173.432813 570.579305,173.156813 Z M601.12191,221.616739 C600.660771,221.778739 600.161205,222.099739 599.759843,222.063739 C599.345672,222.030739 599.021167,221.667739 598.653964,221.442739 C599.123643,221.277739 599.623209,220.965739 600.024571,220.992739 C600.451551,221.019739 600.767516,221.394739 601.12191,221.616739 Z M694.552813,176.861813 C694.539614,176.648813 694.539614,176.426813 694.535214,176.210813 C696.427038,176.204813 698.332061,176.204813 700.223884,176.195813 C700.223884,176.408813 700.228284,176.630813 700.228284,176.843813 C698.332061,176.852813 696.440237,176.852813 694.552813,176.861813 Z M37.4219195,212.412313 C37.2778879,212.019313 37.1297411,211.626313 36.9857095,211.233313 C40.0679856,211.047313 43.1338011,210.867313 46.9485808,210.645313 C43.9897603,213.312313 40.1832109,211.431313 37.4219195,212.412313 Z M708.767888,224.553212 C701.080658,226.558949 684.144174,226.556556 677.456007,224.321044 C686.574432,222.468489 701.425573,222.662361 708.767888,224.553212 Z M950.723333,228.282993 C950.412331,228.870449 950.109104,229.444115 949.798101,230.028813 C928.75491,228.831837 907.723382,227.632103 886.676304,226.437884 C897.654684,223.632988 908.598076,225.900072 919.510368,225.795268 C930.224396,225.690464 940.969525,225.924895 950.723333,228.282993 Z M872.44363,226.426793 C870.423515,226.576556 868.38789,226.873256 866.39104,226.81109 C840.602583,226.070753 814.895551,226.330719 789.184641,227.870733 C782.387594,228.280462 775.3928,227.771833 768.487185,227.706842 C758.421506,227.619245 748.351949,227.610768 738.294024,227.421445 C735.374357,227.36493 732.493463,226.768705 728.69363,226.305288 C731.44657,222.637511 735.657405,222.857917 739.73641,222.911605 C747.588105,223.030285 755.497961,223.499354 763.283741,223.160268 C770.999728,222.826834 778.556742,221.086194 786.218446,221.02968 C793.550572,220.984468 800.878821,222.722282 808.284617,222.920082 C823.007031,223.321334 837.787604,223.143314 852.537159,223.343939 C857.546735,223.411757 862.575697,223.787577 867.51548,224.228388 C869.368868,224.397931 871.016754,225.160874 872.44363,226.426793 Z M814.910183,189.194921 C814.414886,188.861921 813.928129,188.540921 813.428562,188.216921 C813.970827,188.093921 814.577139,187.817921 815.029738,187.868921 C815.482337,187.919921 815.789763,188.303921 816.174045,188.546921 C815.742795,188.759921 815.324354,188.972921 814.910183,189.194921 Z M722.782089,189.827722 C722.209936,189.752722 721.663401,189.581722 721.112597,189.449722 C721.69756,189.368722 722.265443,189.260722 722.841867,189.227722 C723.038278,189.218722 723.256037,189.446722 723.465258,189.560722 C723.226149,189.650722 722.940072,189.854722 722.782089,189.827722 Z M695.989829,185.797313 C695.974156,185.629313 695.966319,185.461313 695.958482,185.299313 C700.096363,185.290313 704.234244,185.275313 708.368206,185.260313 C708.501433,185.422313 708.642497,185.590313 708.767888,185.761313 C704.52029,185.776313 700.253101,185.788313 695.989829,185.797313 Z M691.68868,187.985358 C694.892248,187.970358 698.107177,187.961358 701.651551,187.949358 C697.224871,189.470358 697.224871,189.506358 691.68868,187.985358 Z M455.746068,178.028813 C455.642048,177.658146 455.538028,177.297429 455.426304,176.924274 C460.885416,176.74516 466.340676,176.575996 471.78823,176.357079 C483.511645,175.906805 495.215797,175.312245 506.95077,175.03611 C510.641546,174.946553 514.424784,175.692863 518.050066,176.640677 C497.257667,178.038764 476.503794,177.984034 455.746068,178.028813 Z M434.077294,180.87254 C436.290705,177.90554 436.290705,177.90554 442.616898,178.48754 C439.181381,179.44454 437.176069,180.00254 434.077294,180.87254 Z M415.574818,180.006878 C415.656043,177.83476 416.855066,176.233072 422.328027,176.028813 C423.260171,179.88233 422.850183,180.126444 415.574818,180.006878 Z M347.286452,166.834813 C347.239484,166.843813 347.10712,166.555813 347.017455,166.402813 C347.559719,166.342813 348.097714,166.249813 348.644249,166.222813 C348.695487,166.213813 348.827851,166.501813 348.921786,166.648813 C348.388061,166.723813 347.850066,166.801813 347.286452,166.834813 Z M321.076984,166.691349 C320.825066,166.709349 320.547529,166.601349 319.322096,166.364349 C321.042826,166.415349 321.790041,166.439349 322.532987,166.463349 C322.054769,166.547349 321.572281,166.655349 321.076984,166.691349 Z M303.742368,167.879067 C301.187845,168.417534 298.380976,168.950824 295.663398,168.98189 C286.000469,169.072497 276.310364,169.033666 266.651317,168.849862 C264.947007,168.816208 262.046964,167.961908 261.899438,167.350954 C261.480155,165.663066 264.663603,165.619056 267.152127,165.634589 C275.879434,165.678598 284.614504,165.903823 293.334046,165.839103 C297.790873,165.815804 302.224407,165.331701 307.104399,165.028813 C308.098256,166.237776 306.553119,167.294001 303.742368,167.879067 Z M284.320156,182.750813 C284.02127,182.795813 283.760812,182.834813 283.491815,182.867813 C283.517434,182.645813 283.525973,182.411813 283.543052,182.189813 C283.79924,182.243813 284.166443,182.252813 284.285998,182.351813 C284.414092,182.441813 284.320156,182.618813 284.320156,182.750813 Z M245.02256,168.900875 C244.984132,168.906875 244.740753,168.657875 244.59131,168.525875 C245.056718,168.390875 245.500778,168.258875 245.983265,168.156875 C246.017424,168.147875 246.260802,168.405875 246.397436,168.531875 C245.949107,168.660875 245.500778,168.801875 245.02256,168.900875 Z M243.703903,163.680313 L244.092455,163.359313 L244.438308,163.698313 L243.703903,163.680313 Z M1153.97399,223.598166 C1141.25645,221.720794 1128.32513,220.2594 1115.50653,218.59549 C1113.03065,218.27256 1110.62862,217.848373 1108.19549,217.473446 C1108.35097,217.106729 1108.5181,216.731802 1108.67357,216.365085 C1117.25558,216.031208 1125.9231,218.409395 1134.64503,216.499183 C1126.72378,214.813379 1118.58097,213.696808 1110.57809,212.380459 C1108.1061,211.972691 1104.24653,211.173577 1103.99388,210.325202 C1103.02219,207.002855 1098.33085,206.737396 1093.6395,206.433623 C1087.70828,206.050486 1081.72263,205.834287 1075.75254,205.623562 C1069.77856,205.407363 1063.72295,205.530514 1057.81893,205.089906 C1036.00244,203.450627 1014.28311,201.376213 992.404422,200.007866 C983.309356,199.444107 974.381421,199.030866 965.900467,197.180861 C964.198057,196.814144 962.231346,196.690993 960.357918,196.584262 C941.895711,195.508742 923.449052,194.38396 904.975185,193.434328 C884.589022,192.383437 864.156218,191.515905 843.738961,190.549852 C837.757206,190.273446 837.702791,190.248816 831.915375,188.286607 C848.0494,188.587643 862.74143,188.874996 877.437346,189.151402 C877.441233,188.924256 877.452893,188.688901 877.452893,188.459018 C873.158001,187.96915 868.859222,187.495702 864.560443,187.019517 C889.478592,185.823582 913.930327,187.301397 938.385949,188.423441 C963.210815,189.567379 988.020133,190.826258 1012.76338,192.358807 C1037.19568,193.872199 1061.56579,195.64284 1085.87371,197.566735 C1110.33322,199.501578 1134.26024,202.952549 1159.12398,205.057066 C1159.01515,202.137014 1155.96791,201.329689 1152.62528,200.738563 C1147.86009,199.881978 1143.1532,198.861191 1138.23642,198.333009 C1109.51311,195.287069 1080.92973,191.704737 1051.94212,189.553696 C1006.05868,186.143775 959.87207,183.847689 913.887572,180.790802 C904.986845,180.202413 894.574161,181.682965 887.554636,177.178367 C887.232033,176.975851 886.373054,176.984061 885.755056,176.929328 C879.236926,176.417566 872.730455,175.648555 866.165683,175.432356 C843.505754,174.685239 820.80307,174.140637 798.127594,173.478357 C793.265232,173.336049 788.340681,173.1609 782.650435,171.190481 C786.537215,170.667772 788.810981,170.290108 791.135276,170.052016 C795.15032,169.638775 799.705627,169.794767 803.102673,168.842397 C809.193257,167.129227 814.941805,166.234328 821.94967,167.011549 C825.335056,167.386476 829.466704,166.986919 832.031979,164.34601 C821.187861,162.482321 810.452574,163.908139 800.105965,163.213018 C787.878154,162.3838 726.731326,164.507475 721.997228,165.489948 C724.204919,167.468577 727.90902,167.033443 731.115614,167.058073 C740.587698,167.112807 750.055895,167.041653 759.516318,167.11007 C761.817292,167.121017 764.087172,167.526048 767.561953,167.876345 C764.580793,168.927235 761.766764,169.373316 761.230388,170.210744 C759.092659,173.582351 753.414073,173.653505 748.31073,174.220001 C745.247947,174.562087 742.068561,174.630505 738.94359,174.745446 C734.446585,174.912384 730.07007,175.259944 726.19495,176.614608 C739.312834,177.744862 752.784414,176.409356 765.455318,179.053002 C757.615682,179.564764 749.77216,179.87401 741.955844,179.797383 C721.810662,179.594867 701.723781,179.537397 681.551391,178.346935 C659.696026,177.063426 637.463642,177.312465 615.390617,177.211207 C589.213151,177.077109 563.05512,176.967641 537.029239,175.328362 C533.503929,175.10669 530.033034,174.638715 526.546592,174.288418 C526.58546,173.916228 526.635988,173.541301 526.670969,173.1609 C532.578875,172.733976 538.467347,172.301578 544.36748,171.858234 C544.320838,171.499727 544.281971,171.14122 544.243103,170.779977 C528.505529,170.391366 512.771843,169.986335 497.030382,169.589515 C497.920455,168.877974 498.775547,168.664512 499.638412,168.650829 C516.66251,168.388106 533.694381,168.021389 550.722366,167.936552 C583.845508,167.77235 616.96865,167.76414 650.103452,167.649199 C651.669824,167.640989 653.247857,167.249642 654.82589,167.02797 C654.798682,166.702303 654.787022,166.376636 654.783135,166.05918 C650.511564,165.75267 646.2672,165.279222 641.976194,165.158808 C619.005322,164.540315 596.015017,163.995713 573.040258,163.467531 C566.114016,163.297856 559.172226,163.144601 552.234323,163.174705 C534.254077,163.240385 516.258284,163.470268 498.270265,163.522265 C469.900656,163.607102 441.527159,163.568789 413.15755,163.639943 C411.338536,163.648153 409.542844,164.138021 407.68885,164.321379 C399.942496,165.03292 392.21169,165.829298 384.410922,166.3739 C379.719578,166.702303 376.994945,165.309326 378.040489,163.505845 C379.863389,160.3477 386.249369,159.340597 391.274976,161.423221 C392.231124,161.825515 393.195046,162.241492 394.543759,162.810724 C395.806962,160.216339 393.358291,159.253023 390.14781,158.754944 C387.753553,158.374544 385.188278,158.281496 382.685192,158.139188 C353.246718,156.346654 323.7033,155.999094 294.074374,156.075721 C270.777013,156.135928 247.471878,155.700794 224.310554,154.121722 C192.477823,151.935103 160.750035,149.485762 128.338174,150.59686 C112.35962,151.141462 96.2022742,150.443605 80.1420979,150.046785 C73.71725,149.896267 69.4612255,150.643384 68.497304,154.113512 C72.1741982,155.156192 75.3613581,151.863949 80.2314938,153.812475 C78.4513484,154.362551 77.4913137,154.893469 76.4457698,154.945467 C69.5817157,155.230083 62.7060013,155.429861 55.845834,155.62964 C53.0279183,155.698057 47.9984246,155.364181 47.7418971,155.804788 C45.6352621,159.324177 38.8372833,157.93941 34.8766542,159.367964 C30.7411199,160.856725 24.5883467,160.542005 20.6588117,163.158285 C26.4345673,164.124337 31.4601743,164.978186 37.3408729,165.960659 C34.27809,167.192171 30.597309,167.977602 29.2913508,169.351423 C26.9320752,171.833604 23.025861,173.270368 19.3334197,175.013642 C17.3900295,175.944118 16.4727493,177.780439 16.2550896,179.255517 C15.8392041,182.287774 16.2900707,185.350134 16.212335,188.398811 C16.1035052,192.408067 15.3727905,196.436481 15.7381478,200.43479 C16.2239954,205.577038 18.6959877,206.882441 28.9065596,207.47083 C36.7345352,207.925121 44.663567,207.867651 52.5265236,208.14132 C55.3094584,208.228894 58.5315992,208.245314 60.6926491,208.965065 C65.030296,210.418249 69.453452,210.527717 74.2691728,210.333412 C78.9760638,210.139106 83.7257093,210.076162 88.4598078,210.11995 C90.278821,210.14458 92.0900606,210.634448 94.8496746,211.055899 C87.6086029,214.361825 79.768967,214.197623 72.4112918,214.471293 C63.9303371,214.772329 55.3716468,214.534237 46.8479376,214.58076 C38.7284535,214.627284 30.7488935,215.054208 23.4106522,217.112202 C49.8912866,220.078778 76.4457698,219.033361 102.549386,217.421449 C129.764622,215.746592 156.874915,215.940897 183.72868,217.090309 C225.604852,218.874633 267.477136,219.58891 309.442703,219.832476 C318.269581,219.892683 327.139214,219.753112 335.911677,220.141722 C348.026772,220.680851 359.757075,220.500229 371.397982,218.387501 C375.650119,217.61849 380.660179,217.462499 385.184391,217.695118 C392.666444,218.091938 399.402234,217.145042 404.423954,214.630021 C410.876009,211.397986 418.525193,210.371725 426.800148,210.196577 C442.868098,209.87091 458.963256,209.717656 475.038979,209.665658 C492.090284,209.616398 509.126043,209.712182 526.165688,209.851754 C544.383027,209.999535 562.623687,210.081636 580.821592,210.563294 C593.682949,210.905381 606.474343,211.863223 619.308491,212.52824 C620.863203,212.604867 622.464557,212.530977 624.038703,212.539187 C655.191247,212.654128 686.343792,212.777279 717.511883,212.894957 C717.822825,212.894957 718.164862,212.878537 718.452484,212.925061 C728.744678,214.643704 739.231211,214.665598 749.919857,214.255094 C757.125948,213.981424 764.409774,214.372772 771.650846,214.361825 C777.636488,214.364562 783.63379,214.068999 789.619432,214.137416 C803.433049,214.309828 817.262213,214.57255 831.06417,214.898217 C844.901108,215.22662 858.741933,215.653544 872.582758,216.066785 C885.793924,216.466342 899.043958,217.437869 912.196823,217.136832 C920.949852,216.926107 929.007148,216.605914 936.613577,219.203036 C937.822366,219.608067 939.649152,219.649117 941.199978,219.665537 C950.96357,219.769532 960.727162,219.832476 970.486867,219.892683 C976.472509,219.930997 982.481471,219.829739 988.447679,220.032254 C998.207385,220.352448 1007.91656,221.050304 1017.68793,221.2364 C1022.24323,221.321237 1027.17556,220.959994 1031.38883,220.095198 C1036.41832,219.055255 1040.08356,219.348081 1044.57667,220.804002 C1048.38961,222.049198 1053.17423,223.072721 1057.61294,223.171242 C1082.71376,223.666584 1106.74573,227.084714 1131.10029,229.648996 C1142.45358,230.836721 1153.84184,231.901295 1165.31173,233.028813 C1166.25622,225.896989 1165.86365,225.33323 1153.97399,223.598166 Z" transform="rotate(-1 -8469.867 1029.238)"/>
</svg>
