<svg xmlns="http://www.w3.org/2000/svg" preserveAspectRatio="none" viewBox="0 0 1168 60" class="bricks-shape-svg">
  <path fill-rule="evenodd" d="M1131.9896,186.523939 C1131.69206,189.628051 1136.72161,191.322206 1143.05948,192.933585 C1132.58874,197.088955 1126.21419,197.000661 1120.11678,192.792865 C1118.66987,191.785753 1117.63462,190.646199 1117.36154,189.548034 C1116.72572,186.846767 1116.63605,184.128944 1116.29368,181 C1124.96291,182.128517 1132.25453,183.825431 1131.9896,186.523939 Z M1032.17061,225.484529 C1013.97664,225.805093 995.844765,226.463092 977.683914,226.969246 C975.866587,227.019861 973.800878,226.868015 972.26919,227.101408 C951.657638,230.163637 929.112848,228.85045 907.660938,230.045535 C873.599511,231.949235 839.517385,233.892302 805.265531,235.407951 C784.277267,236.338711 762.970247,236.515864 741.783277,236.985462 C739.427789,237.036078 736.608656,236.965779 734.675417,236.594599 C720.981299,233.934481 706.504779,232.399149 689.527881,233.582986 C694.963303,230.785081 701.412951,229.50845 710.396094,229.061347 C729.57945,228.113715 748.874578,227.163272 767.652244,225.613879 C789.348396,223.819846 811.586849,222.759736 833.113273,221.095053 C870.416084,218.215601 908.559252,217.82755 945.866202,215.448629 C952.957503,215.001526 960.38412,215.097133 967.657568,214.987467 C985.843257,214.711894 1004.13244,214.765321 1022.19394,214.127005 C1038.97213,213.528057 1054.16896,215.212424 1071.68401,215.752321 C1062.90786,221.755864 1051.51127,225.147093 1032.17061,225.484529 Z M659.788104,167.07339 C642.684614,171.005991 551.716831,170.908529 522.98513,167.183035 C568.58335,167.655727 614.189884,166.744455 659.788104,167.07339 Z M677.654926,164.716048 C706.199282,163.063086 734.772546,161.505058 763.387106,160.008458 C765.162869,159.919108 767.302044,160.558514 769.825279,160.943833 C761.541139,162.767117 697.55586,167.932622 682.461875,167.999634 C678.815367,168.016387 675.156469,167.455162 668.710037,166.938611 C673.322891,165.757525 675.255582,164.850072 677.654926,164.716048 Z M313.319703,218.982658 C304.908494,218.955728 297.456567,219.087682 290.10345,218.883019 C276.965826,218.514086 263.902309,217.714284 250.735865,217.496156 C229.096457,217.129916 201.882512,211.900229 194.360595,206 C198.91821,206.075402 202.981775,205.970378 206.765378,206.234286 C234.983891,208.194745 263.268278,210.085188 291.248,212.306863 C305.32432,213.424432 307.411683,214.369654 313.319703,218.982658 Z M108.115242,187.2005 C114.034329,187.5455 119.940787,187.8905 128.933086,188.4125 C116.884416,190.4285 116.884416,190.4285 108.115242,187.2005 Z M122.98513,178.046701 C123.711968,177.693847 124.451785,177.346924 125.182949,177 C129.396877,177.874722 133.619458,178.746479 137.855019,179.624166 C136.704192,180.083766 135.579324,180.537435 134.445804,181 L122.98513,178.046701 Z M137.471159,205.679355 C139.756991,206.533535 139.761162,207.965381 140.828996,209.131664 C136.937242,209.443768 133.066343,210.018697 129.207959,209.999533 C125.741669,209.980368 122.033449,209.451982 118.896686,208.896217 C109.348748,207.217974 99.8425226,205.495926 90.7117073,203.617826 C88.0838344,203.081226 86.7782405,201.94232 82.8364312,200.151828 C106.641622,199.522144 124.260884,200.754134 137.471159,205.679355 Z M1130.45118,156.713249 C1118.18791,159.71531 1108.54924,162.070901 1099.26602,164.343256 C1098.94363,165.916424 1098.67084,167.287051 1098.21205,169.445649 C1086.17611,166.03573 1068.55205,166.440814 1061.88929,160.628136 C1068.63884,160.381201 1073.19365,160.261895 1077.69887,160.039932 C1082.43554,159.804095 1087.53594,159.737506 1091.73942,159.113233 C1098.64191,158.08665 1102.56847,154.110723 1098.31538,152.706801 C1092.90086,150.919992 1087.22594,151.960448 1081.92302,153.000903 C1079.87294,153.408762 1078.03779,153.947024 1075.85958,154.266097 C1066.57637,155.647822 1062.16208,155.192796 1056.24331,152.318365 C1050.89905,149.707515 1046.17065,147.182676 1051.70503,143.822699 C1053.27152,142.871029 1050.43613,140.035441 1049.33669,140.018793 C1043.81058,139.941106 1037.28422,140.074284 1032.90714,140.99266 C1029.70802,141.661326 1027.76127,143.695069 1028.04647,145.065696 C1028.83178,148.988907 1021.9789,150.603694 1011.48464,151.419411 C1007.36795,151.738484 1003.23473,152.046459 999.060177,152.28507 C966.275457,154.185635 933.532069,156.144466 900.668818,157.889657 C891.650126,158.366879 882.147848,159.418433 870.591358,157.71486 C874.443522,156.838103 876.448134,156.069553 878.886736,155.886433 C895.320428,154.624014 911.853318,153.469802 928.373808,152.31559 C936.069868,151.780102 943.989122,150.711901 951.474388,150.947738 C969.441506,151.505422 983.023274,148.678158 997.030765,146.031239 C999.560297,145.554016 1001.05652,144.527434 1003.02807,143.753335 C1002.45355,143.392644 1001.8749,143.026403 1001.28385,142.662937 C995.084017,142.98756 988.842852,143.242818 982.68435,143.653451 C973.806188,144.247204 965.080956,145.132285 956.140796,145.584537 C904.099392,148.198161 852.000124,150.756294 799.900855,153.242289 C792.167596,153.611304 784.219409,153.54194 776.37042,153.622402 C772.171066,153.66402 767.851849,153.375467 763.793024,153.608529 C739.423545,155.037422 715.120197,156.568972 690.77965,158.070003 C687.820263,158.258672 684.898075,158.522254 681.922155,158.699825 C666.513501,159.601553 651.191646,160.91114 635.671396,161.288478 C605.57327,162.01541 575.367681,162.237374 545.191024,162.628585 C503.751336,163.164073 463.006029,161.180271 422.330988,159.082713 C418.305229,158.874621 414.06041,158.366879 410.753832,157.639948 C394.869858,154.146792 379.601734,150.378955 363.457368,147.018978 C354.785867,145.215522 346.345827,142.837734 334.371881,142.959814 C330.775978,145.834246 336.459159,147.196549 342.096874,148.212033 C348.871226,149.441158 356.641684,150.126472 363.482167,151.330625 C366.536618,151.860564 368.392435,153.070267 370.793837,153.971995 C367.309531,154.510257 363.961621,155.192796 360.299586,155.534066 C358.166843,155.733833 355.447183,155.4758 353.136711,155.276033 C329.808804,153.308878 306.067574,151.674669 283.347251,149.147056 C283.045525,149.113762 282.772733,149.049947 282.483407,149.016652 C271.129445,150.353985 259.668019,151.594208 247.917268,152.623565 C206.481713,156.252674 164.298045,157.667693 122.064779,159.110458 C115.612819,159.504444 109.198057,159.906753 102.766763,160.322936 C79.2569943,163.316673 56.2762776,166.67665 34.0519407,170.480556 C46.5549385,170.796854 58.0370304,172.364474 69.1925977,174.134636 C74.4376569,174.967 76.706796,176.678896 73.1398251,178.482352 C69.6927176,180.221994 64.9353786,179.669859 60.6244276,178.809749 C49.2373999,176.531845 37.9330366,174.206774 26.5914742,171.901124 C26.6658723,171.851183 26.7444035,171.801241 26.810535,171.756848 C20.1353808,172.94158 13.5056921,174.159606 7,175.433124 C9.38486933,175.843757 11.6540084,176.337627 13.671021,177.097853 C17.1181285,178.393567 21.2678838,179.805812 26.0582886,180.399565 C47.0302591,183.004866 60.4136333,188.792573 78.657677,192.499369 C81.3194723,193.040406 83.0678253,194.022596 87.1721152,195.484782 C66.9193254,195.107444 50.9857529,193.759014 36.6434712,190.662618 C33.1798308,189.91349 29.5963269,188.984016 25.6904318,188.74818 C22.8178422,188.570609 18.0357038,189.117195 16.5064116,189.844126 C15.0928495,190.504469 15.8781617,192.072088 17.5521168,192.82954 C19.8708546,193.875545 23.7106182,194.652418 27.2858556,195.340506 C41.2478809,198.029043 55.4248338,200.601049 69.3868591,203.289586 C72.9455636,203.974899 77.1407844,204.732351 78.9594023,205.800552 C80.6994889,206.827135 80.831752,208.447471 79.5049876,209.537868 C78.6039451,210.262025 73.7763413,210.961211 70.8500199,210.908495 C52.3827821,210.57 33.9527434,210.01509 15.3036438,209.532319 C22.0945283,213.605356 33.3658258,215.96927 46.0920176,217.972494 C59.0744692,220.011787 70.201104,219.817569 81.1748095,216.651809 C84.7376472,215.63355 90.6894875,214.609742 94.9591062,214.815058 C106.713991,215.383841 117.67943,216.34106 128.293545,218.766015 C144.566042,222.489458 162.086771,225.602501 184.472304,225.766199 C203.427262,225.907701 222.262357,228.124565 241.085051,229.522937 C243.808845,229.725479 247.193954,230.322007 248.429788,231.048939 C254.604822,234.69192 265.855453,235.529834 276.936623,236.59526 C293.176054,238.157331 309.341086,239.769343 325.452387,241.44517 C333.524571,242.283084 341.48929,243.231979 349.317614,244.266886 C354.120418,244.905032 357.455929,245.964909 354.227882,248.439806 C345.295988,247.976456 338.368707,248.731133 332.325936,249.988004 C467.862566,250.55956 603.262799,252.748679 738.741563,254 C741.903478,253.031683 745.015795,252.046718 748.198376,251.086725 C753.290506,249.557949 759.568871,248.10686 766.140695,247.454841 C781.714677,245.914967 798.321964,245.318439 813.590088,243.548278 C846.507071,239.719401 881.337737,239.561252 915.24256,237.671785 C922.380635,237.275025 929.572442,237.041963 934.821635,239.447496 C938.946591,241.345287 944.278447,240.399166 949.267247,239.494663 C954.458574,238.55964 959.57137,237.399879 965.217352,236.944853 C990.603604,234.902786 1015.83279,237.380457 1041.16531,237.585774 C1046.43104,237.630167 1051.34131,239.408652 1056.82609,240.049573 C1060.59146,240.485177 1065.29507,240.67662 1069.14723,240.396391 C1084.51042,239.286572 1099.76614,238.046349 1114.8896,236.670173 C1132.73686,235.044288 1149.47641,232.730315 1169.46054,234.714117 C1186.93994,236.445435 1195.6321,233.115977 1192.19739,227.294975 C1192.09406,227.122953 1192.41232,226.928735 1192.74298,226.459836 C1194.16068,226.165734 1196.23969,225.796719 1198.10377,225.344468 C1206.99846,223.227488 1209.3048,220.816406 1204.65493,218.593993 C1200.19105,216.446493 1192.43299,216.549151 1182.37686,218.821506 C1175.06932,220.477911 1168.00564,222.317436 1160.04506,223.58263 C1156.51115,224.145863 1149.21188,224.062627 1146.74848,223.288528 C1137.15527,220.275369 1129.76094,216.662907 1132.22434,212.093227 C1133.93962,208.927468 1137.13461,205.839396 1139.76747,202.587625 C1159.53254,201.896763 1170.06399,198.411931 1174.60227,192.638096 C1157.23447,192.460525 1151.13796,190.088287 1155.05626,185.119071 C1156.44502,183.348909 1158.20991,181.917243 1152.86152,180.466154 C1151.27436,180.041648 1151.02637,178.843044 1151.36529,178.043974 C1152.83672,174.545269 1154.73387,171.065985 1156.81701,166.887516 C1137.22967,167.217687 1131.50516,163.100258 1130.45118,156.713249 Z" transform="translate(-7 -140)"/>
</svg>
