<svg xmlns="http://www.w3.org/2000/svg" preserveAspectRatio="none" viewBox="0 0 1189 71" class="bricks-shape-svg">
  <path fill-rule="evenodd" d="M1112.50408,243.545832 L1112.53681,244.110832 L1111.93682,243.840832 L1112.50408,243.545832 Z M231.428725,224.584031 C232.388705,224.269031 233.35414,223.959031 234.319574,223.634031 C233.626862,224.294031 232.934149,224.939031 232.235981,225.594031 C231.96326,225.259031 231.701447,224.924031 231.428725,224.584031 Z M588.149765,227.147403 C588.258854,227.367403 588.482485,227.637403 588.411578,227.782403 C588.329761,227.952403 587.964314,228.027403 587.718865,228.137403 C587.489779,228.012403 587.249784,227.887403 587.026152,227.752403 C587.407962,227.552403 587.767955,227.352403 588.149765,227.147403 Z M398.960103,226.893777 C398.981921,227.203777 398.998284,227.508777 399.014648,227.818777 C397.389227,227.893777 395.752897,227.978777 394.122022,228.048777 C394.160203,227.663777 394.209293,227.278777 394.247474,226.893777 C395.807441,226.893777 397.389227,226.893777 398.960103,226.893777 Z M667.735836,235.758083 C669.437619,235.863083 671.155766,235.958083 672.852094,236.063083 C672.819367,236.533083 672.781186,236.998083 672.74846,237.468083 C671.046677,237.368083 669.333985,237.263083 667.615839,237.158083 C667.65402,236.698083 667.70311,236.228083 667.735836,235.758083 Z M649.78221,234.801776 C650.584012,234.671776 651.489447,235.036776 652.422155,235.201776 C652.056708,235.796776 651.84944,236.521776 651.538537,236.546776 C650.649465,236.631776 649.73312,236.436776 648.827684,236.346776 C649.144041,235.801776 649.373128,234.871776 649.78221,234.801776 Z M587.402488,180.666178 C586.878862,180.401178 586.377055,180.146178 585.880701,179.896178 C586.393418,179.406178 586.917043,178.921178 587.440669,178.436178 C587.817025,178.816178 588.515192,179.196178 588.515192,179.576178 C588.515192,179.941178 587.800662,180.296178 587.402488,180.666178 Z M539.252349,160.281056 C537.66511,160.001056 536.061506,159.721056 534.468812,159.456056 C534.58881,158.946056 534.714262,158.456056 534.812441,157.951056 C536.405136,158.236056 538.008739,158.521056 539.579615,158.801056 C539.481436,159.301056 539.361438,159.786056 539.252349,160.281056 Z M794.272072,235.496988 C797.905052,235.496988 801.533069,235.496988 805.166048,235.496988 C805.166048,235.721988 805.166048,235.936988 805.180937,236.151988 C801.642256,236.151988 798.123428,236.151988 794.594673,236.151988 C794.480522,235.936988 794.386223,235.721988 794.272072,235.496988 Z M373.134793,223.217115 C373.186057,223.802115 373.23732,224.382115 373.268078,224.957115 C369.643751,224.697115 366.014298,224.442115 362.374592,224.172115 C362.374592,223.847115 362.359213,223.537115 362.359213,223.217115 C365.957908,223.217115 369.551477,223.217115 373.134793,223.217115 Z M623.337733,231.337386 C625.760465,231.607386 628.172975,231.877386 630.590595,232.147386 C630.544594,232.667386 630.478148,233.187386 630.427035,233.707386 C627.942968,233.497386 625.438457,233.292386 622.95439,233.082386 C623.082171,232.502386 623.215063,231.917386 623.337733,231.337386 Z M991.928777,236.576859 C991.148793,234.820495 990.50517,233.912031 990.45608,232.981936 C990.417899,232.501748 991.705145,231.51109 991.950595,231.580306 C993.0033,231.891779 994.023279,232.441184 994.792354,233.068457 C994.950532,233.211215 993.979643,234.093723 991.928777,236.576859 Z M1028.71139,242.659475 C1038.28927,239.099475 1044.87634,242.334475 1051.62,244.404475 C1044.59971,245.694475 1037.58985,247.069475 1028.71139,242.659475 Z M1210.08572,222.666586 C1210.43465,223.827842 1207.14478,225.900737 1204.36445,228.733331 C1201.92751,225.699959 1199.53488,224.023193 1199.25796,222.080532 C1198.80934,218.949484 1201.11889,215.970375 1204.74661,216.909147 C1207.03401,217.495201 1209.39895,220.392913 1210.08572,222.666586 Z M1179.38072,243.378641 C1170.62348,246.328641 1148.73303,246.938641 1132.4726,245.088641 C1140.24864,241.658641 1167.14997,240.413641 1179.38072,243.378641 Z M348.202822,223.386952 C337.633092,223.386952 327.068541,223.524532 316.50399,223.346824 C307.684661,223.203511 298.880868,222.412422 290.071896,222.464014 C285.62857,222.492677 280.729519,222.762106 276.845492,224.682503 C271.656433,227.239212 269.683348,224.642376 267.477221,220.956359 C277.25461,217.167157 330.351838,218.290733 348.202822,223.386952 Z M1180.3161,227.248995 C1183.05006,226.935236 1185.8256,226.945523 1188.78306,226.786072 C1188.54917,228.462881 1188.56476,229.501885 1188.36725,229.532746 C1174.1361,231.903939 1160.74697,237.849922 1145.60103,236.620605 C1133.95311,235.674186 1122.09729,236.754338 1110.34541,236.666897 C1105.97939,236.636036 1101.63416,235.864498 1097.26814,235.427294 C1097.23176,234.619751 1097.18498,233.796777 1097.14859,232.973804 C1098.17773,232.330856 1099.21726,231.122114 1100.2256,231.137545 C1108.90567,231.250703 1117.56494,231.657046 1126.22941,231.831928 C1133.35019,231.965662 1140.50734,232.346287 1147.58653,231.837072 C1155.65328,231.250703 1163.65245,229.820787 1171.67242,228.704629 C1174.56231,228.298286 1177.42621,227.588471 1180.3161,227.248995 Z M236.903665,217.642782 C240.669603,217.678428 244.425094,218.330237 249.789336,218.870016 C245.281702,224.227068 240.303978,222.317472 236.318665,223.213709 L236.496254,223.386846 L236.491031,223.386846 C236.308218,223.447953 236.125406,223.514152 235.947816,223.575259 C236.026164,223.493783 236.099289,223.4174 236.177638,223.341016 C223.657591,221.523081 211.132321,219.796806 198.701069,224.023378 C197.259461,224.517327 195.332095,224.827954 193.984505,224.354374 C190.54763,223.142418 188.400888,224.568249 186.160129,226.57969 C179.307271,232.675119 170.861332,230.684047 162.760125,230.149361 C161.893071,230.093346 160.60816,229.482275 160.33133,228.835559 C157.171285,221.563819 150.328873,223.244263 144.311729,223.397031 C137.76704,223.55489 131.258914,224.064116 123.246502,220.713412 C126.490119,219.450533 128.239896,218.238576 130.062798,218.1571 C141.491193,217.612229 152.95615,217.383077 164.400215,216.899313 C168.871287,216.705808 173.154323,216.446103 173.937806,222.546624 C187.189103,214.246248 200.445623,215.101747 214.402054,217.678428 C221.594421,219.017691 229.382235,217.556214 236.903665,217.642782 Z M132.980802,225.535462 C134.096932,225.581159 135.186861,226.281849 136.19819,227.454744 C124.947815,230.582462 113.66076,227.835554 101.781579,227.723849 C101.514337,231.562413 99.0095961,232.862244 94.8332809,232.745463 C82.9645809,232.43066 71.0539605,233.288751 59.483943,229.556814 C56.9792019,228.759652 53.7618147,229.455265 50.9374309,229.84623 C40.7036247,231.252688 31.0305032,231.176526 24.0717245,222.651462 C23.6787212,222.164025 23.3171582,221.635968 23.1127964,221.082525 C22.9031947,220.534159 22.9031947,219.919785 22.7459933,218.904292 C26.387824,214.654454 31.6645485,213.618651 37.4338371,213.765897 C45.6973868,213.989306 53.9976167,214.908327 62.1878058,214.40058 C77.9131783,213.44094 92.9992654,217.167799 108.368315,218.706271 C109.667846,218.838285 111.433741,218.934757 112.099226,219.686222 C117.679873,225.921349 125.445619,225.256201 132.980802,225.535462 Z M822.106895,227.694995 C823.015741,224.768278 823.699988,221.78249 824.885667,218.984656 C827.486848,212.857346 833.305554,211.837023 837.870679,216.696984 C839.171269,218.071735 839.881632,219.935168 840.879274,221.567685 C844.347515,227.281496 844.49899,227.539262 850.714663,224.515883 C854.417951,222.706151 857.457886,222.260431 860.550053,225.187148 C863.553424,228.033313 866.73961,227.630554 870.547363,226.433016 C873.451493,225.514725 877.139111,225.149557 879.954445,226.051738 C885.632124,227.88832 890.385286,228.398481 895.665997,224.617915 C899.954289,221.567685 902.858419,223.237793 904.190349,228.194417 C906.483358,236.818833 906.979567,237.076599 916.929868,234.810408 C917.191031,234.251915 917.614115,233.709532 917.713357,233.118819 C918.125994,230.471349 917.50965,226.320244 918.993054,225.471764 C922.116561,223.667403 926.681686,222.23358 930.008899,223.07669 C935.853721,224.564214 942.215646,226.674672 945.004864,232.785871 C946.833004,236.781243 949.758027,237.581391 953.748593,237.141041 C959.525514,236.501996 965.704624,237.930449 970.802521,233.833045 C971.465875,233.285293 972.797805,232.909384 973.581293,233.16715 C981.473632,235.669627 989.313737,238.333208 998.830508,241.49621 C986.665547,249.621206 838.998902,232.216638 822.106895,227.694995 Z M1128.22198,263.758811 C1128.28452,264.488534 1128.35227,265.192381 1128.42002,265.916928 C1125.96537,266.180871 1123.51593,266.662177 1121.06128,266.662177 C1091.81913,266.605249 1062.56134,267.034802 1033.32961,266.232624 C983.413139,264.855983 933.423705,263.448291 883.903312,256.89631 C837.301402,250.722128 790.45976,247.40991 743.555579,244.44444 C728.785973,243.512879 714.078907,242.017205 699.350994,240.707844 C698.564046,240.635389 697.834425,239.983296 695.33808,238.694637 C701.65451,238.694637 706.126042,238.373765 710.5194,238.767091 C718.72242,239.50199 726.826421,240.418025 734.820978,237.286944 C736.790953,236.505468 739.339414,236.728007 741.601238,236.862566 C767.831098,238.441045 794.092228,239.750406 820.285608,241.851594 C834.64871,242.995345 848.907582,245.484683 863.208145,247.451313 C864.802887,247.668677 866.392418,248.232789 867.851659,248.890058 C881.928125,255.224675 896.572653,256.383951 911.957224,254.360393 C918.69058,253.475409 925.731419,254.339691 932.595064,254.769245 C946.035718,255.60765 959.429468,257.134375 972.890968,257.589805 C1003.76955,258.645575 1034.66899,259.054427 1065.54757,260.068793 C1079.65531,260.539749 1093.70572,261.849111 1107.80303,262.713392 C1114.59371,263.12742 1121.40524,263.422414 1128.22198,263.758811 Z M440.330944,143.730731 L440.712754,143.195731 L441.061838,143.750731 L440.330944,143.730731 Z M428.824394,208.991738 C432.775284,209.151738 436.74139,209.316738 440.69228,209.471738 C440.646634,210.171738 440.600989,210.871738 440.550271,211.561738 C436.599381,211.296738 432.643419,211.026738 428.692528,210.761738 C428.743246,210.171738 428.773676,209.576738 428.824394,208.991738 Z M243.052632,191.982654 C243.036159,191.582654 243.008704,191.187654 242.981249,190.792654 C245.133736,190.677654 247.286224,190.552654 249.43322,190.437654 C249.466166,190.947654 249.499113,191.462654 249.526568,191.982654 C247.368589,191.982654 245.199629,191.982654 243.052632,191.982654 Z M191.521843,192.130905 C189.738866,191.920905 187.955889,191.710905 186.162362,191.500905 C186.199287,191.260905 186.230938,191.020905 186.267863,190.785905 C188.066665,190.955905 189.839092,191.115905 191.616794,191.285905 C191.585144,191.565905 191.553493,191.850905 191.521843,192.130905 Z M135.791492,192.744774 C129.621971,192.744774 123.468095,192.744774 117.293358,192.744774 C117.293358,192.559774 117.293358,192.379774 117.293358,192.194774 C123.48374,192.194774 129.653262,192.194774 135.838429,192.194774 C135.822783,192.379774 135.807138,192.559774 135.791492,192.744774 Z M103.323488,192.068547 C102.112604,191.813547 100.896266,191.563547 99.6962904,191.313547 C99.7562892,191.033547 99.8053791,190.748547 99.8762867,190.463547 C101.021718,190.463547 102.183512,190.463547 103.323488,190.463547 C103.323488,191.003547 103.323488,191.528547 103.323488,192.068547 Z M61.9703037,190.718346 C61.886326,189.958346 61.8072882,189.193346 61.7381301,188.423346 C65.5566445,188.423346 69.3800988,188.423346 74.8287681,188.423346 C69.770348,192.258346 65.7492992,190.453346 61.9703037,190.718346 Z M39.9514445,191.065745 C39.9154624,190.405745 39.87434,189.740745 39.8383578,189.070745 C42.4958944,189.070745 45.1585713,189.070745 49.6563364,189.070745 C45.4361477,192.885745 42.7272081,192.330745 39.9514445,191.065745 Z M703.269228,220.154304 C705.00968,220.243384 706.781397,219.729864 709.433763,219.378783 C704.879406,215.61646 697.584099,218.870503 695.661264,212.493417 C705.833007,207.536373 714.321619,207.997494 718.610217,214.694219 C722.231817,220.301024 727.04672,221.862546 733.305051,222.255546 C755.274349,223.633667 777.217593,225.195189 799.18168,226.67811 C799.134781,226.64667 799.087883,226.62047 799.046196,226.59427 C799.01493,226.59427 798.978453,226.59427 798.947188,226.60475 C798.962821,226.58903 798.978453,226.57331 798.994086,226.54711 C797.034775,225.205669 795.044198,223.843267 792.553372,222.140266 C794.022855,220.342944 794.835761,218.456543 796.27919,217.848702 C797.753884,217.235622 800.437515,217.235622 801.448436,218.121182 C802.375982,218.959583 802.214443,221.401425 801.761092,222.947227 C801.375483,224.283428 799.96332,225.357629 798.994086,226.54711 C799.01493,226.56283 799.030563,226.57855 799.046196,226.59427 C802.568787,226.059789 806.450933,226.227469 809.405532,224.734068 C812.219437,223.303547 815.502325,220.311504 815.934833,217.628622 C816.612254,213.415658 812.360132,211.241056 808.326869,210.486496 C802.214443,209.359895 795.982166,208.767774 789.796788,207.913653 C778.426529,206.346892 766.962475,205.225531 755.738123,202.977569 C749.740338,201.782848 744.352232,201.185488 738.422189,203.045689 C734.144012,204.38713 729.370796,205.178371 724.878971,204.979251 C687.818808,203.302449 650.779489,201.112128 613.917341,196.909644 C610.853312,196.548084 607.872658,195.552483 605.553792,195.002282 C603.881082,190.176238 610.790781,186.686395 604.803418,182.683032 C602.75031,183.683872 600.582561,185.156314 598.17511,185.795594 C595.470635,186.518715 592.474348,187.042715 589.759451,186.660195 C576.831124,184.815713 564.001804,182.300511 551.057844,180.69183 C542.256576,179.596669 533.418832,179.544269 525.222033,175.556625 C522.455027,174.220424 518.807373,174.283304 515.540117,174.147064 C508.333396,173.848384 501.10583,173.785504 493.878264,173.717384 C485.176005,173.628304 478.104767,168.838939 475.660839,160.758852 C482.08071,158.589491 488.297354,156.105728 495.519709,157.169449 C501.371588,158.02357 507.275576,158.694291 513.169142,158.961531 C516.452031,159.113491 519.781818,158.28033 523.92451,157.79301 C520.91259,151.054364 516.717788,147.601201 510.865909,144.420518 C510.271863,150.750444 505.696663,152.668285 501.10583,152.495365 C492.007539,152.165245 482.945725,150.739964 473.873489,149.728643 C473.258598,149.665763 472.482169,149.372323 472.133037,148.937402 C471.189858,147.784601 469.69953,146.42744 469.829804,145.279879 C469.949655,144.148038 471.570256,142.644157 472.8782,142.245916 C475.514933,141.438956 478.380947,141.255555 481.794108,140.715835 C479.558618,135.821671 476.098557,134.92563 471.903756,135.34483 C469.610945,135.56491 467.260813,136.429511 465.072221,136.130831 C450.809894,134.171069 436.349552,133.678509 422.118492,132.096027 C410.743023,130.833186 399.383186,129.528425 387.939975,128.742425 C384.672719,128.517104 381.389831,128.234144 378.164263,127.689184 C357.138144,124.131221 335.950486,122.244819 314.590867,122.333899 C305.654115,122.375819 296.988332,122.035219 288.588306,118.288615 C284.575887,116.501774 279.667187,116.087814 275.128464,115.888693 C264.685752,115.401373 254.13361,113.420651 243.800328,116.957654 C242.643501,117.350655 241.147963,117.313975 239.90776,117.046734 C221.346413,113.106251 202.550574,115.338493 183.853743,115.055533 C170.716978,114.851172 157.554159,115.322773 144.412183,115.401373 C119.780098,115.542853 95.1584343,115.637173 70.526349,115.721013 C61.6625502,115.741973 52.7779076,115.270373 43.9505853,115.757693 C35.4776066,116.229294 27.0463153,117.581215 18.6254458,118.697336 C15.5562057,119.100816 12.5651295,119.939217 9.93360783,120.505137 C9.93360783,129.900466 9.67306113,138.122033 10.0274046,146.30692 C10.2306311,151.169644 10.5589199,156.299609 12.3410594,160.774572 C14.1648863,165.338616 14.8787842,169.29482 13.6177382,174.136584 C11.7261691,181.42019 14.8527296,185.764154 22.3929512,188.467997 C24.6649184,189.280197 26.9004091,190.207678 29.5579855,191.239959 C27.0411043,194.735042 25.0765822,197.454604 22.3773184,201.206448 C26.2021439,202.825609 29.516298,205.555651 32.3979445,205.204571 C43.2366874,203.86837 53.1739386,208.028934 63.574963,208.657734 C85.8621279,210.020135 108.164926,210.984296 130.472934,211.775537 C141.905724,212.184257 153.3802,211.880337 164.839044,211.880337 C176.678287,211.880337 188.52274,211.880337 200.361982,211.854137 C212.206435,211.822697 224.066521,212.131857 235.884919,211.613097 C247.447982,211.115296 258.964146,209.559015 270.53242,208.846374 C282.642631,208.091814 294.778896,207.138133 306.769255,210.439336 C309.504996,211.183416 312.631556,210.732776 315.586156,210.722296 C331.34402,210.690856 347.138361,209.931055 362.85975,210.732776 C396.33479,212.430537 429.742088,215.21298 463.206707,217.052221 C498.65148,218.991023 534.13273,220.421544 569.322168,225.284269 C571.625401,225.603909 574.006797,225.320949 576.377772,225.320949 C537.118595,217.188462 497.426911,214.023499 457.730015,210.444576 C474.045449,208.076094 490.61622,214.180699 506.770115,208.207094 C497.791676,206.488372 488.761127,205.277931 479.678469,204.727731 C442.649572,202.464049 405.490401,201.588968 368.701207,196.500924 C365.449584,196.055523 362.156273,195.940243 358.862963,195.835443 C328.311257,194.771722 297.769972,193.755161 267.223477,192.70716 C265.759204,192.64952 264.320987,192.36656 262.861925,192.1884 C265.675829,190.558758 268.510578,189.872318 271.329693,189.935198 C295.320833,190.459198 319.332817,190.674038 343.297903,191.837319 C376.772943,193.451241 410.221929,195.741123 443.665704,197.873805 C475.139746,199.891206 506.655475,201.499888 538.051352,204.37141 C564.512476,206.797532 590.786005,211.356336 617.252339,213.861059 C629.414659,215.0191 641.993854,217.020781 654.197862,212.655858 C657.407797,211.513537 660.456193,212.310017 663.176301,214.85142 C664.885487,216.460101 667.506587,217.890622 669.841086,218.100222 C680.961219,219.048663 692.112618,219.588384 703.269228,220.154304 Z" transform="scale(1 -1) rotate(-2 -6625.66 379.595)"/>
</svg>
