<svg xmlns="http://www.w3.org/2000/svg" preserveAspectRatio="none" viewBox="0 0 125 1200" class="bricks-shape-svg">
  <path fill-rule="evenodd" d="M550.552165,652.978343 L550.584891,653.543343 L549.984904,653.273343 L550.552165,652.978343 Z M-330.523189,634.016541 C-329.563209,633.701541 -328.597774,633.391541 -327.63234,633.066541 C-328.325053,633.726541 -329.017766,634.371541 -329.715933,635.026541 C-329.988655,634.691541 -330.250467,634.356541 -330.523189,634.016541 Z M26.1978506,636.579914 C26.3069393,636.799914 26.530571,637.069914 26.4596634,637.214914 C26.3778469,637.384914 26.0123999,637.459914 25.7669505,637.569914 C25.5378643,637.444914 25.2978693,637.319914 25.0742375,637.184914 C25.4560478,636.984914 25.8160403,636.784914 26.1978506,636.579914 Z M-162.991811,636.326287 C-162.969993,636.636287 -162.95363,636.941287 -162.937267,637.251287 C-164.562687,637.326287 -166.199017,637.411287 -167.829893,637.481287 C-167.791712,637.096287 -167.742622,636.711287 -167.704441,636.326287 C-166.144473,636.326287 -164.562687,636.326287 -162.991811,636.326287 Z M105.783922,645.190594 C107.485705,645.295594 109.203851,645.390594 110.90018,645.495594 C110.867453,645.965594 110.829272,646.430594 110.796546,646.900594 C109.094763,646.800594 107.382071,646.695594 105.663925,646.590594 C105.702106,646.130594 105.751195,645.660594 105.783922,645.190594 Z M87.8302957,644.234287 C88.6320973,644.104287 89.5375331,644.469287 90.470241,644.634287 C90.104794,645.229287 89.8975256,645.954287 89.586623,645.979287 C88.6975505,646.064287 87.7812058,645.869287 86.87577,645.779287 C87.1921271,645.234287 87.4212133,644.304287 87.8302957,644.234287 Z M25.4505737,590.098688 C24.9269481,589.833688 24.4251403,589.578688 23.928787,589.328688 C24.4415036,588.838688 24.9651292,588.353688 25.4887547,587.868688 C25.8651105,588.248688 26.5632779,588.628688 26.5632779,589.008688 C26.5632779,589.373688 25.8487472,589.728688 25.4505737,590.098688 Z M-22.6995648,569.713567 C-24.2868047,569.433567 -25.8904079,569.153567 -27.4831021,568.888567 C-27.3631046,568.378567 -27.2376527,567.888567 -27.1394729,567.383567 C-25.5467786,567.668567 -23.9431755,567.953567 -22.3722989,568.233567 C-22.4704787,568.733567 -22.5904762,569.218567 -22.6995648,569.713567 Z M232.320158,644.929498 C235.953138,644.929498 239.581154,644.929498 243.214134,644.929498 C243.214134,645.154498 243.214134,645.369498 243.229023,645.584498 C239.690342,645.584498 236.171514,645.584498 232.642759,645.584498 C232.528608,645.369498 232.434309,645.154498 232.320158,644.929498 Z M-188.817121,632.649625 C-188.765858,633.234625 -188.714594,633.814625 -188.683836,634.389625 C-192.308163,634.129625 -195.937616,633.874625 -199.577322,633.604625 C-199.577322,633.279625 -199.592701,632.969625 -199.592701,632.649625 C-195.994006,632.649625 -192.400437,632.649625 -188.817121,632.649625 Z M61.385819,640.769897 C63.8085509,641.039897 66.2210603,641.309897 68.6386809,641.579897 C68.5926797,642.099897 68.5262334,642.619897 68.4751209,643.139897 C65.9910541,642.929897 63.4865422,642.724897 61.0024754,642.514897 C61.1302566,641.934897 61.2631491,641.349897 61.385819,640.769897 Z M429.976863,646.009369 C429.196879,644.253005 428.553256,643.344541 428.504166,642.414447 C428.465985,641.934259 429.753231,640.9436 429.99868,641.012816 C431.051386,641.32429 432.071365,641.873694 432.84044,642.500967 C432.998618,642.643726 432.027729,643.526234 429.976863,646.009369 Z M466.759474,652.091985 C476.337353,648.531985 482.924428,651.766985 489.66809,653.836985 C482.647792,655.126985 475.637933,656.501985 466.759474,652.091985 Z M648.133809,632.099097 C648.482734,633.260352 645.192865,635.333247 642.412538,638.165842 C639.975598,635.132469 637.582966,633.455703 637.306041,631.513043 C636.857422,628.381994 639.166977,625.402886 642.794695,626.341658 C645.082095,626.927712 647.447035,629.825424 648.133809,632.099097 Z M617.428802,652.811152 C608.67157,655.761152 586.781114,656.371152 570.520682,654.521152 C578.296726,651.091152 605.198061,649.846152 617.428802,652.811152 Z M-213.749092,632.819462 C-224.318822,632.819462 -234.883373,632.957043 -245.447925,632.779334 C-254.267254,632.636021 -263.071046,631.844932 -271.880018,631.896525 C-276.323344,631.925187 -281.222396,632.194616 -285.106422,634.115014 C-290.295481,636.671722 -292.268566,634.074886 -294.474693,630.38887 C-284.697304,626.599667 -231.600077,627.723243 -213.749092,632.819462 Z M618.364184,636.681505 C621.098145,636.367747 623.873687,636.378034 626.831146,636.218583 C626.597252,637.895391 626.612845,638.934395 626.415335,638.965257 C612.184185,641.336449 598.795054,647.282432 583.649119,646.053116 C572.001198,645.106696 560.145372,646.186849 548.393499,646.099408 C544.027478,646.068546 539.682247,645.297009 535.316226,644.859804 C535.279842,644.052262 535.233064,643.229288 535.19668,642.406315 C536.225814,641.763367 537.265343,640.554624 538.273685,640.570055 C546.953751,640.683214 555.613026,641.089557 564.277499,641.264439 C571.398272,641.398172 578.555428,641.778797 585.634619,641.269582 C593.701363,640.683214 601.700537,639.253298 609.720502,638.13714 C612.610392,637.730797 615.474294,637.020982 618.364184,636.681505 Z M-325.04825,627.075293 C-321.282312,627.110939 -317.52682,627.762747 -312.162578,628.302526 C-316.670213,633.659579 -321.647937,631.749983 -325.63325,632.64622 L-325.45566,632.819357 L-325.460884,632.819357 C-325.643696,632.880464 -325.826509,632.946663 -326.004098,633.00777 C-325.92575,632.926294 -325.852625,632.84991 -325.774277,632.773526 C-338.294323,630.955591 -350.819593,629.229317 -363.250846,633.455888 C-364.692453,633.949837 -366.619819,634.260465 -367.967409,633.786885 C-371.404284,632.574928 -373.551026,634.00076 -375.791785,636.0122 C-382.644643,642.10763 -391.090582,640.116558 -399.191789,639.581871 C-400.058843,639.525856 -401.343754,638.914786 -401.620584,638.268069 C-404.780629,630.996329 -411.623041,632.676773 -417.640185,632.829541 C-424.184874,632.987401 -430.693,633.496626 -438.705412,630.145923 C-435.461795,628.883043 -433.712018,627.671087 -431.889116,627.589611 C-420.460721,627.044739 -408.995764,626.815588 -397.5517,626.331824 C-393.080627,626.138318 -388.797591,625.878613 -388.014109,631.979134 C-374.762812,623.678759 -361.506292,624.534258 -347.549861,627.110939 C-340.357493,628.450202 -332.56968,626.988725 -325.04825,627.075293 Z M-428.971112,634.967972 C-427.854982,635.01367 -426.765053,635.71436 -425.753725,636.887254 C-437.0041,640.014973 -448.291155,637.268064 -460.170335,637.15636 C-460.437577,640.994924 -462.942318,642.294755 -467.118633,642.177973 C-478.987333,641.86317 -490.897954,642.721262 -502.467971,638.989325 C-504.972712,638.192163 -508.1901,638.887776 -511.014483,639.27874 C-521.24829,640.685198 -530.921411,640.609036 -537.88019,632.083972 C-538.273193,631.596535 -538.634756,631.068479 -538.839118,630.515035 C-539.04872,629.966669 -539.04872,629.352296 -539.205921,628.336803 C-535.56409,624.086964 -530.287366,623.051161 -524.518077,623.198408 C-516.254528,623.421816 -507.954298,624.340838 -499.764109,623.833091 C-484.038736,622.87345 -468.952649,626.60031 -453.583599,628.138782 C-452.284068,628.270796 -450.518173,628.367267 -449.852688,629.118732 C-444.272041,635.35386 -436.506295,634.688712 -428.971112,634.967972 Z M260.154981,637.127506 C261.063827,634.200789 261.748074,631.215001 262.933752,628.417167 C265.534934,622.289857 271.35364,621.269534 275.918765,626.129495 C277.219355,627.504246 277.929718,629.367679 278.92736,631.000196 C282.395601,636.714006 282.547075,636.971772 288.762749,633.948393 C292.466037,632.138662 295.505971,631.692942 298.598138,634.619658 C301.60151,637.465823 304.787696,637.063064 308.595449,635.865527 C311.499578,634.947236 315.187197,634.582068 318.002531,635.484248 C323.680209,637.32083 328.433371,637.830992 333.714082,634.050425 C338.002375,631.000196 340.906505,632.670304 342.238435,637.626927 C344.531444,646.251344 345.027653,646.50911 354.977954,644.242918 C355.239117,643.684425 355.6622,643.142043 355.761442,642.55133 C356.174079,639.903859 355.557735,635.752754 357.04114,634.904275 C360.164646,633.099914 364.729771,631.666091 368.056985,632.5092 C373.901807,633.996724 380.263732,636.107182 383.05295,642.218382 C384.881089,646.213753 387.806112,647.013901 391.796679,646.573551 C397.573599,645.934507 403.75271,647.362959 408.850607,643.265556 C409.513961,642.717803 410.845891,642.341895 411.629379,642.599661 C419.521717,645.102138 427.361823,647.765719 436.878594,650.928721 C424.713633,659.053716 277.046988,641.649149 260.154981,637.127506 Z M566.270067,673.191322 C566.332606,673.921045 566.400357,674.624891 566.468107,675.349439 C564.013455,675.613381 561.564014,676.094688 559.109362,676.094688 C529.867211,676.037759 500.609425,676.467312 471.377697,675.665135 C421.461225,674.288494 371.471791,672.880801 321.951398,666.32882 C275.349488,660.154639 228.507846,656.842421 181.603664,653.876951 C166.834059,652.945389 152.126992,651.449716 137.399079,650.140355 C136.612131,650.0679 135.882511,649.415807 133.386166,648.127147 C139.702596,648.127147 144.174128,647.806276 148.567486,648.199602 C156.770506,648.9345 164.874506,649.850536 172.869064,646.719454 C174.839039,645.937978 177.3875,646.160518 179.649324,646.295077 C205.879184,647.873555 232.140314,649.182917 258.333694,651.284105 C272.696796,652.427855 286.955667,654.917194 301.256231,656.883823 C302.850973,657.101188 304.440504,657.6653 305.899745,658.322568 C319.976211,664.657185 334.620739,665.816461 350.00531,663.792903 C356.738666,662.90792 363.779505,663.772202 370.64315,664.201755 C384.083804,665.04016 397.477553,666.566886 410.939053,667.022316 C441.817639,668.078085 472.717072,668.486937 503.595658,669.501304 C517.703393,669.97226 531.753801,671.281621 545.851114,672.145903 C552.641797,672.55993 559.453326,672.854925 566.270067,673.191322 Z M-121.620971,553.163242 L-121.23916,552.628242 L-120.890077,553.183242 L-121.620971,553.163242 Z M-133.12752,618.424248 C-129.17663,618.584248 -125.210525,618.749248 -121.259634,618.904248 C-121.30528,619.604248 -121.350926,620.304248 -121.401643,620.994248 C-125.352534,620.729248 -129.308496,620.459248 -133.259386,620.194248 C-133.208668,619.604248 -133.178238,619.009248 -133.12752,618.424248 Z M-318.899282,601.415165 C-318.915755,601.015165 -318.94321,600.620165 -318.970665,600.225165 C-316.818178,600.110165 -314.665691,599.985165 -312.518694,599.870165 C-312.485748,600.380165 -312.452802,600.895165 -312.425346,601.415165 C-314.583325,601.415165 -316.752285,601.415165 -318.899282,601.415165 Z M-370.430072,601.563416 C-372.213049,601.353416 -373.996025,601.143416 -375.789553,600.933416 C-375.752627,600.693416 -375.720977,600.453416 -375.684051,600.218416 C-373.885249,600.388416 -372.112822,600.548416 -370.33512,600.718416 C-370.366771,600.998416 -370.398421,601.283416 -370.430072,601.563416 Z M-426.160422,602.177284 C-432.329944,602.177284 -438.48382,602.177284 -444.658556,602.177284 C-444.658556,601.992284 -444.658556,601.812284 -444.658556,601.627284 C-438.468174,601.627284 -432.298653,601.627284 -426.113486,601.627284 C-426.129131,601.812284 -426.144777,601.992284 -426.160422,602.177284 Z M-458.628426,601.501057 C-459.83931,601.246057 -461.055649,600.996057 -462.255624,600.746057 C-462.195625,600.466057 -462.146535,600.181057 -462.075628,599.896057 C-460.930197,599.896057 -459.768403,599.896057 -458.628426,599.896057 C-458.628426,600.436057 -458.628426,600.961057 -458.628426,601.501057 Z M-499.981611,600.150857 C-500.065588,599.390857 -500.144626,598.625857 -500.213784,597.855857 C-496.39527,597.855857 -492.571816,597.855857 -487.123146,597.855857 C-492.181566,601.690857 -496.202615,599.885857 -499.981611,600.150857 Z M-522.00047,600.498256 C-522.036452,599.838256 -522.077574,599.173256 -522.113556,598.503256 C-519.45602,598.503256 -516.793343,598.503256 -512.295578,598.503256 C-516.515767,602.318256 -519.224706,601.763256 -522.00047,600.498256 Z M141.317313,629.586815 C143.057765,629.675895 144.829483,629.162374 147.481848,628.811294 C142.927492,625.048971 135.632184,628.303014 133.70935,621.925928 C143.881093,616.968884 152.369704,617.430004 156.658303,624.12673 C160.279902,629.733535 165.094805,631.295056 171.353137,631.688056 C193.322435,633.066178 215.265678,634.627699 237.229766,636.11062 C237.182867,636.07918 237.135969,636.05298 237.094281,636.02678 C237.063016,636.02678 237.026539,636.02678 236.995273,636.03726 C237.010906,636.02154 237.026539,636.00582 237.042172,635.97962 C235.082861,634.638179 233.092284,633.275778 230.601457,631.572776 C232.070941,629.775455 232.883847,627.889053 234.327275,627.281213 C235.80197,626.668132 238.485601,626.668132 239.496522,627.553693 C240.424068,628.392094 240.262529,630.833936 239.809178,632.379737 C239.423569,633.715938 238.011406,634.790139 237.042172,635.97962 C237.063016,635.99534 237.078648,636.01106 237.094281,636.02678 C240.616873,635.4923 244.499019,635.65998 247.453618,634.166579 C250.267523,632.736057 253.550411,629.744015 253.982919,627.061132 C254.66034,622.848169 250.408218,620.673567 246.374955,619.919006 C240.262529,618.792405 234.030252,618.200285 227.844873,617.346164 C216.474615,615.779403 205.01056,614.658042 193.786208,612.41008 C187.788423,611.215359 182.400317,610.617998 176.470274,612.4782 C172.192098,613.819641 167.418882,614.610882 162.927057,614.411761 C125.866894,612.73496 88.8275746,610.544638 51.9654271,606.342154 C48.9013978,605.980594 45.9207436,604.984993 43.6018779,604.434793 C41.9291681,599.608749 48.8388666,596.118906 42.8515034,592.115542 C40.7983954,593.116383 38.6306468,594.588824 36.2231953,595.228105 C33.5187205,595.951225 30.5224334,596.475226 27.8075368,596.092706 C14.8792094,594.248224 2.04988975,591.733022 -10.8940704,590.12434 C-19.6953381,589.029179 -28.5330822,588.976779 -36.7298815,584.989136 C-39.4968875,583.652935 -43.1445413,583.715815 -46.411797,583.579575 C-53.6185188,583.280894 -60.8460843,583.218014 -68.0736498,583.149894 C-76.7759097,583.060814 -83.8471472,578.27145 -86.2910753,570.191363 C-79.8712045,568.022001 -73.6545602,565.538239 -66.4322056,566.60196 C-60.5803267,567.456081 -54.6763384,568.126801 -48.782772,568.394041 C-45.4998835,568.546002 -42.1700966,567.712841 -38.0274041,567.22552 C-41.0393239,560.486875 -45.2341259,557.033712 -51.0860048,553.853029 C-51.6800513,560.182954 -56.2552514,562.100796 -60.8460843,561.927876 C-69.9443752,561.597755 -79.0061895,560.172474 -88.0784257,559.161153 C-88.6933159,559.098273 -89.4697451,558.804833 -89.8188776,558.369913 C-90.7620567,557.217112 -92.2523838,555.85995 -92.1221105,554.712389 C-92.002259,553.580548 -90.3816585,552.076667 -89.0737141,551.678427 C-86.4369814,550.871466 -83.5709677,550.688066 -80.1578059,550.148346 C-82.3932966,545.254181 -85.8533568,544.35814 -90.0481587,544.777341 C-92.3409697,544.997421 -94.691101,545.862022 -96.8796933,545.563342 C-111.14202,543.60358 -125.602362,543.111019 -139.833423,541.528538 C-151.208892,540.265697 -162.568728,538.960936 -174.011939,538.174935 C-177.279195,537.949615 -180.562083,537.666655 -183.787651,537.121694 C-204.81377,533.563731 -226.001428,531.677329 -247.361047,531.76641 C-256.297799,531.80833 -264.963582,531.467729 -273.363608,527.721126 C-277.376027,525.934284 -282.284727,525.520324 -286.823451,525.321204 C-297.266162,524.833883 -307.818304,522.853162 -318.151586,526.390165 C-319.308413,526.783165 -320.803952,526.746485 -322.044154,526.479245 C-340.605501,522.538761 -359.40134,524.771003 -378.098171,524.488043 C-391.234936,524.283683 -404.397756,524.755283 -417.539731,524.833883 C-442.171817,524.975364 -466.79348,525.069684 -491.425565,525.153524 C-500.289364,525.174484 -509.174007,524.702883 -518.001329,525.190204 C-526.474308,525.661804 -534.905599,527.013725 -543.326468,528.129846 C-546.395709,528.533327 -549.386785,529.371727 -552.018306,529.937648 C-552.018306,539.332976 -552.278853,547.554543 -551.92451,555.73943 C-551.721283,560.602155 -551.392994,565.732119 -549.610855,570.207083 C-547.787028,574.771127 -547.07313,578.72733 -548.334176,583.569095 C-550.225745,590.852701 -547.099185,595.196665 -539.558963,597.900507 C-537.286996,598.712708 -535.051505,599.640189 -532.393929,600.672469 C-534.91081,604.167553 -536.875332,606.887115 -539.574596,610.638958 C-535.74977,612.25812 -532.435616,614.988162 -529.55397,614.637082 C-518.715227,613.30088 -508.777976,617.461444 -498.376951,618.090245 C-476.089786,619.452646 -453.786989,620.416807 -431.47898,621.208047 C-420.046191,621.616768 -408.571714,621.312847 -397.11287,621.312847 C-385.273628,621.312847 -373.429175,621.312847 -361.589932,621.286647 C-349.745479,621.255207 -337.885393,621.564368 -326.066995,621.045607 C-314.503932,620.547807 -302.987768,618.991525 -291.419494,618.278885 C-279.309284,617.524324 -267.173018,616.570643 -255.182659,619.871846 C-252.446919,620.615927 -249.320358,620.165286 -246.365759,620.154806 C-230.607894,620.123366 -214.813553,619.363566 -199.092165,620.165286 C-165.617124,621.863048 -132.209826,624.64549 -98.7452077,626.484732 C-63.3004342,628.423534 -27.8191843,629.854055 7.37025342,634.716779 C9.67348628,635.036419 12.0548831,634.753459 14.4258581,634.753459 C-24.833319,626.620972 -64.5250037,623.456009 -104.221899,619.877086 C-87.9064648,617.508604 -71.3356945,623.613209 -55.181799,617.639604 C-64.1602384,615.920883 -73.1907871,614.710442 -82.2734451,614.160241 C-119.302343,611.896559 -156.461513,611.021479 -193.250708,605.933434 C-196.502331,605.488034 -199.795641,605.372754 -203.088951,605.267953 C-233.640658,604.204233 -264.181942,603.187672 -294.728437,602.139671 C-296.19271,602.082031 -297.630928,601.79907 -299.089989,601.62091 C-296.276085,599.991269 -293.441337,599.304828 -290.622221,599.367708 C-266.631081,599.891709 -242.619097,600.106549 -218.654011,601.26983 C-185.178971,602.883751 -151.729985,605.173633 -118.28621,607.306315 C-86.8121687,609.323717 -55.2964395,610.932398 -23.9005618,613.803921 C2.56056129,616.230043 28.8340908,620.788847 55.3004249,623.293569 C67.4627449,624.45161 80.0419398,626.453292 92.2459473,622.088368 C95.4558827,620.946047 98.5042791,621.742528 101.224387,624.28393 C102.933573,625.892611 105.554673,627.323133 107.889171,627.532733 C119.009305,628.481174 130.160703,629.020894 141.317313,629.586815 Z" transform="matrix(0 1 1 0 -552.11 552.11)"/>
</svg>
