<svg xmlns="http://www.w3.org/2000/svg" preserveAspectRatio="none" viewBox="0 0 104 1200" class="bricks-shape-svg">
  <path fill-rule="evenodd" d="M-156.169378,621.869897 C-153.201216,637.807174 -156.216375,642.919394 -160.968891,641.968891 C-167.801653,641.34773 -167.968891,632.968891 -165.968891,622.968891 C-165.879357,622.521223 -165.823661,622.085355 -165.798728,621.662366 C-165.858855,621.4396 -165.915645,621.208498 -165.968891,620.968891 C-166.016379,620.209085 -166.072323,619.472958 -166.136724,618.76051 C-166.92604,616.213249 -168.924351,614.480026 -170.968891,613.968891 C-173.968891,613.968891 -181.604253,615.974395 -177.968891,635.968891 C-173.968891,657.968891 -176.340464,664.968891 -182.968891,664.968891 C-191.461086,664.968891 -189.242868,651.982642 -187.968891,637.968891 C-186.968891,626.968891 -184.968891,616.968891 -190.968891,614.968891 C-195.968891,614.968891 -196.968891,618.968891 -201.968891,618.968891 C-206.968891,616.968891 -206.968891,610.968891 -210.968891,610.968891 C-213.968891,611.968891 -217.968891,613.968891 -215.968891,617.968891 C-211.47498,626.956711 -215.891275,632.478593 -219.968891,631.968891 C-227.081375,631.322301 -223.968891,619.968891 -222.968891,616.968891 C-220.642297,609.989111 -225.434785,607.029122 -228.968891,605.968891 C-232.968891,604.968891 -238.968891,608.968891 -237.968891,618.968891 C-235.666655,641.991244 -233.968891,649.968891 -241.968891,649.968891 C-249.968891,648.968891 -245.968891,635.977591 -245.968891,623.968891 C-245.968891,615.968891 -249.036455,610.107145 -253.968891,608.968891 C-258.968891,609.968891 -266.968891,614.968891 -262.968891,634.968891 C-256.567581,666.975437 -257.83113,681.581437 -266.968891,679.968891 C-275.655754,678.946907 -272.968891,664.968891 -271.968891,647.968891 C-270.968891,630.968891 -273.07881,613.457899 -277.968891,612.968891 C-283.968891,612.968891 -282.968891,621.968891 -280.968891,629.968891 C-279.470247,635.963466 -282.968891,641.968891 -286.968891,641.968891 C-292.968891,640.968891 -293.968891,631.968891 -292.968891,622.968891 C-292.968891,613.968891 -297.213116,605.968891 -301.968891,605.968891 C-312.968891,606.968891 -313.968891,622.968891 -311.968891,648.968891 C-308.352527,695.981623 -306.34669,706.980529 -316.968891,705.968891 C-327.288035,706.951666 -324.968891,688.968891 -322.968891,661.968891 C-320.968891,634.968891 -317.968891,613.968891 -328.968891,604.968891 C-333.968891,603.968891 -343.968891,602.968891 -342.968891,609.968891 C-340.825003,624.976106 -341.968891,627.968891 -345.968891,628.968891 C-349.968891,627.968891 -349.968891,623.968891 -350.968891,618.968891 C-351.522492,616.200882 -353.192264,614.57223 -355.968891,614.968891 C-360.968891,615.968891 -363.968891,617.968891 -361.968891,638.968891 C-359.110435,668.982677 -358.968891,681.968891 -368.968891,681.968891 C-374.968891,681.968891 -378.021624,676.759404 -376.968891,665.968891 C-372.968891,624.968891 -374.968891,616.968891 -381.968891,612.968891 C-394.968891,611.968891 -404.968891,616.968891 -403.968891,630.968891 C-402.61044,649.987195 -401.496541,663.50263 -408.968891,662.968891 C-418.968891,664.968891 -416.742991,643.83939 -413.968891,629.968891 C-411.968891,619.968891 -412.968891,610.968891 -418.968891,609.968891 C-420.968891,609.968891 -423.968891,609.968891 -423.968891,615.968891 C-423.968891,624.993439 -423.560902,633.070888 -427.968891,631.968891 C-433.227373,632.553167 -431.968891,622.968891 -430.968891,615.968891 C-429.968891,608.968891 -432.811649,605.553167 -436.968891,605.968891 C-441.251421,607.039523 -447.968891,606.968891 -443.968891,635.968891 C-440.382275,661.971856 -440.339545,680.476499 -448.968891,679.968891 C-450.968891,679.968891 -456.968891,678.968891 -456.968891,666.968891 C-456.968891,656.591686 -456.388288,648.904672 -454.968891,638.968891 C-452.968891,624.968891 -456.069156,611.367297 -456.968891,605.968891 C-461.968891,602.968891 -486.968891,593.968891 -478.968891,641.968891 C-479.635557,648.635557 -481.635557,651.968891 -484.968891,651.968891 C-489.635557,652.635557 -491.968891,649.302224 -491.968891,641.968891 C-490.968891,623.968891 -484.968891,607.968891 -498.968891,604.968891 C-502.968891,604.968891 -506.968891,607.968891 -507.968891,616.968891 C-508.968891,620.968891 -509.968891,631.968891 -514.968891,632.968891 C-518.968891,630.968891 -518.639188,625.957999 -519.968891,621.968891 C-520.968891,618.968891 -521.944156,618.150928 -523.968891,618.968891 C-528.931029,620.973521 -529.968891,631.968891 -528.968891,638.968891 C-526.539679,655.973371 -524.968891,664.968891 -525.968891,671.968891 C-526.535904,675.937981 -533.968891,681.968891 -537.968891,675.968891 C-541.968891,669.968891 -540.345203,657.998877 -537.968891,648.968891 C-532.968891,629.968891 -538.968891,618.968891 -545.968891,617.968891 C-549.968891,617.968891 -555.968891,622.968891 -553.968891,633.968891 C-552.150399,643.970594 -554.081281,653.637477 -554.968891,654.968891 C-556.968891,657.968891 -562.566717,659.922694 -565.968891,653.968891 C-573.968891,639.968891 -559.968891,608.968891 -574.968891,607.968891 C-581.968891,608.968891 -581.968891,613.968891 -583.968891,620.968891 C-584.968891,626.968891 -591.968891,629.968891 -593.968891,620.968891 C-594.635557,610.302224 -596.968891,604.302224 -600.968891,602.968891 L-172.968891,602.968891 L255.031109,602.968891 L706.031109,602.968891 C700.031109,606.968891 697.697776,611.968891 699.031109,617.968891 C703.255516,636.97872 700.151794,642.993028 695.031109,641.968891 C688.198347,641.34773 688.031109,632.968891 690.031109,622.968891 C690.990965,618.16961 688.061827,614.72657 685.031109,613.968891 C682.031109,613.968891 674.395747,615.974395 678.031109,635.968891 C682.031109,657.968891 679.659536,664.968891 673.031109,664.968891 C664.538914,664.968891 666.757132,651.982642 668.031109,637.968891 C669.031109,626.968891 671.031109,616.968891 665.031109,614.968891 C660.031109,614.968891 659.031109,618.968891 654.031109,618.968891 C649.031109,616.968891 649.031109,610.968891 645.031109,610.968891 C642.031109,611.968891 638.031109,613.968891 640.031109,617.968891 C644.52502,626.956711 640.108725,632.478593 636.031109,631.968891 C628.918625,631.322301 632.031109,619.968891 633.031109,616.968891 C635.357703,609.989111 630.565215,607.029122 627.031109,605.968891 C623.031109,604.968891 617.031109,608.968891 618.031109,618.968891 C620.333345,641.991244 622.031109,649.968891 614.031109,649.968891 C606.031109,648.968891 610.031109,635.977591 610.031109,623.968891 C610.031109,615.968891 607.963545,602.107145 603.031109,600.968891 C598.031109,601.968891 589.031109,614.968891 593.031109,634.968891 C599.432419,666.975437 598.16887,681.581437 589.031109,679.968891 C580.344246,678.946907 583.031109,664.968891 584.031109,647.968891 C585.031109,630.968891 582.92119,613.457899 578.031109,612.968891 C572.031109,612.968891 573.031109,621.968891 575.031109,629.968891 C576.529753,635.963466 573.031109,641.968891 569.031109,641.968891 C563.031109,640.968891 562.031109,631.968891 563.031109,622.968891 C563.031109,613.968891 558.786884,605.968891 554.031109,605.968891 C543.031109,606.968891 542.031109,622.968891 544.031109,648.968891 C547.647473,695.981623 549.65331,706.980529 539.031109,705.968891 C528.711965,706.951666 531.031109,688.968891 533.031109,661.968891 C535.031109,634.968891 538.031109,613.968891 527.031109,604.968891 C522.031109,603.968891 512.031109,602.968891 513.031109,609.968891 C515.174997,624.976106 514.031109,627.968891 510.031109,628.968891 C506.031109,627.968891 506.031109,623.968891 505.031109,618.968891 C504.477508,616.200882 502.807736,614.57223 500.031109,614.968891 C495.031109,615.968891 492.031109,617.968891 494.031109,638.968891 C496.889565,668.982677 497.031109,681.968891 487.031109,681.968891 C481.031109,681.968891 477.978376,676.759404 479.031109,665.968891 C483.031109,624.968891 481.031109,616.968891 474.031109,612.968891 C461.031109,611.968891 451.031109,616.968891 452.031109,630.968891 C453.38956,649.987195 454.503459,663.50263 447.031109,662.968891 C437.031109,664.968891 439.257009,643.83939 442.031109,629.968891 C444.031109,619.968891 443.031109,610.968891 437.031109,609.968891 C435.031109,609.968891 432.031109,609.968891 432.031109,615.968891 C432.031109,624.993439 432.439098,633.070888 428.031109,631.968891 C422.772627,632.553167 424.031109,622.968891 425.031109,615.968891 C426.031109,608.968891 423.188351,605.553167 419.031109,605.968891 C414.748579,607.039523 408.031109,606.968891 412.031109,635.968891 C415.617725,661.971856 415.660455,680.476499 407.031109,679.968891 C405.031109,679.968891 399.031109,678.968891 399.031109,666.968891 C399.031109,656.591686 399.611712,648.904672 401.031109,638.968891 C403.031109,624.968891 399.930844,611.367297 399.031109,605.968891 C394.031109,602.968891 369.031109,593.968891 377.031109,641.968891 C376.364443,648.635557 374.364443,651.968891 371.031109,651.968891 C366.364443,652.635557 364.031109,649.302224 364.031109,641.968891 C365.031109,623.968891 371.031109,607.968891 357.031109,604.968891 C353.031109,604.968891 349.031109,607.968891 348.031109,616.968891 C347.031109,620.968891 346.031109,631.968891 341.031109,632.968891 C337.031109,630.968891 337.360812,625.957999 336.031109,621.968891 C335.031109,618.968891 334.055844,618.150928 332.031109,618.968891 C327.068971,620.973521 326.031109,631.968891 327.031109,638.968891 C329.460321,655.973371 331.031109,664.968891 330.031109,671.968891 C329.464096,675.937981 322.031109,681.968891 318.031109,675.968891 C314.031109,669.968891 315.654797,657.998877 318.031109,648.968891 C323.031109,629.968891 317.031109,618.968891 310.031109,617.968891 C306.031109,617.968891 300.031109,622.968891 302.031109,633.968891 C303.849601,643.970594 301.918719,653.637477 301.031109,654.968891 C299.031109,657.968891 293.433283,659.922694 290.031109,653.968891 C282.031109,639.968891 296.031109,608.968891 281.031109,607.968891 C274.031109,608.968891 274.031109,613.968891 272.031109,620.968891 C271.979662,621.277575 271.912333,621.578319 271.830622,621.869897 C274.798784,637.807174 271.783625,642.919394 267.031109,641.968891 C260.198347,641.34773 260.031109,632.968891 262.031109,622.968891 C262.120643,622.521223 262.176339,622.085355 262.201272,621.662366 C262.141145,621.4396 262.084355,621.208498 262.031109,620.968891 C261.983621,620.209085 261.927677,619.472958 261.863276,618.76051 C261.07396,616.213249 259.075649,614.480026 257.031109,613.968891 C254.031109,613.968891 246.395747,615.974395 250.031109,635.968891 C254.031109,657.968891 251.659536,664.968891 245.031109,664.968891 C236.538914,664.968891 238.757132,651.982642 240.031109,637.968891 C241.031109,626.968891 243.031109,616.968891 237.031109,614.968891 C232.031109,614.968891 231.031109,618.968891 226.031109,618.968891 C221.031109,616.968891 221.031109,610.968891 217.031109,610.968891 C214.031109,611.968891 210.031109,613.968891 212.031109,617.968891 C216.52502,626.956711 212.108725,632.478593 208.031109,631.968891 C200.918625,631.322301 204.031109,619.968891 205.031109,616.968891 C207.357703,609.989111 202.565215,607.029122 199.031109,605.968891 C195.031109,604.968891 189.031109,608.968891 190.031109,618.968891 C192.333345,641.991244 194.031109,649.968891 186.031109,649.968891 C178.031109,648.968891 182.031109,635.977591 182.031109,623.968891 C182.031109,615.968891 178.963545,610.107145 174.031109,608.968891 C169.031109,609.968891 161.031109,614.968891 165.031109,634.968891 C171.432419,666.975437 170.16887,681.581437 161.031109,679.968891 C152.344246,678.946907 155.031109,664.968891 156.031109,647.968891 C157.031109,630.968891 154.92119,613.457899 150.031109,612.968891 C144.031109,612.968891 145.031109,621.968891 147.031109,629.968891 C148.529753,635.963466 145.031109,641.968891 141.031109,641.968891 C135.031109,640.968891 134.031109,631.968891 135.031109,622.968891 C135.031109,613.968891 130.786884,605.968891 126.031109,605.968891 C115.031109,606.968891 114.031109,622.968891 116.031109,648.968891 C119.647473,695.981623 121.65331,706.980529 111.031109,705.968891 C100.711965,706.951666 103.031109,688.968891 105.031109,661.968891 C107.031109,634.968891 110.031109,613.968891 99.0311093,604.968891 C94.0311093,603.968891 84.0311093,602.968891 85.0311093,609.968891 C87.1749972,624.976106 86.0311093,627.968891 82.0311093,628.968891 C78.0311093,627.968891 78.0311093,623.968891 77.0311093,618.968891 C76.4775076,616.200882 74.8077358,614.57223 72.0311093,614.968891 C67.0311093,615.968891 64.0311093,617.968891 66.0311093,638.968891 C68.8895652,668.982677 69.0311093,681.968891 59.0311093,681.968891 C53.0311093,681.968891 49.9783763,676.759404 51.0311093,665.968891 C55.0311093,624.968891 53.0311093,616.968891 46.0311093,612.968891 C33.0311093,611.968891 23.0311093,616.968891 24.0311093,630.968891 C25.3895596,649.987195 26.5034592,663.50263 19.0311093,662.968891 C9.03110931,664.968891 11.2570094,643.83939 14.0311093,629.968891 C16.0311093,619.968891 15.0311093,610.968891 9.03110931,609.968891 C7.03110931,609.968891 4.03110931,609.968891 4.03110931,615.968891 C4.03110931,624.993439 4.43909778,633.070888 0.0311093147,631.968891 C-5.2273732,632.553167 -3.96889069,622.968891 -2.96889069,615.968891 C-1.96889069,608.968891 -4.81164904,605.553167 -8.96889069,605.968891 C-13.2514206,607.039523 -19.9688907,606.968891 -15.9688907,635.968891 C-12.3822748,661.971856 -12.3395445,680.476499 -20.9688907,679.968891 C-22.9688907,679.968891 -28.9688907,678.968891 -28.9688907,666.968891 C-28.9688907,656.591686 -28.388288,648.904672 -26.9688907,638.968891 C-24.9688907,624.968891 -28.0691563,611.367297 -28.9688907,605.968891 C-33.9688907,602.968891 -58.9688907,593.968891 -50.9688907,641.968891 C-51.6355574,648.635557 -53.6355574,651.968891 -56.9688907,651.968891 C-61.6355574,652.635557 -63.9688907,649.302224 -63.9688907,641.968891 C-62.9688907,623.968891 -56.9688907,607.968891 -70.9688907,604.968891 C-74.9688907,604.968891 -78.9688907,607.968891 -79.9688907,616.968891 C-80.9688907,620.968891 -81.9688907,631.968891 -86.9688907,632.968891 C-90.9688907,630.968891 -90.6391878,625.957999 -91.9688907,621.968891 C-92.9688907,618.968891 -93.9441556,618.150928 -95.9688907,618.968891 C-100.931029,620.973521 -101.968891,631.968891 -100.968891,638.968891 C-98.5396792,655.973371 -96.9688907,664.968891 -97.9688907,671.968891 C-98.5359036,675.937981 -105.968891,681.968891 -109.968891,675.968891 C-113.968891,669.968891 -112.345203,657.998877 -109.968891,648.968891 C-104.968891,629.968891 -110.968891,618.968891 -117.968891,617.968891 C-121.968891,617.968891 -127.968891,622.968891 -125.968891,633.968891 C-124.150399,643.970594 -126.081281,653.637477 -126.968891,654.968891 C-128.968891,657.968891 -134.566717,659.922694 -137.968891,653.968891 C-145.968891,639.968891 -131.968891,608.968891 -146.968891,607.968891 C-153.968891,608.968891 -153.968891,613.968891 -155.968891,620.968891 C-156.020338,621.277575 -156.087667,621.578319 -156.169378,621.869897 Z" transform="scale(-1 1) rotate(90 1 601.969)"/>
</svg>
