<svg xmlns="http://www.w3.org/2000/svg" preserveAspectRatio="none" viewBox="0 0 61 1144" class="bricks-shape-svg">
  <path fill-rule="evenodd" d="M79.6361696,632.1595 C79.7728032,632.4295 79.8624691,632.5915 79.9435953,632.7385 C79.6361696,632.7775 79.3372834,632.8045 79.0341275,632.8405 C79.2091894,632.6425 79.3970606,632.4475 79.6361696,632.1595 Z M143.941522,585.773704 C143.407797,585.665704 142.899691,585.554704 142.378775,585.449704 C142.626423,585.368704 142.92104,585.209704 143.12599,585.227704 C143.672525,585.281704 144.176361,585.425704 144.693007,585.527704 C144.436819,585.605704 144.19771,585.689704 143.941522,585.773704 Z M-1.0573948,582.128 C-0.737159653,582.11 -0.408384901,582.077 -0.0369121287,582.05 C0.172308168,582.158 0.402877475,582.281 0.62917698,582.404 C0.19792698,582.587 -0.216243812,582.764 -0.638954208,582.95 C-0.775587871,582.68 -0.907951733,582.404 -1.0573948,582.128 Z M29.4852104,630.587926 C29.0240718,630.749926 28.524505,631.070926 28.1231436,631.034926 C27.7089728,631.001926 27.3844678,630.638926 27.0172649,630.413926 C27.4869431,630.248926 27.9865099,629.936926 28.3878713,629.963926 C28.8148515,629.990926 29.1308168,630.365926 29.4852104,630.587926 Z M122.916113,585.833 C122.902914,585.62 122.902914,585.398 122.898515,585.182 C124.790339,585.176 126.695361,585.176 128.587185,585.167 C128.587185,585.38 128.591584,585.602 128.591584,585.815 C126.695361,585.824 124.803537,585.824 122.916113,585.833 Z M-534.21478,621.3835 C-534.358812,620.9905 -534.506959,620.5975 -534.65099,620.2045 C-531.568714,620.0185 -528.502899,619.8385 -524.688119,619.6165 C-527.646939,622.2835 -531.453489,620.4025 -534.21478,621.3835 Z M137.131188,633.524399 C129.443959,635.530136 112.507474,635.527743 105.819307,633.292231 C114.937733,631.439676 129.788873,631.633548 137.131188,633.524399 Z M379.086634,637.25418 C378.775631,637.841636 378.472404,638.415302 378.161402,639 C357.118211,637.803024 336.086682,636.60329 315.039604,635.409071 C326.017984,632.604175 336.961376,634.871259 347.873668,634.766455 C358.587697,634.661651 369.332825,634.896081 379.086634,637.25418 Z M300.806931,635.39798 C298.786816,635.547743 296.751191,635.844443 294.75434,635.782277 C268.965883,635.04194 243.258851,635.301906 217.547942,636.84192 C210.750894,637.251649 203.7561,636.74302 196.850485,636.678029 C186.784806,636.590432 176.715249,636.581954 166.657325,636.392632 C163.737657,636.336117 160.856763,635.739892 157.056931,635.276475 C159.809871,631.608698 164.020706,631.829104 168.09971,631.882792 C175.951405,632.001472 183.861261,632.470541 191.647041,632.131455 C199.363028,631.798021 206.920042,630.057381 214.581746,630.000867 C221.913872,629.955655 229.242121,631.693469 236.647918,631.891269 C251.370331,632.292521 266.150905,632.114501 280.90046,632.315126 C285.910035,632.382944 290.938998,632.758764 295.87878,633.199575 C297.732168,633.369118 299.380055,634.13206 300.806931,635.39798 Z M243.273484,598.166108 C242.778187,597.833108 242.291429,597.512108 241.791863,597.188108 C242.334127,597.065108 242.940439,596.789108 243.393038,596.840108 C243.845637,596.891108 244.153063,597.275108 244.537345,597.518108 C244.106095,597.731108 243.687655,597.944108 243.273484,598.166108 Z M151.14539,598.798909 C150.573236,598.723909 150.026702,598.552909 149.475897,598.420909 C150.06086,598.339909 150.628744,598.231909 151.205167,598.198909 C151.401578,598.189909 151.619338,598.417909 151.828558,598.531909 C151.589449,598.621909 151.303373,598.825909 151.14539,598.798909 Z M124.35313,594.7685 C124.337456,594.6005 124.329619,594.4325 124.321782,594.2705 C128.459663,594.2615 132.597544,594.2465 136.731506,594.2315 C136.864734,594.3935 137.005798,594.5615 137.131188,594.7325 C132.883591,594.7475 128.616401,594.7595 124.35313,594.7685 Z M120.05198,596.956545 C123.255549,596.941545 126.470478,596.932545 130.014851,596.920545 C125.588171,598.441545 125.588171,598.477545 120.05198,596.956545 Z M-115.890632,587 C-115.994651,586.629333 -116.098671,586.268616 -116.210396,585.895461 C-110.751284,585.716347 -105.296024,585.547183 -99.8484693,585.328266 C-88.1250544,584.877992 -76.4209025,584.283432 -64.6859298,584.007297 C-60.9951538,583.91774 -57.2119158,584.66405 -53.5866337,585.611864 C-74.3790327,587.009951 -95.1329058,586.955221 -115.890632,587 Z M-137.559406,589.843727 C-135.345995,586.876727 -135.345995,586.876727 -129.019802,587.458727 C-132.455318,588.415727 -134.460631,588.973727 -137.559406,589.843727 Z M-156.061881,588.978065 C-155.980657,586.805947 -154.781634,585.204259 -149.308672,585 C-148.376528,588.853517 -148.786517,589.097631 -156.061881,588.978065 Z M-224.350248,575.806 C-224.397215,575.815 -224.529579,575.527 -224.619245,575.374 C-224.07698,575.314 -223.538985,575.221 -222.99245,575.194 C-222.941213,575.185 -222.808849,575.473 -222.714913,575.62 C-223.248639,575.695 -223.786634,575.773 -224.350248,575.806 Z M-250.559715,575.662536 C-250.811634,575.680536 -251.089171,575.572536 -252.314604,575.335536 C-250.593874,575.386536 -249.846658,575.410536 -249.103713,575.434536 C-249.581931,575.518536 -250.064418,575.626536 -250.559715,575.662536 Z M-267.894332,576.850254 C-270.448855,577.388721 -273.255724,577.922011 -275.973302,577.953077 C-285.636231,578.043684 -295.326336,578.004853 -304.985383,577.821049 C-306.689692,577.787395 -309.589736,576.933095 -309.737261,576.322141 C-310.156545,574.634253 -306.973097,574.590243 -304.484572,574.605776 C-295.757266,574.649785 -287.022195,574.87501 -278.302654,574.81029 C-273.845827,574.786991 -269.412293,574.302888 -264.5323,574 C-263.538443,575.208963 -265.08358,576.265188 -267.894332,576.850254 Z M-287.316543,591.722 C-287.615429,591.767 -287.875887,591.806 -288.144885,591.839 C-288.119266,591.617 -288.110726,591.383 -288.093647,591.161 C-287.837459,591.215 -287.470256,591.224 -287.350702,591.323 C-287.222608,591.413 -287.316543,591.59 -287.316543,591.722 Z M-326.61414,577.872061 C-326.652568,577.878061 -326.895947,577.629061 -327.04539,577.497061 C-326.579981,577.362061 -326.135922,577.230061 -325.653434,577.128061 C-325.619276,577.119061 -325.375897,577.377061 -325.239264,577.503061 C-325.687593,577.632061 -326.135922,577.773061 -326.61414,577.872061 Z M-327.932797,572.6515 L-327.544245,572.3305 L-327.198391,572.6695 L-327.932797,572.6515 Z M582.337293,632.569353 C569.619748,630.691981 556.68843,629.230587 543.869829,627.566677 C541.39395,627.243747 538.991919,626.81956 536.558795,626.444633 C536.714266,626.077916 536.881398,625.702989 537.036869,625.336272 C545.61888,625.002395 554.2864,627.380582 563.008335,625.47037 C555.087077,623.784566 546.944272,622.667995 538.941391,621.351646 C536.469399,620.943878 532.609826,620.144764 532.357185,619.296389 C531.38549,615.974042 526.694146,615.708583 522.002802,615.40481 C516.071576,615.021673 510.085934,614.805474 504.115839,614.594749 C498.141858,614.37855 492.086254,614.501701 486.182235,614.061093 C464.365737,612.421814 442.646409,610.3474 420.767722,608.979053 C411.672656,608.415294 402.744722,608.002053 394.263767,606.152048 C392.561357,605.785331 390.594646,605.66218 388.721218,605.555449 C370.259012,604.479928 351.812352,603.355147 333.338485,602.405515 C312.952323,601.354624 292.519518,600.487092 272.102261,599.521039 C266.120506,599.244633 266.066091,599.220003 260.278676,597.257794 C276.412701,597.55883 291.10473,597.846183 305.800647,598.122589 C305.804534,597.895443 305.816194,597.660088 305.816194,597.430205 C301.521302,596.940337 297.222523,596.466889 292.923744,595.990704 C317.841892,594.794769 342.293627,596.272584 366.749249,597.394628 C391.574115,598.538566 416.383434,599.797445 441.126677,601.329994 C465.558979,602.843386 489.929091,604.614026 514.237015,606.537922 C538.696524,608.472765 562.623544,611.923736 587.487277,614.028253 C587.378448,611.108201 584.331212,610.300876 580.988581,609.70975 C576.223388,608.853165 571.516497,607.832378 566.59972,607.304196 C537.876413,604.258256 509.293031,600.675924 480.305423,598.524883 C434.421981,595.114962 388.235371,592.818876 342.250873,589.761989 C333.350146,589.1736 322.937461,590.654152 315.917936,586.149554 C315.595333,585.947038 314.736355,585.955248 314.118357,585.900515 C307.600226,585.388753 301.093756,584.619742 294.528984,584.403543 C271.869055,583.656426 249.166371,583.111824 226.490894,582.449544 C221.628532,582.307236 216.703981,582.132087 211.013735,580.161668 C214.900515,579.638959 217.174282,579.261295 219.498576,579.023203 C223.51362,578.609962 228.068927,578.765954 231.465973,577.813584 C237.556558,576.100414 243.305106,575.205515 250.312971,575.982736 C253.698356,576.357663 257.830004,575.958106 260.395279,573.317197 C249.551162,571.453508 238.815875,572.879326 228.469265,572.184205 C216.241454,571.354987 155.094626,573.478662 150.360528,574.461135 C152.568219,576.439764 156.272321,576.00463 159.478915,576.02926 C168.950998,576.083994 178.419195,576.01284 187.879618,576.081257 C190.180592,576.092204 192.450472,576.497235 195.925254,576.847532 C192.944093,577.898422 190.130064,578.344503 189.593689,579.181931 C187.455959,582.553538 181.777373,582.624692 176.674031,583.191188 C173.611248,583.533274 170.431862,583.601692 167.30689,583.716633 C162.809885,583.883571 158.433371,584.231131 154.558251,585.585795 C167.676134,586.716049 181.147715,585.380543 193.818619,588.024189 C185.978983,588.535951 178.13546,588.845197 170.319145,588.76857 C150.173962,588.566054 130.087082,588.508584 109.914692,587.318122 C88.0593261,586.034612 65.8269426,586.283652 43.7539171,586.182394 C17.5764516,586.048296 -8.58157998,585.938828 -34.607461,584.299549 C-38.1327708,584.077876 -41.6036656,583.609902 -45.0901076,583.259605 C-45.0512398,582.887415 -45.0007116,582.512488 -44.9657306,582.132087 C-39.0578245,581.705163 -33.1693523,581.272765 -27.2692198,580.829421 C-27.3158612,580.470914 -27.354729,580.112407 -27.3935968,579.751164 C-43.1311703,579.362553 -58.8648571,578.957522 -74.6063174,578.560702 C-73.7162447,577.849161 -72.861153,577.635699 -71.9982878,577.622016 C-54.97419,577.359293 -37.9423186,576.992576 -20.914334,576.907739 C12.208808,576.743537 45.3319499,576.735327 78.4667522,576.620386 C80.0331247,576.612176 81.6111575,576.220829 83.1891903,575.999156 C83.1619829,575.67349 83.1503225,575.347823 83.1464357,575.030367 C78.8748642,574.723857 74.6305,574.250409 70.3394946,574.129995 C47.3686228,573.511502 24.3783172,572.9669 1.40355868,572.438718 C-5.52268386,572.269043 -12.4644735,572.115788 -19.4023764,572.145892 C-37.3826222,572.211572 -55.3784151,572.441455 -73.3664345,572.493452 C-101.736044,572.578289 -130.10954,572.539976 -158.47915,572.61113 C-160.298163,572.61934 -162.093856,573.109208 -163.94785,573.292566 C-171.694203,574.004107 -179.425009,574.800485 -187.225777,575.345087 C-191.917121,575.67349 -194.641754,574.280513 -193.59621,572.477032 C-191.77331,569.318887 -185.38733,568.311784 -180.361723,570.394408 C-179.405575,570.796702 -178.441654,571.212679 -177.092941,571.781911 C-175.829737,569.187526 -178.278409,568.224209 -181.48889,567.726131 C-183.883146,567.345731 -186.448421,567.252683 -188.951508,567.110375 C-218.389982,565.317841 -247.933399,564.970281 -277.562326,565.046908 C-300.859687,565.107115 -324.164822,564.671981 -347.326146,563.092909 C-379.158877,560.90629 -410.886665,558.456949 -443.298526,559.568047 C-459.27708,560.112649 -475.434425,559.414792 -491.494602,559.017972 C-497.91945,558.867453 -502.175474,559.614571 -503.139396,563.084699 C-499.462501,564.127379 -496.275342,560.835136 -491.405206,562.783662 C-493.185351,563.333738 -494.145386,563.864656 -495.19093,563.916653 C-502.054984,564.20127 -508.930698,564.401048 -515.790866,564.600827 C-518.608781,564.669244 -523.638275,564.335368 -523.894803,564.775975 C-526.001437,568.295364 -532.799416,566.910596 -536.760045,568.339151 C-540.89558,569.827912 -547.048353,569.513192 -550.977888,572.129471 C-545.202132,573.095524 -540.176525,573.949373 -534.295827,574.931846 C-537.35861,576.163358 -541.039391,576.948789 -542.345349,578.322609 C-544.704624,580.804791 -548.610839,582.241555 -552.30328,583.984829 C-554.24667,584.915305 -555.16395,586.751626 -555.38161,588.226704 C-555.797495,591.258961 -555.346629,594.321321 -555.424365,597.369998 C-555.533194,601.379254 -556.263909,605.407668 -555.898552,609.405977 C-555.412704,614.548225 -552.940712,615.853628 -542.73014,616.442017 C-534.902164,616.896308 -526.973133,616.838838 -519.110176,617.112507 C-516.327241,617.200081 -513.1051,617.216501 -510.94405,617.936252 C-506.606404,619.389436 -502.183248,619.498904 -497.367527,619.304599 C-492.660636,619.110293 -487.91099,619.047349 -483.176892,619.091136 C-481.357879,619.115767 -479.546639,619.605635 -476.787025,620.027086 C-484.028097,623.333012 -491.867733,623.16881 -499.225408,623.44248 C-507.706362,623.743516 -516.265053,623.505424 -524.788762,623.551947 C-532.908246,623.598471 -540.887806,624.025395 -548.226047,626.083389 C-521.745413,629.049965 -495.19093,628.004548 -469.087313,626.392635 C-441.872077,624.717779 -414.761784,624.912084 -387.908019,626.061496 C-346.031848,627.84582 -304.159564,628.560097 -262.193996,628.803663 C-253.367118,628.86387 -244.497485,628.724299 -235.725022,629.112909 C-223.609928,629.652038 -211.879625,629.471416 -200.238718,627.358688 C-195.98658,626.589677 -190.97652,626.433686 -186.452308,626.666305 C-178.970256,627.063125 -172.234466,626.116229 -167.212745,623.601208 C-160.76069,620.369172 -153.111506,619.342912 -144.836551,619.167764 C-128.768601,618.842097 -112.673444,618.688843 -96.5977205,618.636845 C-79.5464152,618.587585 -62.510657,618.683369 -45.4710121,618.822941 C-27.2536727,618.970722 -9.0130126,619.052823 9.1848929,619.534481 C22.046249,619.876568 34.8376431,620.83441 47.6717917,621.499427 C49.2265038,621.576054 50.8278573,621.502164 52.4020034,621.510374 C83.5545477,621.625315 114.707092,621.748466 145.875183,621.866144 C146.186126,621.866144 146.528163,621.849724 146.815784,621.896248 C157.107979,623.614891 167.594512,623.636785 178.283158,623.226281 C185.489249,622.952611 192.773075,623.343959 200.014147,623.333012 C205.999788,623.335749 211.99709,623.040186 217.982732,623.108603 C231.796349,623.281015 245.625514,623.543737 259.427471,623.869404 C273.264409,624.197807 287.105233,624.624731 300.946058,625.037972 C314.157224,625.437529 327.407259,626.409056 340.560123,626.108019 C349.313153,625.897294 357.370448,625.577101 364.976877,628.174223 C366.185666,628.579254 368.012453,628.620304 369.563278,628.636724 C379.32687,628.740719 389.090462,628.803663 398.850168,628.86387 C404.83581,628.902184 410.844772,628.800926 416.81098,629.003441 C426.570685,629.323634 436.279862,630.021491 446.051228,630.207587 C450.606535,630.292424 455.538859,629.93118 459.752129,629.066385 C464.781622,628.026442 468.446856,628.319268 472.939974,629.775189 C476.752906,631.020385 481.537532,632.043908 485.976236,632.142429 C511.077063,632.637771 535.109026,636.055901 559.463591,638.620183 C570.816877,639.807908 582.205143,640.872482 593.675032,642 C594.619519,634.868176 594.226955,634.304417 582.337293,632.569353 Z" transform="rotate(90 31.5 588)"/>
</svg>
