<svg xmlns="http://www.w3.org/2000/svg" preserveAspectRatio="none" viewBox="0 0 148 1200" class="bricks-shape-svg">
  <path fill-rule="evenodd" d="M-526,674 C-506.535636,656.353809 -488.202303,647.020476 -471,646 C-446.718178,644.559553 -429.172557,655.571024 -418.021175,664.374581 C-417.322368,664.92626 -413,651 -384,645 C-355,639 -341,655 -328,656 C-303,615 -259,613 -230,609 C-159,605 -141,639 -130,651 C-120,642 -110.52795,637.024845 -97,636 C-83.4720498,634.975155 -70,643 -64,646 C-25,620 -14,613 50,609 C95,604 122,615 139,628 C150,618 167,614 186,613 C189.333333,581.666667 211.333333,562.333333 252,555 C280.666667,551 311,553.333333 343,562 C359.666667,538 385,526 419,526 C454.333333,528 478.333333,543.333333 491,572 C522.333333,571.333333 548.666667,575 570,583 C590,589 604,599 612,613 C623,614 634.311744,609.613167 653,628 C665.458837,640.257889 672.458837,655.591222 674,674 L-526,674 Z" transform="rotate(90 74 600)"/>
</svg>
