<svg width="14" height="16" viewBox="0 0 14 16" fill="none" xmlns="http://www.w3.org/2000/svg">
<path fill-rule="evenodd" clip-rule="evenodd" d="M1.72175 1.63924H9.04569C9.24794 1.63924 9.41189 1.80926 9.41189 2.01899V11.1329C9.41189 11.3426 9.24794 11.5127 9.04569 11.5127H1.72175C1.5195 11.5127 1.35555 11.3426 1.35555 11.1329V2.01899C1.35555 1.80926 1.5195 1.63924 1.72175 1.63924ZM9.04569 0.5H1.72175C0.912766 0.5 0.256958 1.18007 0.256958 2.01899V11.1329C0.256958 11.9718 0.912766 12.6519 1.72175 12.6519H9.04569C9.85467 12.6519 10.5105 11.9718 10.5105 11.1329V2.01899C10.5105 1.18007 9.85467 0.5 9.04569 0.5ZM8.3133 3.3481H2.45414V4.48734H8.3133V3.3481ZM2.45414 5.81646H8.3133V6.9557H2.45414V5.81646ZM6.84851 8.28481H2.45414V9.42405H6.84851V8.28481Z" fill="#1E1E1E"/>
<path fill-rule="evenodd" clip-rule="evenodd" d="M12.1584 3.53797V13.4114C12.1584 13.9365 11.7493 14.3608 11.2444 14.3608H3.18654V15.5H11.2444C12.3575 15.5 13.257 14.5641 13.257 13.4114V3.53797H12.1584Z" fill="#1E1E1E"/>
</svg>
