<svg width="260" height="46" viewBox="0 0 260 46" fill="none" xmlns="http://www.w3.org/2000/svg">
<path d="M78.7074 19.726C78.7074 20.7433 78.4621 21.697 77.9717 22.5871C77.4994 23.4773 76.7455 24.1948 75.71 24.7398C74.6927 25.2848 73.4029 25.5573 71.8407 25.5573H68.6525V32.86H64.8377V13.8402H71.8407C73.3121 13.8402 74.5656 14.0946 75.601 14.6032C76.6365 15.1119 77.4085 15.8113 77.9172 16.7014C78.444 17.5915 78.7074 18.5997 78.7074 19.726ZM71.6772 22.4782C72.7308 22.4782 73.5119 22.242 74.0206 21.7697C74.5292 21.2792 74.7835 20.598 74.7835 19.726C74.7835 17.8731 73.7481 16.9466 71.6772 16.9466H68.6525V22.4782H71.6772ZM84.4133 20.1075C84.9037 19.3082 85.5396 18.6815 86.3207 18.2273C87.12 17.7732 88.0283 17.5461 89.0456 17.5461V21.5517H88.0374C86.8384 21.5517 85.9301 21.8333 85.3125 22.3964C84.713 22.9595 84.4133 23.9405 84.4133 25.3393V32.86H80.5984V17.7641H84.4133V20.1075ZM97.5008 33.1052C96.0476 33.1052 94.7396 32.7873 93.577 32.1515C92.4144 31.4975 91.497 30.5802 90.8248 29.3994C90.1709 28.2186 89.8439 26.8561 89.8439 25.312C89.8439 23.7679 90.18 22.4055 90.8521 21.2247C91.5424 20.0439 92.4779 19.1356 93.6587 18.4998C94.8395 17.8458 96.1566 17.5189 97.6098 17.5189C99.0631 17.5189 100.38 17.8458 101.561 18.4998C102.742 19.1356 103.668 20.0439 104.34 21.2247C105.031 22.4055 105.376 23.7679 105.376 25.312C105.376 26.8561 105.022 28.2186 104.313 29.3994C103.623 30.5802 102.678 31.4975 101.479 32.1515C100.298 32.7873 98.9723 33.1052 97.5008 33.1052ZM97.5008 29.7809C98.1911 29.7809 98.836 29.6174 99.4355 29.2904C100.053 28.9452 100.544 28.4366 100.907 27.7644C101.27 27.0923 101.452 26.2748 101.452 25.312C101.452 23.8769 101.07 22.7779 100.307 22.0149C99.5627 21.2338 98.6453 20.8432 97.5553 20.8432C96.4654 20.8432 95.548 21.2338 94.8032 22.0149C94.0766 22.7779 93.7132 23.8769 93.7132 25.312C93.7132 26.7471 94.0675 27.8553 94.7759 28.6364C95.5026 29.3994 96.4109 29.7809 97.5008 29.7809ZM114.278 20.8977H111.635V32.86H107.765V20.8977H106.049V17.7641H107.765V17.0011C107.765 15.1482 108.292 13.7857 109.346 12.9138C110.399 12.0418 111.989 11.6331 114.114 11.6876V14.903C113.188 14.8848 112.543 15.0392 112.18 15.3662C111.816 15.6932 111.635 16.2836 111.635 17.1374V17.7641H114.278V20.8977ZM117.867 15.9657C117.195 15.9657 116.632 15.7568 116.178 15.3389C115.742 14.903 115.524 14.3671 115.524 13.7313C115.524 13.0954 115.742 12.5686 116.178 12.1508C116.632 11.7148 117.195 11.4968 117.867 11.4968C118.539 11.4968 119.093 11.7148 119.529 12.1508C119.984 12.5686 120.211 13.0954 120.211 13.7313C120.211 14.3671 119.984 14.903 119.529 15.3389C119.093 15.7568 118.539 15.9657 117.867 15.9657ZM119.747 17.7641V32.86H115.933V17.7641H119.747ZM126.514 12.6958V32.86H122.699V12.6958H126.514ZM143.499 24.9851C143.499 25.53 143.462 26.0205 143.39 26.4565H132.354C132.445 27.5464 132.826 28.4002 133.498 29.0179C134.17 29.6355 134.997 29.9444 135.978 29.9444C137.395 29.9444 138.403 29.3358 139.003 28.1187H143.117C142.681 29.572 141.846 30.7709 140.61 31.7155C139.375 32.642 137.858 33.1052 136.06 33.1052C134.606 33.1052 133.299 32.7873 132.136 32.1515C130.991 31.4975 130.092 30.5802 129.438 29.3994C128.802 28.2186 128.485 26.8561 128.485 25.312C128.485 23.7498 128.802 22.3782 129.438 21.1975C130.074 20.0167 130.964 19.1084 132.109 18.4726C133.253 17.8368 134.57 17.5189 136.06 17.5189C137.495 17.5189 138.776 17.8277 139.902 18.4453C141.046 19.063 141.927 19.944 142.545 21.0885C143.181 22.2147 143.499 23.5136 143.499 24.9851ZM139.548 23.8951C139.529 22.9141 139.175 22.133 138.485 21.5517C137.795 20.9522 136.95 20.6525 135.951 20.6525C135.006 20.6525 134.207 20.9431 133.553 21.5244C132.917 22.0876 132.526 22.8778 132.381 23.8951H139.548ZM161.932 23.1049C163.004 23.3047 163.885 23.8406 164.575 24.7126C165.265 25.5845 165.61 26.5837 165.61 27.7099C165.61 28.7272 165.356 29.6264 164.847 30.4076C164.357 31.1706 163.639 31.77 162.695 32.206C161.75 32.642 160.633 32.86 159.343 32.86H151.141V13.8402H158.989C160.279 13.8402 161.387 14.0492 162.313 14.467C163.258 14.8848 163.966 15.4661 164.439 16.2109C164.929 16.9557 165.174 17.8004 165.174 18.7451C165.174 19.8532 164.875 20.7796 164.275 21.5244C163.694 22.2692 162.913 22.7961 161.932 23.1049ZM154.956 21.6879H158.444C159.352 21.6879 160.052 21.4881 160.542 21.0885C161.033 20.6706 161.278 20.0802 161.278 19.3173C161.278 18.5543 161.033 17.9639 160.542 17.5461C160.052 17.1283 159.352 16.9194 158.444 16.9194H154.956V21.6879ZM158.798 29.7536C159.725 29.7536 160.442 29.5356 160.951 29.0996C161.478 28.6637 161.741 28.046 161.741 27.2467C161.741 26.4292 161.468 25.7934 160.924 25.3393C160.379 24.867 159.643 24.6308 158.716 24.6308H154.956V29.7536H158.798ZM182.084 17.7641V32.86H178.242V30.9526C177.752 31.6065 177.107 32.1243 176.308 32.5057C175.527 32.8691 174.673 33.0507 173.746 33.0507C172.565 33.0507 171.521 32.8055 170.613 32.315C169.704 31.8064 168.987 31.0706 168.46 30.1078C167.951 29.1269 167.697 27.9643 167.697 26.62V17.7641H171.512V26.075C171.512 27.274 171.812 28.2004 172.411 28.8544C173.011 29.4902 173.828 29.8081 174.863 29.8081C175.917 29.8081 176.744 29.4902 177.343 28.8544C177.943 28.2004 178.242 27.274 178.242 26.075V17.7641H182.084ZM186.966 15.9657C186.293 15.9657 185.73 15.7568 185.276 15.3389C184.84 14.903 184.622 14.3671 184.622 13.7313C184.622 13.0954 184.84 12.5686 185.276 12.1508C185.73 11.7148 186.293 11.4968 186.966 11.4968C187.638 11.4968 188.192 11.7148 188.628 12.1508C189.082 12.5686 189.309 13.0954 189.309 13.7313C189.309 14.3671 189.082 14.903 188.628 15.3389C188.192 15.7568 187.638 15.9657 186.966 15.9657ZM188.846 17.7641V32.86H185.031V17.7641H188.846ZM195.612 12.6958V32.86H191.797V12.6958H195.612ZM197.583 25.2575C197.583 23.7316 197.883 22.3782 198.482 21.1975C199.1 20.0167 199.935 19.1084 200.989 18.4726C202.043 17.8368 203.214 17.5189 204.504 17.5189C205.485 17.5189 206.421 17.7368 207.311 18.1728C208.201 18.5906 208.909 19.1538 209.436 19.8623V12.6958H213.305V32.86H209.436V30.6256C208.964 31.3704 208.301 31.9699 207.447 32.424C206.593 32.8782 205.603 33.1052 204.477 33.1052C203.205 33.1052 202.043 32.7782 200.989 32.1243C199.935 31.4703 199.1 30.5529 198.482 29.3721C197.883 28.1732 197.583 26.8016 197.583 25.2575ZM209.463 25.312C209.463 24.3856 209.282 23.5954 208.918 22.9414C208.555 22.2692 208.065 21.7606 207.447 21.4154C206.829 21.0521 206.166 20.8705 205.458 20.8705C204.749 20.8705 204.095 21.043 203.496 21.3882C202.896 21.7333 202.406 22.242 202.024 22.9141C201.661 23.5681 201.479 24.3492 201.479 25.2575C201.479 26.1658 201.661 26.9651 202.024 27.6554C202.406 28.3276 202.896 28.8453 203.496 29.2086C204.114 29.572 204.767 29.7536 205.458 29.7536C206.166 29.7536 206.829 29.581 207.447 29.2359C208.065 28.8726 208.555 28.3639 208.918 27.7099C209.282 27.0378 209.463 26.2385 209.463 25.312ZM230.247 24.9851C230.247 25.53 230.211 26.0205 230.138 26.4565H219.102C219.193 27.5464 219.575 28.4002 220.247 29.0179C220.919 29.6355 221.745 29.9444 222.726 29.9444C224.143 29.9444 225.152 29.3358 225.751 28.1187H229.866C229.43 29.572 228.594 30.7709 227.359 31.7155C226.123 32.642 224.607 33.1052 222.808 33.1052C221.355 33.1052 220.047 32.7873 218.884 32.1515C217.74 31.4975 216.841 30.5802 216.187 29.3994C215.551 28.2186 215.233 26.8561 215.233 25.312C215.233 23.7498 215.551 22.3782 216.187 21.1975C216.822 20.0167 217.713 19.1084 218.857 18.4726C220.001 17.8368 221.319 17.5189 222.808 17.5189C224.243 17.5189 225.524 17.8277 226.65 18.4453C227.795 19.063 228.676 19.944 229.293 21.0885C229.929 22.2147 230.247 23.5136 230.247 24.9851ZM226.296 23.8951C226.278 22.9141 225.924 22.133 225.233 21.5517C224.543 20.9522 223.698 20.6525 222.699 20.6525C221.754 20.6525 220.955 20.9431 220.301 21.5244C219.665 22.0876 219.275 22.8778 219.13 23.8951H226.296ZM236.029 20.1075C236.519 19.3082 237.155 18.6815 237.936 18.2273C238.736 17.7732 239.644 17.5461 240.661 17.5461V21.5517H239.653C238.454 21.5517 237.546 21.8333 236.928 22.3964C236.329 22.9595 236.029 23.9405 236.029 25.3393V32.86H232.214V17.7641H236.029V20.1075Z" fill="#212121"/>
<g filter="url(#filter0_i_29_137)">
<path fill-rule="evenodd" clip-rule="evenodd" d="M29.2999 10.397C29.2999 13.7118 27.1831 15.3824 23.8043 15.3824C20.4255 15.3824 18.3124 13.7118 18.3124 10.397C18.3124 7.08216 20.4255 4.39496 23.8043 4.39496C27.1831 4.39496 29.2999 7.08216 29.2999 10.397ZM23.8043 13.5741C25.5928 13.5741 27.0427 12.1517 27.0427 10.397C27.0427 8.64233 25.5928 7.21989 23.8043 7.21989C22.0158 7.21989 20.5659 8.64233 20.5659 10.397C20.5659 12.1517 22.0158 13.5741 23.8043 13.5741Z" fill="url(#paint0_linear_29_137)"/>
<path fill-rule="evenodd" clip-rule="evenodd" d="M47.6123 10.397C47.6123 13.7118 45.4991 15.3824 42.1203 15.3824C38.7415 15.3824 36.6248 13.7118 36.6248 10.397C36.6248 7.08216 38.7415 4.39496 42.1203 4.39496C45.4991 4.39496 47.6123 7.08216 47.6123 10.397ZM42.1203 13.5741C43.9088 13.5741 45.3587 12.1517 45.3587 10.397C45.3587 8.64233 43.9088 7.21989 42.1203 7.21989C40.3318 7.21989 38.8819 8.64233 38.8819 10.397C38.8819 12.1517 40.3318 13.5741 42.1203 13.5741Z" fill="url(#paint1_linear_29_137)"/>
<path d="M26.6214 18.0636C24.7921 17.303 22.8229 17.3019 20.9931 18.0606C19.1633 18.8192 17.5658 20.2991 16.4273 22.2902C15.2888 24.2813 14.667 26.6826 14.6503 29.1534C14.6335 31.6242 15.2225 34.0391 16.3338 36.0555C17.4451 38.0718 19.0222 39.5873 20.8415 40.3869C22.6607 41.1865 24.6297 41.2296 26.469 40.5101C28.3084 39.7906 29.9248 38.3451 31.0889 36.3785C31.1258 36.3162 31.1591 36.2518 31.189 36.1857L31.1924 36.1886L37.0637 24.4957L37.0591 24.4918L37.062 24.4869C37.8414 23.1212 38.9357 22.1057 40.1896 21.5844C41.4435 21.063 42.7933 21.0623 44.0475 21.5823C45.3017 22.1023 46.3967 23.1166 47.1771 24.4814C47.9574 25.8462 48.3836 27.4922 48.3951 29.1857C48.4066 30.8793 48.0029 32.5345 47.2411 33.9166C46.4794 35.2987 45.3984 36.3375 44.1514 36.8855C42.9045 37.4336 41.5549 37.4631 40.2941 36.97C39.0333 36.4768 37.9254 35.486 37.1275 34.1381C36.6461 33.3248 35.7428 33.1671 35.11 33.7857C34.4771 34.4044 34.3544 35.5653 34.8358 36.3785C35.9999 38.3451 37.6163 39.7906 39.4557 40.5101C41.295 41.2296 43.264 41.1865 45.0832 40.3869C46.9024 39.5873 48.4796 38.0718 49.5909 36.0555C50.7022 34.0391 51.2912 31.6242 51.2744 29.1534C51.2577 26.6826 50.6359 24.2813 49.4974 22.2902C48.3589 20.2991 46.7614 18.8192 44.9316 18.0606C43.1018 17.3019 41.1326 17.303 39.3032 18.0636C37.4739 18.8242 35.8774 20.3058 34.7402 22.2981C34.7048 22.3601 34.6729 22.4239 34.6443 22.4892L28.7839 34.1604C27.987 35.497 26.8844 36.4796 25.6306 36.97C24.3698 37.4631 23.0202 37.4336 21.7733 36.8855C20.5263 36.3375 19.4453 35.2987 18.6835 33.9166C17.9218 32.5345 17.5181 30.8793 17.5296 29.1857C17.5411 27.4922 17.9672 25.8462 18.7476 24.4814C19.528 23.1166 20.623 22.1023 21.8772 21.5823C23.1314 21.0623 24.4812 21.063 25.7351 21.5844C26.9889 22.1057 28.0832 23.1212 28.8627 24.4869C29.333 25.3108 30.234 25.4888 30.8752 24.8844C31.5163 24.28 31.6548 23.1221 31.1845 22.2981C30.0473 20.3058 28.4508 18.8242 26.6214 18.0636Z" fill="url(#paint2_linear_29_137)"/>
</g>
<defs>
<filter id="filter0_i_29_137" x="14.6499" y="4.39496" width="37.504" height="37.5039" filterUnits="userSpaceOnUse" color-interpolation-filters="sRGB">
<feFlood flood-opacity="0" result="BackgroundImageFix"/>
<feBlend mode="normal" in="SourceGraphic" in2="BackgroundImageFix" result="shape"/>
<feColorMatrix in="SourceAlpha" type="matrix" values="0 0 0 0 0 0 0 0 0 0 0 0 0 0 0 0 0 0 127 0" result="hardAlpha"/>
<feOffset dx="0.878997" dy="0.878997"/>
<feGaussianBlur stdDeviation="0.589661"/>
<feComposite in2="hardAlpha" operator="arithmetic" k2="-1" k3="1"/>
<feColorMatrix type="matrix" values="0 0 0 0 0 0 0 0 0 0 0 0 0 0 0 0 0 0 0.1 0"/>
<feBlend mode="normal" in2="shape" result="effect1_innerShadow_29_137"/>
</filter>
<linearGradient id="paint0_linear_29_137" x1="14.6499" y1="21.9749" x2="51.2748" y2="21.6087" gradientUnits="userSpaceOnUse">
<stop stop-color="#F7AA0F"/>
<stop offset="0.380208" stop-color="#F7AA10"/>
<stop offset="0.645833" stop-color="#1116B0"/>
<stop offset="1" stop-color="#0F15B0"/>
</linearGradient>
<linearGradient id="paint1_linear_29_137" x1="14.6499" y1="21.9749" x2="51.2748" y2="21.6087" gradientUnits="userSpaceOnUse">
<stop stop-color="#F7AA0F"/>
<stop offset="0.380208" stop-color="#F7AA10"/>
<stop offset="0.645833" stop-color="#1116B0"/>
<stop offset="1" stop-color="#0F15B0"/>
</linearGradient>
<linearGradient id="paint2_linear_29_137" x1="14.6499" y1="21.9749" x2="51.2748" y2="21.6087" gradientUnits="userSpaceOnUse">
<stop stop-color="#F7AA0F"/>
<stop offset="0.380208" stop-color="#F7AA10"/>
<stop offset="0.645833" stop-color="#1116B0"/>
<stop offset="1" stop-color="#0F15B0"/>
</linearGradient>
</defs>
</svg>
