<svg width="22" height="20" viewBox="0 0 27 26" fill="#f0f0f1" xmlns="http://www.w3.org/2000/svg">
<path fill-rule="evenodd" clip-rule="evenodd" d="M10.9607 4.32593C10.9607 6.66161 9.44639 7.83874 7.02926 7.83874C4.61213 7.83874 3.10043 6.66161 3.10043 4.32593C3.10043 1.99025 4.61213 0.0968018 7.02926 0.0968018C9.44639 0.0968018 10.9607 1.99025 10.9607 4.32593ZM7.02926 6.56457C8.30874 6.56457 9.34596 5.5623 9.34596 4.32593C9.34596 3.08957 8.30874 2.08729 7.02926 2.08729C5.74978 2.08729 4.71256 3.08957 4.71256 4.32593C4.71256 5.5623 5.74978 6.56457 7.02926 6.56457Z"/>
<path fill-rule="evenodd" clip-rule="evenodd" d="M24.0611 4.32593C24.0611 6.66161 22.5494 7.83874 20.1323 7.83874C17.7151 7.83874 16.2009 6.66161 16.2009 4.32593C16.2009 1.99025 17.7151 0.0968018 20.1323 0.0968018C22.5494 0.0968018 24.0611 1.99025 24.0611 4.32593ZM20.1323 6.56457C21.4117 6.56457 22.449 5.5623 22.449 4.32593C22.449 3.08957 21.4117 2.08729 20.1323 2.08729C18.8528 2.08729 17.8156 3.08957 17.8156 4.32593C17.8156 5.5623 18.8528 6.56457 20.1323 6.56457Z"/>
<path d="M9.0446 9.72793C7.73594 9.19199 6.32717 9.19124 5.01816 9.7258C3.70914 10.2604 2.56633 11.3031 1.75186 12.7061C0.937385 14.1091 0.492599 15.801 0.480596 17.542C0.468593 19.283 0.889984 20.9845 1.68499 22.4053C2.48 23.826 3.60825 24.8939 4.9097 25.4573C6.21115 26.0207 7.61971 26.051 8.93556 25.5441C10.2514 25.0371 11.4078 24.0186 12.2405 22.6329C12.2669 22.589 12.2908 22.5436 12.3122 22.4971L12.3146 22.4991L16.5149 14.2601L16.5116 14.2574L16.5136 14.2539C17.0712 13.2916 17.8541 12.5761 18.7511 12.2087C19.6481 11.8414 20.6137 11.8408 21.5109 12.2073C22.4082 12.5737 23.1915 13.2884 23.7498 14.25C24.3081 15.2117 24.6129 16.3714 24.6212 17.5648C24.6294 18.7581 24.3405 19.9244 23.7956 20.8982C23.2507 21.8721 22.4773 22.604 21.5853 22.9902C20.6932 23.3763 19.7277 23.3972 18.8258 23.0497C17.9239 22.7022 17.1313 22.004 16.5605 21.0543C16.2161 20.4812 15.5699 20.3701 15.1172 20.806C14.6644 21.2419 14.5766 22.0599 14.921 22.6329C15.7538 24.0186 16.9102 25.0371 18.226 25.5441C19.5419 26.051 20.9504 26.0207 22.2519 25.4573C23.5533 24.8939 24.6816 23.826 25.4766 22.4053C26.2716 20.9845 26.693 19.283 26.681 17.542C26.669 15.801 26.2242 14.1091 25.4097 12.7061C24.5952 11.3031 23.4524 10.2604 22.1434 9.7258C20.8344 9.19124 19.4256 9.19199 18.117 9.72793C16.8083 10.2639 15.6662 11.3078 14.8526 12.7117C14.8273 12.7553 14.8045 12.8003 14.7841 12.8463L10.5916 21.07C10.0215 22.0118 9.23269 22.7041 8.33576 23.0497C7.43382 23.3972 6.46834 23.3763 5.57628 22.9902C4.68422 22.604 3.91088 21.8721 3.36595 20.8982C2.82103 19.9244 2.53219 18.7581 2.54042 17.5648C2.54864 16.3714 2.85352 15.2117 3.41179 14.25C3.97006 13.2884 4.75338 12.5737 5.65062 12.2073C6.54787 11.8408 7.51349 11.8414 8.4105 12.2087C9.3075 12.5761 10.0904 13.2916 10.648 14.2539C10.9844 14.8344 11.629 14.9598 12.0876 14.534C12.5463 14.1081 12.6454 13.2922 12.3089 12.7117C11.4954 11.3078 10.3533 10.2639 9.0446 9.72793Z"/>

</svg>
