<svg width="181" height="41" viewBox="0 0 181 41" fill="none" xmlns="http://www.w3.org/2000/svg">
<path d="M4.66016 6.52379C4.66016 5.49453 5.49453 4.66016 6.52379 4.66016H39.1374C40.1667 4.66016 41.0011 5.49453 41.0011 6.52379V39.1374C41.0011 40.1667 40.1667 41.0011 39.1374 41.0011H6.52379C5.49453 41.0011 4.66016 40.1667 4.66016 39.1374V6.52379Z" fill="#EB4034"/>
<path fill-rule="evenodd" clip-rule="evenodd" d="M29.0497 17.7317C28.7059 19.1253 28.0109 21.3231 26.6789 23.6669C26.1454 24.6056 25.4797 25.6155 24.656 26.6254L24.4368 26.8941L24.698 27.1222C26.7813 28.9414 29.2789 30.2171 32.1632 30.9379L31.5738 33.485C27.8474 32.56 25.0155 30.8763 22.876 28.9792L22.6381 28.7683L22.4002 28.9792C20.2607 30.8763 17.4289 32.56 13.7024 33.485L13.113 30.9379C15.9973 30.2171 18.4949 28.9414 20.5782 27.1222L20.8394 26.8941L20.6203 26.6254C19.7965 25.6155 19.1308 24.6056 18.5973 23.6669C17.2653 21.3231 16.5703 19.1253 16.2264 17.7317L16.1591 17.459H12.4258V14.8342H21.3769V11.4922H23.8456V14.8342H32.7966V17.459H29.117L29.0497 17.7317ZM26.294 17.9186L26.4288 17.459H18.8474L18.9822 17.9186C19.3381 19.1313 19.94 20.7692 20.9269 22.4808C21.3644 23.2398 21.8402 23.9534 22.3539 24.621L22.6381 24.9904L22.9223 24.621C23.436 23.9534 23.9118 23.2398 24.3493 22.4809C25.3362 20.7693 25.9381 19.1313 26.294 17.9186Z" fill="white"/>
<path fill-rule="evenodd" clip-rule="evenodd" d="M1.85189 0H34.489C35.5118 0 36.3409 0.829119 36.3409 1.85189V2.79545H6.52273C4.46422 2.79545 2.79545 4.46422 2.79545 6.52273V36.3409H1.85189C0.829119 36.3409 0 35.5118 0 34.489V1.85189C0 0.829119 0.829119 0 1.85189 0Z" fill="#419DE0"/>
<path d="M49.1435 28.5V14.4864H51.934V28.5H49.1435ZM44.5809 16.6455V14.1809H56.4966V16.6455H44.5809ZM56.0952 28.5V18.662H58.7635V28.5H56.0952ZM58.7635 23.0616L57.7247 22.369C57.8469 21.1605 58.2 20.21 58.7839 19.5174C59.3678 18.8113 60.2097 18.4583 61.3096 18.4583C61.7849 18.4583 62.2126 18.5397 62.5928 18.7027C62.973 18.8521 63.3193 19.1033 63.6316 19.4563L61.9614 21.371C61.812 21.208 61.6287 21.0858 61.4114 21.0043C61.2078 20.9229 60.9701 20.8821 60.6985 20.8821C60.1282 20.8821 59.6597 21.0655 59.2931 21.4321C58.9401 21.7851 58.7635 22.3283 58.7635 23.0616ZM68.4049 28.7037C67.5087 28.7037 66.7007 28.4796 65.981 28.0315C65.2613 27.5834 64.6978 26.9724 64.2904 26.1983C63.883 25.4243 63.6794 24.5553 63.6794 23.5912C63.6794 22.6135 63.883 21.7376 64.2904 20.9636C64.6978 20.1896 65.2613 19.5785 65.981 19.1304C66.7007 18.6823 67.5087 18.4583 68.4049 18.4583C69.111 18.4583 69.7424 18.6009 70.2992 18.886C70.8559 19.1712 71.2972 19.5718 71.6231 20.0878C71.9626 20.5902 72.1459 21.1605 72.1731 21.7987V25.3429C72.1459 25.9947 71.9626 26.5718 71.6231 27.0742C71.2972 27.5766 70.8559 27.9772 70.2992 28.2759C69.7424 28.5611 69.111 28.7037 68.4049 28.7037ZM68.8937 26.2391C69.6406 26.2391 70.2448 25.9947 70.7065 25.5058C71.1682 25.0034 71.3991 24.3584 71.3991 23.5708C71.3991 23.0548 71.2904 22.5999 71.0732 22.2061C70.8695 21.7987 70.5775 21.4864 70.1973 21.2691C69.8307 21.0383 69.3962 20.9229 68.8937 20.9229C68.4049 20.9229 67.9704 21.0383 67.5901 21.2691C67.2235 21.4864 66.9316 21.7987 66.7143 22.2061C66.5106 22.5999 66.4088 23.0548 66.4088 23.5708C66.4088 24.1004 66.5106 24.5689 66.7143 24.9762C66.9316 25.37 67.2235 25.6823 67.5901 25.9132C67.9704 26.1305 68.4049 26.2391 68.8937 26.2391ZM71.2565 28.5V25.8521L71.6842 23.4486L71.2565 21.0858V18.662H73.9044V28.5H71.2565ZM82.8847 28.5V22.8579C82.8847 22.274 82.7014 21.7987 82.3348 21.4321C81.9681 21.0655 81.4929 20.8821 80.909 20.8821C80.5288 20.8821 80.1893 20.9636 79.8906 21.1266C79.5918 21.2895 79.3542 21.5204 79.1776 21.8191C79.0147 22.1178 78.9332 22.4641 78.9332 22.8579L77.8944 22.3283C77.8944 21.5543 78.0574 20.8821 78.3833 20.3118C78.7227 19.7279 79.1844 19.273 79.7683 18.9471C80.3658 18.6212 81.038 18.4583 81.7848 18.4583C82.5045 18.4583 83.1495 18.6416 83.7199 19.0082C84.2902 19.3613 84.7383 19.8298 85.0642 20.4137C85.3901 20.984 85.553 21.6018 85.553 22.2672V28.5H82.8847ZM76.2649 28.5V18.662H78.9332V28.5H76.2649ZM91.0836 28.7241C90.5268 28.7241 89.9769 28.6494 89.4337 28.5C88.9041 28.3506 88.4153 28.1469 87.9672 27.8889C87.5191 27.6174 87.1321 27.2915 86.8062 26.9112L88.3949 25.3021C88.7344 25.6823 89.1282 25.9675 89.5763 26.1576C90.0244 26.3477 90.52 26.4428 91.0632 26.4428C91.4977 26.4428 91.8236 26.3817 92.0409 26.2595C92.2718 26.1372 92.3872 25.9539 92.3872 25.7095C92.3872 25.4379 92.265 25.2274 92.0205 25.0781C91.7897 24.9287 91.4842 24.8065 91.1039 24.7114C90.7237 24.6028 90.3232 24.4874 89.9022 24.3652C89.4948 24.2294 89.101 24.0596 88.7208 23.856C88.3406 23.6387 88.0283 23.3467 87.7839 22.9801C87.553 22.5999 87.4376 22.111 87.4376 21.5136C87.4376 20.8889 87.587 20.3458 87.8857 19.8841C88.198 19.4224 88.6393 19.0625 89.2097 18.8045C89.78 18.5465 90.4522 18.4175 91.2262 18.4175C92.0409 18.4175 92.7742 18.5601 93.426 18.8453C94.0913 19.1304 94.6413 19.5582 95.0758 20.1285L93.4667 21.7376C93.168 21.371 92.8285 21.1062 92.4483 20.9432C92.0816 20.7803 91.6811 20.6988 91.2465 20.6988C90.8527 20.6988 90.5472 20.7599 90.3299 20.8821C90.1263 21.0043 90.0244 21.1741 90.0244 21.3914C90.0244 21.6358 90.1398 21.8259 90.3707 21.9617C90.6151 22.0975 90.9274 22.2197 91.3076 22.3283C91.6879 22.4234 92.0816 22.5388 92.489 22.6746C92.91 22.7968 93.3038 22.9733 93.6704 23.2042C94.0506 23.435 94.3561 23.7405 94.587 24.1207C94.8314 24.501 94.9536 24.9898 94.9536 25.5873C94.9536 26.5514 94.6074 27.3186 93.9148 27.8889C93.2223 28.4457 92.2785 28.7241 91.0836 28.7241ZM96.7529 28.5V13.7735H99.4212V28.5H96.7529ZM105.9 28.7037C105.004 28.7037 104.196 28.4796 103.476 28.0315C102.756 27.5834 102.193 26.9724 101.785 26.1983C101.378 25.4243 101.174 24.5553 101.174 23.5912C101.174 22.6135 101.378 21.7376 101.785 20.9636C102.193 20.1896 102.756 19.5785 103.476 19.1304C104.196 18.6823 105.004 18.4583 105.9 18.4583C106.606 18.4583 107.237 18.6009 107.794 18.886C108.351 19.1712 108.792 19.5718 109.118 20.0878C109.458 20.5902 109.641 21.1605 109.668 21.7987V25.3429C109.641 25.9947 109.458 26.5718 109.118 27.0742C108.792 27.5766 108.351 27.9772 107.794 28.2759C107.237 28.5611 106.606 28.7037 105.9 28.7037ZM106.389 26.2391C107.136 26.2391 107.74 25.9947 108.201 25.5058C108.663 25.0034 108.894 24.3584 108.894 23.5708C108.894 23.0548 108.785 22.5999 108.568 22.2061C108.364 21.7987 108.072 21.4864 107.692 21.2691C107.326 21.0383 106.891 20.9229 106.389 20.9229C105.9 20.9229 105.465 21.0383 105.085 21.2691C104.718 21.4864 104.427 21.7987 104.209 22.2061C104.006 22.5999 103.904 23.0548 103.904 23.5708C103.904 24.1004 104.006 24.5689 104.209 24.9762C104.427 25.37 104.718 25.6823 105.085 25.9132C105.465 26.1305 105.9 26.2391 106.389 26.2391ZM108.751 28.5V25.8521L109.179 23.4486L108.751 21.0858V18.662H111.399V28.5H108.751ZM115.206 28.5V14.5679H117.874V28.5H115.206ZM112.904 21.0043V18.662H120.176V21.0043H112.904ZM126.143 28.7037C125.111 28.7037 124.194 28.4864 123.393 28.0519C122.592 27.6038 121.954 26.9927 121.479 26.2187C121.017 25.4447 120.786 24.5621 120.786 23.5708C120.786 22.5931 121.01 21.724 121.458 20.9636C121.92 20.1896 122.545 19.5785 123.332 19.1304C124.12 18.6687 124.996 18.4379 125.96 18.4379C126.91 18.4379 127.745 18.6552 128.465 19.0897C129.198 19.5107 129.769 20.0946 130.176 20.8414C130.597 21.5747 130.807 22.4098 130.807 23.3467C130.807 23.5233 130.794 23.7066 130.767 23.8967C130.753 24.0732 130.719 24.2769 130.665 24.5078L122.395 24.5281V22.532L129.422 22.5116L128.343 23.3467C128.316 22.7628 128.207 22.274 128.017 21.8802C127.84 21.4864 127.576 21.1877 127.223 20.984C126.883 20.7667 126.462 20.6581 125.96 20.6581C125.43 20.6581 124.968 20.7803 124.575 21.0247C124.181 21.2556 123.875 21.5882 123.658 22.0228C123.454 22.4437 123.353 22.9462 123.353 23.5301C123.353 24.1275 123.461 24.6503 123.678 25.0984C123.909 25.533 124.235 25.8724 124.656 26.1169C125.077 26.3477 125.566 26.4631 126.123 26.4631C126.625 26.4631 127.08 26.3817 127.487 26.2187C127.895 26.0422 128.248 25.7842 128.547 25.4447L130.115 27.0131C129.64 27.5698 129.056 27.9908 128.363 28.2759C127.684 28.5611 126.944 28.7037 126.143 28.7037ZM134.23 23.0005V21.3302H138.079C138.609 21.3302 139.077 21.2216 139.485 21.0043C139.906 20.7871 140.232 20.4816 140.463 20.0878C140.707 19.694 140.829 19.2255 140.829 18.6823C140.829 18.1392 140.707 17.6707 140.463 17.2769C140.232 16.8831 139.906 16.5776 139.485 16.3603C139.077 16.143 138.609 16.0344 138.079 16.0344H134.23V14.3642H138.202C139.071 14.3642 139.845 14.5407 140.524 14.8938C141.216 15.2468 141.759 15.7492 142.153 16.401C142.56 17.0393 142.764 17.7997 142.764 18.6823C142.764 19.5514 142.56 20.3118 142.153 20.9636C141.759 21.6018 141.216 22.1043 140.524 22.4709C139.845 22.8239 139.071 23.0005 138.202 23.0005H134.23ZM132.946 28.5V14.3642H134.861V28.5H132.946ZM144.973 28.5V18.8249H146.806V28.5H144.973ZM146.806 22.9801L146.114 22.6746C146.114 21.4389 146.399 20.4544 146.969 19.7211C147.539 18.9879 148.361 18.6212 149.434 18.6212C149.923 18.6212 150.364 18.7095 150.758 18.886C151.152 19.049 151.518 19.3273 151.858 19.7211L150.656 20.9636C150.452 20.7463 150.228 20.5902 149.984 20.4951C149.739 20.4001 149.454 20.3526 149.128 20.3526C148.449 20.3526 147.893 20.5698 147.458 21.0043C147.023 21.4389 146.806 22.0975 146.806 22.9801ZM157.311 28.7037C156.347 28.7037 155.478 28.4864 154.704 28.0519C153.93 27.6038 153.319 26.9995 152.871 26.2391C152.423 25.4787 152.199 24.6164 152.199 23.6523C152.199 22.7017 152.416 21.8463 152.85 21.0858C153.299 20.3254 153.896 19.7279 154.643 19.2934C155.403 18.8453 156.252 18.6212 157.189 18.6212C158.085 18.6212 158.873 18.8249 159.552 19.2323C160.244 19.6397 160.781 20.2032 161.161 20.9229C161.555 21.6426 161.752 22.4573 161.752 23.3671C161.752 23.5029 161.745 23.6523 161.731 23.8152C161.718 23.9646 161.69 24.1411 161.65 24.3448H153.482V22.8172H160.672L160 23.4078C160 22.7561 159.884 22.2061 159.654 21.758C159.423 21.2963 159.097 20.9432 158.676 20.6988C158.255 20.4408 157.746 20.3118 157.148 20.3118C156.524 20.3118 155.974 20.4476 155.498 20.7192C155.023 20.9908 154.656 21.371 154.398 21.8598C154.14 22.3487 154.011 22.9258 154.011 23.5912C154.011 24.2701 154.147 24.8676 154.419 25.3836C154.69 25.886 155.077 26.2798 155.58 26.565C156.082 26.8366 156.659 26.9724 157.311 26.9724C157.854 26.9724 158.35 26.8773 158.798 26.6872C159.26 26.4971 159.654 26.2119 159.979 25.8317L161.161 27.0335C160.699 27.5766 160.129 27.9908 159.45 28.2759C158.785 28.5611 158.072 28.7037 157.311 28.7037ZM166.826 28.7037C166.283 28.7037 165.767 28.6358 165.278 28.5C164.803 28.3506 164.361 28.1469 163.954 27.8889C163.547 27.6174 163.194 27.2983 162.895 26.9316L164.076 25.7502C164.429 26.1848 164.837 26.5107 165.298 26.7279C165.76 26.9316 166.276 27.0335 166.846 27.0335C167.417 27.0335 167.858 26.9384 168.17 26.7483C168.483 26.5446 168.639 26.2662 168.639 25.9132C168.639 25.5601 168.51 25.2885 168.252 25.0984C168.007 24.8948 167.688 24.7318 167.295 24.6096C166.901 24.4738 166.48 24.3448 166.032 24.2226C165.597 24.0868 165.183 23.9171 164.789 23.7134C164.395 23.5097 164.069 23.2313 163.811 22.8783C163.567 22.5252 163.445 22.0567 163.445 21.4728C163.445 20.8889 163.587 20.3865 163.873 19.9656C164.158 19.531 164.552 19.1983 165.054 18.9675C165.57 18.7366 166.188 18.6212 166.908 18.6212C167.668 18.6212 168.34 18.757 168.924 19.0286C169.521 19.2866 170.01 19.6804 170.391 20.21L169.209 21.3914C168.938 21.0383 168.598 20.7667 168.191 20.5766C167.797 20.3865 167.349 20.2914 166.846 20.2914C166.317 20.2914 165.909 20.3865 165.624 20.5766C165.353 20.7531 165.217 21.0043 165.217 21.3302C165.217 21.6561 165.339 21.9074 165.584 22.0839C165.828 22.2604 166.147 22.4098 166.541 22.532C166.948 22.6542 167.369 22.7832 167.804 22.919C168.238 23.0412 168.652 23.2109 169.046 23.4282C169.44 23.6455 169.759 23.9374 170.004 24.3041C170.262 24.6707 170.391 25.1528 170.391 25.7502C170.391 26.66 170.065 27.3797 169.413 27.9093C168.775 28.4389 167.912 28.7037 166.826 28.7037ZM175.518 28.7037C174.975 28.7037 174.459 28.6358 173.97 28.5C173.495 28.3506 173.054 28.1469 172.647 27.8889C172.239 27.6174 171.886 27.2983 171.587 26.9316L172.769 25.7502C173.122 26.1848 173.529 26.5107 173.991 26.7279C174.453 26.9316 174.969 27.0335 175.539 27.0335C176.109 27.0335 176.55 26.9384 176.863 26.7483C177.175 26.5446 177.331 26.2662 177.331 25.9132C177.331 25.5601 177.202 25.2885 176.944 25.0984C176.7 24.8948 176.381 24.7318 175.987 24.6096C175.593 24.4738 175.172 24.3448 174.724 24.2226C174.29 24.0868 173.875 23.9171 173.482 23.7134C173.088 23.5097 172.762 23.2313 172.504 22.8783C172.26 22.5252 172.137 22.0567 172.137 21.4728C172.137 20.8889 172.28 20.3865 172.565 19.9656C172.85 19.531 173.244 19.1983 173.746 18.9675C174.262 18.7366 174.88 18.6212 175.6 18.6212C176.36 18.6212 177.033 18.757 177.616 19.0286C178.214 19.2866 178.703 19.6804 179.083 20.21L177.902 21.3914C177.63 21.0383 177.291 20.7667 176.883 20.5766C176.489 20.3865 176.041 20.2914 175.539 20.2914C175.009 20.2914 174.602 20.3865 174.317 20.5766C174.045 20.7531 173.909 21.0043 173.909 21.3302C173.909 21.6561 174.032 21.9074 174.276 22.0839C174.52 22.2604 174.84 22.4098 175.233 22.532C175.641 22.6542 176.062 22.7832 176.496 22.919C176.931 23.0412 177.345 23.2109 177.739 23.4282C178.132 23.6455 178.452 23.9374 178.696 24.3041C178.954 24.6707 179.083 25.1528 179.083 25.7502C179.083 26.66 178.757 27.3797 178.105 27.9093C177.467 28.4389 176.605 28.7037 175.518 28.7037Z" fill="white"/>
</svg>
