<svg width="30" height="30" viewBox="0 0 30 30" fill="none" xmlns="http://www.w3.org/2000/svg">
<g filter="url(#filter0_i_7_1560)">
<path fill-rule="evenodd" clip-rule="evenodd" d="M3.6783 6.81409C5.61611 4.14887 8.40417 2.22263 11.5835 1.35247C14.7628 0.482312 18.1439 0.720079 21.1702 2.02682C23.5242 3.04327 25.5543 4.65936 27.0675 6.69706L28.4712 5.84803C29.0069 5.52404 29.6838 5.94563 29.6288 6.56897L29.1809 11.6441C29.1354 12.1588 28.6027 12.481 28.1254 12.2825L23.4191 10.3249C22.8411 10.0844 22.7814 9.28951 23.317 8.96552L24.6721 8.14592C23.4679 6.5982 21.887 5.36819 20.0664 4.58206C17.621 3.52614 14.8887 3.33396 12.3194 4.03716C9.75013 4.74036 7.49702 6.29702 5.93103 8.45084C4.36505 10.6047 3.57956 13.2272 3.70389 15.8868C3.73979 16.6546 3.14619 17.306 2.37806 17.3417C1.60994 17.3774 0.958148 16.7839 0.922254 16.0161C0.768389 12.7248 1.74049 9.47933 3.6783 6.81409ZM2.51924 19.9355C2.56466 19.4208 3.09741 19.0985 3.57469 19.2971L8.28096 21.2547C8.859 21.4952 8.91869 22.2901 8.38304 22.6141L6.97079 23.4683C8.07641 24.6158 9.41127 25.5329 10.8996 26.1539C13.2235 27.1236 15.7979 27.3196 18.242 26.7132C20.6861 26.1067 22.8698 24.7299 24.4701 22.7865C26.0703 20.8431 27.002 18.4364 27.1273 15.9226C27.1656 15.1549 27.8192 14.5637 28.5872 14.6021C29.3552 14.6405 29.9468 15.294 29.9085 16.0617C29.7535 19.1726 28.6005 22.1508 26.6203 24.5557C24.6401 26.9605 21.9379 28.6642 18.9135 29.4147C15.8891 30.1651 12.7033 29.9225 9.82736 28.7226C7.79053 27.8727 5.98587 26.5746 4.5403 24.9383L3.22886 25.7316C2.69321 26.0555 2.01632 25.634 2.07133 25.0106L2.51924 19.9355ZM20.9484 8.77771C20.5522 10.1061 21.1342 11.6692 22.6051 12.2813L24.1677 12.9315C24.4742 13.0591 24.7043 13.3262 24.7614 13.6533C25.5843 18.3662 22.7433 23.0417 18.0407 24.4053C15.7333 25.0743 13.3775 24.8301 11.36 23.8856C10.853 23.6482 10.7153 23.0198 10.8082 22.4678C11.0175 21.2246 10.4157 19.8703 9.07102 19.3107L6.56941 18.2696C6.41782 18.2066 6.30073 18.0803 6.25494 17.9226C4.79047 12.8797 7.69274 7.60588 12.7373 6.14323C15.5084 5.33978 18.3494 5.85344 20.5902 7.31549C21.0531 7.6175 21.1063 8.24807 20.9484 8.77771ZM15.0744 16.208C15.8215 16.3889 16.1881 16.5948 16.366 16.7635C16.5162 16.9059 16.5573 17.0445 16.5573 17.2284C16.5573 17.3297 16.5223 17.4635 16.3988 17.5765C16.2737 17.6907 15.9924 17.8431 15.3834 17.8431C14.5799 17.8431 14.274 17.5942 14.1481 17.3785C13.948 17.0356 13.5366 16.5178 12.8812 16.5178C12.5364 16.5178 12.21 16.6647 11.9929 16.9139C11.7679 17.1722 11.6621 17.5445 11.7971 17.9265C12.1405 18.8985 12.9362 19.5038 13.8166 19.8085C13.9668 19.8605 14.0489 19.9587 14.0723 20.0451L14.1743 20.4216C14.3178 20.9517 14.799 21.3197 15.3483 21.3197C15.8624 21.3197 16.321 20.9967 16.4938 20.5128L16.6565 20.0575C16.6851 19.9774 16.7671 19.8907 16.908 19.8475C17.4765 19.6731 18.0063 19.3814 18.3976 18.9401C18.7961 18.4908 19.0268 17.9125 19.0268 17.2221C19.0268 16.1494 18.5585 15.4023 17.8857 14.8912C17.2419 14.402 16.4214 14.1358 15.7019 13.9471C15.0042 13.7642 14.6165 13.5947 14.4085 13.4394C14.3121 13.3675 14.2683 13.3086 14.246 13.2653C14.2244 13.2234 14.2096 13.1703 14.2096 13.0884C14.2096 12.922 14.2777 12.7823 14.4407 12.6666C14.6182 12.5407 14.9255 12.4359 15.3834 12.4359C16.0382 12.4359 16.2463 12.6431 16.3369 12.8306C16.5216 13.2124 16.9294 13.7612 17.6084 13.7612C17.9481 13.7612 18.2696 13.6182 18.486 13.3741C18.7094 13.1221 18.8184 12.7596 18.6997 12.3828C18.4413 11.5619 17.8439 10.8597 16.9179 10.4922C16.7725 10.4345 16.6952 10.3457 16.6692 10.2708L16.4918 9.75946C16.3226 9.27169 15.8628 8.94461 15.3463 8.94461C14.7979 8.94461 14.3178 9.31244 14.1754 9.84169L14.0712 10.2289C14.048 10.315 13.9661 10.4136 13.8154 10.4666C12.6941 10.8609 11.74 11.7509 11.74 13.1011C11.74 13.9976 12.1188 14.6867 12.7476 15.1933C13.3521 15.6805 14.1744 15.99 15.0744 16.208Z" fill="url(#paint0_linear_7_1560)"/>
</g>
<defs>
<filter id="filter0_i_7_1560" x="0.906433" y="0.322224" width="29.5191" height="29.5198" filterUnits="userSpaceOnUse" color-interpolation-filters="sRGB">
<feFlood flood-opacity="0" result="BackgroundImageFix"/>
<feBlend mode="normal" in="SourceGraphic" in2="BackgroundImageFix" result="shape"/>
<feColorMatrix in="SourceAlpha" type="matrix" values="0 0 0 0 0 0 0 0 0 0 0 0 0 0 0 0 0 0 127 0" result="hardAlpha"/>
<feOffset dx="0.515301" dy="-0.515301"/>
<feGaussianBlur stdDeviation="0.772951"/>
<feComposite in2="hardAlpha" operator="arithmetic" k2="-1" k3="1"/>
<feColorMatrix type="matrix" values="0 0 0 0 0 0 0 0 0 0 0 0 0 0 0 0 0 0 0.16 0"/>
<feBlend mode="normal" in2="shape" result="effect1_innerShadow_7_1560"/>
</filter>
<linearGradient id="paint0_linear_7_1560" x1="15.4084" y1="0.837524" x2="15.4084" y2="29.842" gradientUnits="userSpaceOnUse">
<stop stop-color="#169360"/>
<stop offset="0.703125" stop-color="#08734C"/>
<stop offset="1" stop-color="#016442"/>
</linearGradient>
</defs>
</svg>
