<svg width="14" height="10" viewBox="0 0 14 10" fill="none" xmlns="http://www.w3.org/2000/svg">
<path fill-rule="evenodd" clip-rule="evenodd" d="M1.85999 0C0.962523 0 0.234985 0.746192 0.234985 1.66667V8.33333C0.234985 9.25381 0.962523 10 1.85999 10H11.61C12.5074 10 13.235 9.25381 13.235 8.33333V1.66667C13.235 0.746192 12.5074 0 11.61 0H1.85999ZM1.45374 2.01365V8.33333C1.45374 8.56345 1.63562 8.75 1.85999 8.75H11.61C11.8344 8.75 12.0162 8.56345 12.0162 8.33333V2.01365L6.73499 6.65651L1.45374 2.01365ZM11.0122 1.25H2.4578L6.73499 5.01016L11.0122 1.25Z" fill="#1E1E1E"/>
</svg>
