<svg width="15" height="12" viewBox="0 0 15 12" fill="none" xmlns="http://www.w3.org/2000/svg">
<path fill-rule="evenodd" clip-rule="evenodd" d="M13.6961 5.33333H14.6683V3.55549L13.7933 0H1.54333L0.668335 3.55549V5.33333H1.64056V12H13.6961V5.33333ZM12.5294 5.33333H2.80722V10.8571H6.11278V6.85714H9.22389V10.8571H12.5294V5.33333ZM8.25167 1.14286H9.85946L10.2368 3.61132L10.2589 4.19048H8.25167V1.14286ZM5.47721 1.14286H7.085V4.19048H5.07778L5.09984 3.61132L5.47721 1.14286ZM11.4003 3.50505L11.0391 1.14286H12.8745L13.5017 3.6913V4.19048H11.4264L11.4003 3.50505ZM4.29753 1.14286H2.46217L1.835 3.6913V4.19048H3.9103L3.9364 3.50505L4.29753 1.14286Z" fill="white"/>
</svg>
