<?xml version="1.0" encoding="UTF-8"?>
<svg width="21px" height="21px" viewBox="0 0 21 21" version="1.1" xmlns="http://www.w3.org/2000/svg" xmlns:xlink="http://www.w3.org/1999/xlink">
    <!-- Generator: Sketch 55.2 (78181) - https://sketchapp.com -->
    <title>Group 8</title>
    <desc>Created with Sketch.</desc>
    <g id="Page-1" stroke="none" stroke-width="1" fill="none" fill-rule="evenodd">
        <g id="Group-8" transform="translate(1.000000, 1.000000)" stroke="#000000">
            <circle id="Oval" cx="9.5" cy="9.5" r="2"></circle>
            <path d="M13.8549522,14.4990503 C13.2354828,15.0193184 12.5181663,15.4306157 11.7338346,15.7026836 L11.7338346,19 L7.26616536,19 L7.26616536,15.7026836 C6.48183371,15.4306157 5.76451723,15.0193184 5.14504775,14.4990503 L2.23383464,16.1485942 L8.84625706e-13,12.3514058 L2.91023646,10.7024154 C2.83685077,10.3125765 2.79849609,9.91068411 2.79849609,9.5 C2.79849609,9.08931589 2.83685077,8.68742346 2.91023646,8.29758459 L5.47117907e-13,6.64859415 L2.23383464,2.85140585 L5.14504775,4.50094967 C5.76451723,3.9806816 6.48183371,3.56938428 7.26616536,3.29731636 L7.26616536,0 L11.7338346,0 L11.7338346,3.29731636 C12.5181663,3.56938428 13.2354828,3.9806816 13.8549522,4.50094967 L16.7661654,2.85140585 L19,6.64859415 L16.0897635,8.29758459 C16.1631492,8.68742346 16.2015039,9.08931589 16.2015039,9.5 C16.2015039,9.91068411 16.1631492,10.3125765 16.0897635,10.7024154 L19,12.3514058 L16.7661654,16.1485942 L13.8549522,14.4990503 Z" id="Combined-Shape" stroke-linejoin="round"></path>
        </g>
    </g>
</svg>