<svg width="44" height="44" viewBox="0 0 44 44" fill="none" xmlns="http://www.w3.org/2000/svg">
<rect width="44" height="44" rx="22" fill="#246EF4"/>
<path d="M22 44C9.84844 44 0 34.1516 0 22C0 9.84844 9.84844 0 22 0C34.1516 0 44 9.84844 44 22C44 34.1516 34.1516 44 22 44Z" fill="#006AFD"/>
<path d="M24.3547 14.4203H20.9602V27.7836H24.3547V14.4203Z" fill="white"/>
<path d="M38.904 17.8234C37.761 15.7952 35.5782 14.4288 33.086 14.4288C31.8915 14.4288 30.7743 14.7382 29.8032 15.2882C28.7462 15.8898 27.8696 16.7663 27.2681 17.8234C26.7181 18.7945 26.4087 19.9116 26.4087 21.1062C26.4087 22.3007 26.7181 23.4179 27.2681 24.389C27.8696 25.446 28.7462 26.3226 29.8032 26.9241C30.7743 27.4741 31.8915 27.7835 33.086 27.7835C35.5782 27.7835 37.761 26.4171 38.904 24.389C39.454 23.4179 39.7634 22.3007 39.7634 21.1062C39.7634 19.9116 39.454 18.7859 38.904 17.8234ZM33.086 24.389C31.2728 24.389 29.8032 22.9195 29.8032 21.1062C29.8032 19.2929 31.2728 17.8234 33.086 17.8234C34.8993 17.8234 36.3689 19.2929 36.3689 21.1062C36.3689 22.9195 34.8993 24.389 33.086 24.389Z" fill="white"/>
<path d="M18.0212 17.8234C16.8782 15.7952 14.6954 14.4288 12.2032 14.4288C11.0087 14.4288 9.8915 14.7382 8.92041 15.2882C7.86338 15.8898 6.98682 16.7663 6.38525 17.8234C5.83525 18.7945 5.52588 19.9116 5.52588 21.1062V31.1866H8.92041V26.9241C9.8915 27.4741 11.0087 27.7835 12.2032 27.7835C14.6954 27.7835 16.8782 26.4171 18.0212 24.389C18.5712 23.4179 18.8806 22.3007 18.8806 21.1062C18.8892 19.9116 18.5712 18.7859 18.0212 17.8234ZM12.2032 24.389C10.3899 24.389 8.92041 22.9195 8.92041 21.1062C8.92041 19.2929 10.3899 17.8234 12.2032 17.8234C14.0165 17.8234 15.486 19.2929 15.486 21.1062C15.486 22.9195 14.0165 24.389 12.2032 24.389Z" fill="white"/>
</svg>
