<svg width="252" height="120" viewBox="0 0 252 120" fill="none" xmlns="http://www.w3.org/2000/svg">
<g clip-path="url(#clip0_4258_1256)">
<rect x="0.519531" width="250.964" height="120" rx="27.4112" fill="white"/>
<rect x="-39.6836" width="168.122" height="120" fill="#7F54B3"/>
<rect x="128.438" width="168.122" height="120" fill="white"/>
<path d="M63.3198 77.1582H56.623L49.6583 50.7994L42.7471 77.1582H36.0503L25.8175 41.4239H32.8358L39.8005 68.9613L47.1939 41.4239H52.1763L59.5696 68.9613L66.4807 41.4239H73.499L63.3198 77.1582ZM97.5428 77.8011C86.9886 77.8011 78.7916 70.3006 78.7916 59.3178C78.7916 48.335 86.9886 40.8346 97.5428 40.8346C104.775 40.8346 109.222 44.5848 111.901 48.8708L106.543 51.6031C104.829 48.6565 101.4 46.4063 97.5428 46.4063C90.4709 46.4063 85.2206 51.8174 85.2206 59.3178C85.2206 66.8183 90.4709 72.2293 97.5428 72.2293C101.4 72.2293 104.829 70.0328 106.543 67.0326L111.901 69.7649C109.168 74.0509 104.775 77.8011 97.5428 77.8011Z" fill="#F5F5F5"/>
<path d="M183.986 77.1582H177.718V50.6387L166.735 77.1582H164.056L153.127 50.6387V77.1582H146.858V41.4239H155.698L165.395 64.9432L175.146 41.4239H183.986V77.1582ZM217.361 77.1582H195.342V41.4239H201.61V71.64H217.361V77.1582Z" fill="#373737"/>
</g>
<rect x="2.65151" y="2.13198" width="246.701" height="115.736" rx="25.2792" stroke="#7F54B3" stroke-width="4.26396"/>
<defs>
<clipPath id="clip0_4258_1256">
<rect x="0.519531" width="250.964" height="120" rx="27.4112" fill="white"/>
</clipPath>
</defs>
</svg>
