<svg width="16" height="16" viewBox="0 0 16 16" fill="none" xmlns="http://www.w3.org/2000/svg">
<path d="M8 10C9.10457 10 10 9.10457 10 8C10 6.89543 9.10457 6 8 6C6.89543 6 6 6.89543 6 8C6 9.10457 6.89543 10 8 10Z" stroke="white" stroke-width="1.5" stroke-miterlimit="10" stroke-linecap="round" stroke-linejoin="round"/>
<path d="M1.3335 8.58667V7.41333C1.3335 6.72 1.90016 6.14667 2.60016 6.14667C3.80683 6.14667 4.30016 5.29333 3.6935 4.24667C3.34683 3.64667 3.5535 2.86667 4.16016 2.52L5.3135 1.86C5.84016 1.54666 6.52016 1.73333 6.8335 2.26L6.90683 2.38666C7.50683 3.43333 8.4935 3.43333 9.10016 2.38666L9.1735 2.26C9.48683 1.73333 10.1668 1.54666 10.6935 1.86L11.8468 2.52C12.4535 2.86667 12.6602 3.64667 12.3135 4.24667C11.7068 5.29333 12.2002 6.14667 13.4068 6.14667C14.1002 6.14667 14.6735 6.71333 14.6735 7.41333V8.58667C14.6735 9.28 14.1068 9.85333 13.4068 9.85333C12.2002 9.85333 11.7068 10.7067 12.3135 11.7533C12.6602 12.36 12.4535 13.1333 11.8468 13.48L10.6935 14.14C10.1668 14.4533 9.48683 14.2667 9.1735 13.74L9.10016 13.6133C8.50016 12.5667 7.5135 12.5667 6.90683 13.6133L6.8335 13.74C6.52016 14.2667 5.84016 14.4533 5.3135 14.14L4.16016 13.48C3.5535 13.1333 3.34683 12.3533 3.6935 11.7533C4.30016 10.7067 3.80683 9.85333 2.60016 9.85333C1.90016 9.85333 1.3335 9.28 1.3335 8.58667Z" stroke="white" stroke-width="1.5" stroke-miterlimit="10" stroke-linecap="round" stroke-linejoin="round"/>
</svg>
