<svg width="16" height="16" viewBox="0 0 16 16" fill="none" xmlns="http://www.w3.org/2000/svg">
<path d="M13.3333 9.33341C14.0697 9.33341 14.6667 8.73646 14.6667 8.00008C14.6667 7.2637 14.0697 6.66675 13.3333 6.66675C12.597 6.66675 12 7.2637 12 8.00008C12 8.73646 12.597 9.33341 13.3333 9.33341Z" stroke="#171717" stroke-width="1.5" stroke-linecap="round" stroke-linejoin="round"/>
<path d="M13.3333 3.99992C14.0697 3.99992 14.6667 3.40296 14.6667 2.66659C14.6667 1.93021 14.0697 1.33325 13.3333 1.33325C12.597 1.33325 12 1.93021 12 2.66659C12 3.40296 12.597 3.99992 13.3333 3.99992Z" stroke="#171717" stroke-width="1.5" stroke-linecap="round" stroke-linejoin="round"/>
<path d="M13.3333 14.6667C14.0697 14.6667 14.6667 14.0697 14.6667 13.3333C14.6667 12.597 14.0697 12 13.3333 12C12.597 12 12 12.597 12 13.3333C12 14.0697 12.597 14.6667 13.3333 14.6667Z" stroke="#171717" stroke-width="1.5" stroke-linecap="round" stroke-linejoin="round"/>
<path d="M2.66659 9.33341C3.40296 9.33341 3.99992 8.73646 3.99992 8.00008C3.99992 7.2637 3.40296 6.66675 2.66659 6.66675C1.93021 6.66675 1.33325 7.2637 1.33325 8.00008C1.33325 8.73646 1.93021 9.33341 2.66659 9.33341Z" stroke="#171717" stroke-width="1.5" stroke-linecap="round" stroke-linejoin="round"/>
<path d="M4 8H12" stroke="#171717" stroke-width="1.5" stroke-linecap="round" stroke-linejoin="round"/>
<path d="M11.9999 2.66675H9.33325C7.99992 2.66675 7.33325 3.33341 7.33325 4.66675V11.3334C7.33325 12.6667 7.99992 13.3334 9.33325 13.3334H11.9999" stroke="#171717" stroke-width="1.5" stroke-linecap="round" stroke-linejoin="round"/>
</svg>
