<svg width="20" height="20" viewBox="0 0 20 20" fill="none" xmlns="http://www.w3.org/2000/svg">
<path d="M10.8416 2.43332L15.7583 4.61665C17.1749 5.24165 17.1749 6.27499 15.7583 6.89998L10.8416 9.08332C10.2833 9.33332 9.3666 9.33332 8.80827 9.08332L3.8916 6.89998C2.47493 6.27499 2.47493 5.24165 3.8916 4.61665L8.80827 2.43332C9.3666 2.18332 10.2833 2.18332 10.8416 2.43332Z" stroke="#525252" stroke-width="1.5" stroke-linecap="round" stroke-linejoin="round"/>
<path d="M2.5 9.16666C2.5 9.86666 3.025 10.675 3.66667 10.9583L9.325 13.475C9.75833 13.6667 10.25 13.6667 10.675 13.475L16.3333 10.9583C16.975 10.675 17.5 9.86666 17.5 9.16666" stroke="#525252" stroke-width="1.5" stroke-linecap="round" stroke-linejoin="round"/>
<path d="M2.5 13.3333C2.5 14.1083 2.95833 14.8083 3.66667 15.125L9.325 17.6417C9.75833 17.8333 10.25 17.8333 10.675 17.6417L16.3333 15.125C17.0417 14.8083 17.5 14.1083 17.5 13.3333" stroke="#525252" stroke-width="1.5" stroke-linecap="round" stroke-linejoin="round"/>
</svg>
