<svg width="16" height="16" viewBox="0 0 16 16" fill="none" xmlns="http://www.w3.org/2000/svg">
<path d="M8.00008 12.3334C10.3933 12.3334 12.3334 10.3933 12.3334 8.00008C12.3334 5.60685 10.3933 3.66675 8.00008 3.66675C5.60685 3.66675 3.66675 5.60685 3.66675 8.00008C3.66675 10.3933 5.60685 12.3334 8.00008 12.3334Z" stroke="#171717" stroke-width="1.5" stroke-linecap="round" stroke-linejoin="round"/>
<path d="M12.7599 12.7599L12.6733 12.6733M12.6733 3.32659L12.7599 3.23992L12.6733 3.32659ZM3.23992 12.7599L3.32659 12.6733L3.23992 12.7599ZM7.99992 1.38659V1.33325V1.38659ZM7.99992 14.6666V14.6133V14.6666ZM1.38659 7.99992H1.33325H1.38659ZM14.6666 7.99992H14.6133H14.6666ZM3.32659 3.32659L3.23992 3.23992L3.32659 3.32659Z" stroke="#171717" stroke-width="2" stroke-linecap="round" stroke-linejoin="round"/>
</svg>
