<svg width="16" height="16" viewBox="0 0 16 16" fill="none" xmlns="http://www.w3.org/2000/svg">
<path d="M14.6663 8.00016C14.6663 4.32016 11.6797 1.3335 7.99967 1.3335C4.31967 1.3335 1.33301 4.32016 1.33301 8.00016C1.33301 11.6802 4.31967 14.6668 7.99967 14.6668" stroke="#171717" stroke-linecap="round" stroke-linejoin="round"/>
<path d="M5.33275 2H5.99941C4.69941 5.89333 4.69941 10.1067 5.99941 14H5.33275" stroke="#171717" stroke-linecap="round" stroke-linejoin="round"/>
<path d="M10 2C10.6467 3.94667 10.9733 5.97333 10.9733 8" stroke="#171717" stroke-linecap="round" stroke-linejoin="round"/>
<path d="M2 10.6667V10C3.94667 10.6467 5.97333 10.9733 8 10.9733" stroke="#171717" stroke-linecap="round" stroke-linejoin="round"/>
<path d="M2 6.00039C5.89333 4.70039 10.1067 4.70039 14 6.00039" stroke="#171717" stroke-linecap="round" stroke-linejoin="round"/>
<path d="M12.807 10.4933L10.447 12.8534C10.3537 12.9467 10.267 13.12 10.247 13.2467L10.1203 14.1467C10.0737 14.4733 10.3004 14.7 10.627 14.6533L11.527 14.5267C11.6537 14.5067 11.8337 14.42 11.9204 14.3267L14.2803 11.9667C14.687 11.56 14.8803 11.0867 14.2803 10.4867C13.687 9.89334 13.2137 10.0867 12.807 10.4933Z" stroke="#171717" stroke-miterlimit="10" stroke-linecap="round" stroke-linejoin="round"/>
<path d="M12.4668 10.8335C12.6668 11.5535 13.2268 12.1135 13.9468 12.3135" stroke="#171717" stroke-miterlimit="10" stroke-linecap="round" stroke-linejoin="round"/>
</svg>
