<?xml version="1.0" encoding="UTF-8"?>
<svg width="25px" height="26px" viewBox="0 0 25 26" version="1.1" xmlns="http://www.w3.org/2000/svg" xmlns:xlink="http://www.w3.org/1999/xlink">
    <!-- Generator: Sketch 55.2 (78181) - https://sketchapp.com -->
    <title>i-database</title>
    <desc>Created with Sketch.</desc>
    <g id="Page-1" stroke="none" stroke-width="1" fill="none" fill-rule="evenodd">
        <g id="i-database" transform="translate(-1.000000, 0.000000)">
            <g id="Group-16" transform="translate(0.953914, -0.000000)" fill="#000000" fill-rule="nonzero">
                <path d="M16.2556335,8.88174219 C16.2387455,8.67206641 16.0541479,8.51535547 15.8445234,8.53251953 C14.6302177,8.63001953 13.355278,8.67948047 12.0550572,8.67948047 C8.95514903,8.67948047 6.06333924,8.40191016 3.9123109,7.89790625 C3.70751889,7.85017188 3.50165865,7.97692188 3.45343639,8.18182422 C3.40526499,8.38677734 3.53263688,8.59183203 3.73783584,8.63992188 C5.94436047,9.15692578 8.89812671,9.44160547 12.0550572,9.44160547 C13.3755741,9.44160547 14.6711659,9.39133203 15.9057677,9.29215625 C16.1159517,9.27529688 16.2725215,9.09151953 16.2556335,8.88174219 Z" id="Path"></path>
                <path d="M16.2556335,15.4128711 C16.2387455,15.2031445 16.0541479,15.0465859 15.8445234,15.0636484 C14.6302177,15.1611484 13.355278,15.2106094 12.0550572,15.2106094 C8.95514903,15.2106094 6.06333924,14.9330391 3.9123109,14.4290352 C3.70751889,14.3811484 3.50165865,14.5080508 3.45343639,14.7129531 C3.40526499,14.9179063 3.53263688,15.1229609 3.73783584,15.1710508 C5.94436047,15.6880547 8.89812671,15.9727344 12.0550572,15.9727344 C13.3755741,15.9727344 14.6711659,15.9224609 15.9057677,15.8232852 C16.1159517,15.8064258 16.2725215,15.6226484 16.2556335,15.4128711 Z" id="Path"></path>
                <path d="M24.0620957,2.99766797 C23.9816235,1.17528125 19.0435213,0.462871094 16.910093,0.240347656 C16.2518693,0.171691406 15.5619552,0.116796875 14.8593751,0.0772890625 C13.946662,0.026 13.0031232,-7.10542736e-15 12.0550572,-7.10542736e-15 C9.62924338,-7.10542736e-15 7.29967058,0.168390625 5.31818318,0.487042969 C5.11003392,0.520507812 4.96847004,0.716066406 5.0020425,0.923863281 C5.03556409,1.13160937 5.23170866,1.27308594 5.43960359,1.23946875 C7.38166878,0.927214844 9.66922513,0.762125 12.0551081,0.762125 C12.9889312,0.762125 13.9179728,0.78771875 14.816494,0.838246094 C15.5068659,0.877042969 16.1845718,0.930921875 16.8308417,0.998308594 C18.8050042,1.20422656 20.4740133,1.53125781 21.6573918,1.94405859 C23.2213598,2.48965234 23.3006112,2.95491016 23.3006112,3.04260937 C23.3006112,3.33932422 22.6457447,3.99140625 20.191496,4.55319922 C20.1236898,4.56873828 20.0552223,4.58402344 19.9860427,4.59910547 C17.8417289,5.06654687 15.0367497,5.32314453 12.0551081,5.32314453 C9.07346653,5.32314453 6.26848733,5.06649609 4.12417349,4.59910547 C4.05499387,4.58402344 3.98652639,4.56873828 3.91872019,4.55319922 C1.48675139,3.99653516 0.822067513,3.35146094 0.810164549,3.05108984 C0.810215416,3.04824609 0.810571488,3.04550391 0.810571488,3.04271094 C0.810571488,3.04001953 0.810215416,3.03742969 0.810164549,3.03473828 C0.816421235,2.85537891 1.03393009,2.62676172 1.40999254,2.40571094 C1.88448333,2.12676953 2.58024717,1.86875 3.4780562,1.6388125 C3.6822378,1.58650781 3.80528596,1.37886328 3.75289258,1.17497656 C3.70049919,0.971191406 3.492706,0.848453125 3.28827005,0.900605469 C1.13693651,1.45158203 0.0460858342,2.17237109 0.0460858342,3.04276172 L0.0460858342,22.9574414 C0.0460858342,23.8904453 1.29162417,24.6486094 3.74806018,25.2109102 C5.97137104,25.7197383 8.9215257,26 12.0550572,26 C15.1885887,26 18.1388451,25.7197383 20.3620034,25.2108086 C22.8184394,24.6485078 24.0639777,23.8903437 24.0639777,22.9573398 L24.0639777,3.0623125 C24.0643338,3.05576172 24.0649968,3.04926172 24.0649968,3.04266016 C24.0649968,3.02742578 24.0639269,3.01244531 24.0620957,2.99766797 Z M20.1914451,24.4679297 C18.0224606,24.964418 15.1329398,25.2378242 12.0550572,25.2378242 C8.9771746,25.2378242 6.08765384,24.964418 3.91866933,24.4679297 C1.46442062,23.9060859 0.80955414,23.2540547 0.80955414,22.9573398 L0.80955414,17.4774336 C0.817896388,17.4831719 0.827103382,17.4888086 0.835598232,17.4945469 C0.85630125,17.5085117 0.877512942,17.522375 0.899029838,17.5361875 C0.916426478,17.5473594 0.933975719,17.5585312 0.951881032,17.5696523 C0.974313541,17.5835664 0.997407325,17.5973281 1.02070458,17.6110898 C1.03901683,17.6219062 1.05717648,17.6327734 1.07599741,17.6434883 C1.10056634,17.6575039 1.12594916,17.671418 1.15138284,17.685332 C1.17020377,17.6955898 1.18866862,17.7058984 1.20794736,17.7161055 C1.23567007,17.7307812 1.26441013,17.7452539 1.29309933,17.7597773 C1.31130985,17.7689687 1.32901169,17.7782617 1.34762914,17.7874023 C1.38318543,17.8048711 1.41996254,17.8221367 1.45694312,17.8394023 C1.46986343,17.8453945 1.48212246,17.8515391 1.49519538,17.8575312 C1.54540147,17.8805352 1.59698098,17.9033359 1.6497813,17.9259336 C1.66626233,17.9329922 1.6836081,17.9398984 1.70039433,17.946957 C1.73768011,17.9625977 1.77501676,17.9781875 1.81357422,17.993625 C1.83549806,18.0024102 1.85823577,18.011043 1.88056655,18.0197773 C1.91515635,18.0332852 1.94974616,18.046793 1.98530245,18.0601484 C2.00992226,18.0693906 2.03520334,18.0785312 2.06028095,18.0876719 C2.09487076,18.1003164 2.12961317,18.1129609 2.16506773,18.1255039 C2.19146789,18.1347969 2.21847846,18.1440391 2.2453873,18.1532812 C2.28094359,18.1654687 2.31675421,18.1776562 2.35322612,18.1897422 C2.38094883,18.1989336 2.40907848,18.2080742 2.43730987,18.2172148 C2.47423958,18.2291484 2.51157623,18.2410312 2.54937068,18.2528125 C2.57826335,18.2618516 2.60735948,18.2708398 2.63676082,18.2797773 C2.67542002,18.2915586 2.71468962,18.3032383 2.75421357,18.3148672 C2.78386924,18.3236016 2.81347405,18.3322852 2.8436384,18.3409687 C2.8846375,18.35275 2.9263996,18.3643789 2.96831431,18.3760078 C2.99817346,18.3842852 3.02782913,18.3926133 3.05814608,18.4007891 C3.10265503,18.4128242 3.14813045,18.4247578 3.19365675,18.4366406 C3.22249854,18.444207 3.25103514,18.4518242 3.28028387,18.4592891 C3.33140558,18.4723906 3.38364636,18.4852891 3.43593802,18.4981875 C3.46081216,18.504332 3.48512676,18.5105273 3.51025524,18.5166211 C3.58828578,18.5355117 3.6674354,18.5541992 3.74806018,18.5726328 C5.97137104,19.0815117 8.92147484,19.3618242 12.0550572,19.3618242 C15.1886396,19.3618242 18.1387943,19.0815117 20.3620543,18.5726328 C20.442679,18.5541992 20.5218287,18.5354609 20.5998592,18.5166211 C20.6250386,18.5105273 20.649404,18.504332 20.6742782,18.4981875 C20.726519,18.4852891 20.7787089,18.4724414 20.8297797,18.4593398 C20.8591302,18.4518242 20.8876668,18.444207 20.9166103,18.4366406 C20.9620349,18.4247578 21.0074594,18.4128242 21.0519175,18.4007891 C21.0822344,18.3925625 21.1118901,18.3842852 21.1417493,18.3760078 C21.183664,18.3643789 21.2254261,18.35275 21.2664252,18.3409687 C21.2965387,18.3323359 21.3261943,18.3236016 21.35585,18.3148672 C21.395374,18.3032383 21.4346436,18.2915586 21.4733028,18.2797773 C21.5027041,18.2708398 21.5318002,18.2618516 21.5607438,18.2528125 C21.5984874,18.2410312 21.6357731,18.2291484 21.6727028,18.2172656 C21.7009851,18.208125 21.7291656,18.1989844 21.7569392,18.1897422 C21.7933094,18.1776562 21.82912,18.1655195 21.8646254,18.153332 C21.8915343,18.1440898 21.9185448,18.1348477 21.944945,18.1255547 C21.9804504,18.1130625 22.015142,18.100418 22.0497318,18.0877227 C22.0748094,18.0785312 22.1000905,18.0694414 22.1247103,18.0601992 C22.1602665,18.0468437 22.1948564,18.0333359 22.2294462,18.0198281 C22.2517769,18.0110937 22.2745147,18.0024609 22.2964385,17.9936758 C22.3348434,17.9782891 22.3721291,17.9626992 22.4093132,17.9471094 C22.4262011,17.9400508 22.4436486,17.933043 22.4602823,17.9259336 C22.5130826,17.9033359 22.5646112,17.8805352 22.6148173,17.857582 C22.6278903,17.8515898 22.6402002,17.8454961 22.6530696,17.8394531 C22.6900502,17.8221875 22.7268273,17.8049219 22.7623836,17.7874531 C22.781001,17.7783125 22.7987029,17.7690195 22.8169134,17.7598281 C22.8456026,17.7453047 22.8743426,17.730832 22.9020654,17.7161562 C22.9213441,17.7059492 22.9398598,17.6956406 22.9586807,17.685332 C22.9840636,17.6714687 23.0094464,17.6575547 23.0339644,17.6435391 C23.0528362,17.6327734 23.0710467,17.6219062 23.0894099,17.6110391 C23.1126563,17.5972773 23.1356992,17.5835156 23.1581317,17.5696523 C23.1760879,17.5585312 23.1935862,17.5473594 23.2110337,17.5361875 C23.2325506,17.522375 23.2537623,17.5084609 23.2744653,17.4945469 C23.2829602,17.4888086 23.2921163,17.4831719 23.3005603,17.4774336 L23.3005603,22.9573398 L23.3005603,22.9573398 C23.3005603,23.2540547 22.6457447,23.9061367 20.1914451,24.4679297 Z M23.2824007,16.4115859 C23.1619976,16.7373477 22.4156716,17.3205703 20.191496,17.8297539 C18.0225115,18.3262422 15.1329398,18.5996992 12.0551081,18.5996992 C8.97727634,18.5996992 6.08770471,18.3262422 3.91872019,17.8297539 C1.69454459,17.3205703 0.948218582,16.7373477 0.827815525,16.4115859 C0.81535302,16.377918 0.809605008,16.3469414 0.809605008,16.3191133 L0.809605008,10.8391562 C0.817692919,10.8446914 0.826543841,10.850125 0.834733487,10.8556602 C0.855996046,10.8699805 0.877767279,10.88425 0.899894583,10.8984687 C0.916884284,10.9093867 0.933924852,10.9202539 0.951423226,10.9310703 C0.974262674,10.9451875 0.997763397,10.9592539 1.02146759,10.9732695 C1.03942377,10.9838828 1.05727822,10.9945469 1.07574307,11.0050586 C1.10056634,11.0192266 1.1262035,11.0332422 1.15189152,11.0473086 C1.17050897,11.0574648 1.18882123,11.0676719 1.20789649,11.0777773 C1.23551747,11.0924023 1.2641558,11.106875 1.29279412,11.1212969 C1.31120811,11.1305898 1.32911342,11.1399844 1.34788348,11.1492266 C1.38288023,11.1664414 1.41909779,11.1834023 1.45546796,11.2004141 C1.46889695,11.2067109 1.48176639,11.2130586 1.49539884,11.2193047 C1.5455032,11.2422578 1.59698098,11.2650078 1.6496287,11.2875547 C1.66702534,11.2950195 1.68538846,11.302332 1.7030903,11.3097461 C1.7394096,11.3249297 1.7757289,11.3401641 1.81321815,11.3551953 C1.83595586,11.3642852 1.85955832,11.3732734 1.88270297,11.3823125 C1.91642804,11.3954648 1.9501531,11.408668 1.98484465,11.421668 C2.01012573,11.4311641 2.03616982,11.4405586 2.06195957,11.4500039 C2.09583724,11.4623945 2.12976577,11.4747344 2.16450819,11.4870234 C2.19151876,11.4965703 2.21913974,11.5060156 2.24665898,11.5154609 C2.28160486,11.5274453 2.31675421,11.5393789 2.35251397,11.5512617 C2.38079623,11.5606562 2.40948542,11.5699492 2.43827635,11.5792422 C2.47474826,11.5910234 2.51157623,11.6027031 2.54886201,11.6143828 C2.57811074,11.6235234 2.60756295,11.6326133 2.63732036,11.6416523 C2.67567435,11.653332 2.71453702,11.6649102 2.75370489,11.6763867 C2.78361491,11.6851719 2.81352492,11.6940078 2.84389273,11.7026914 C2.88468836,11.7143711 2.92619613,11.726 2.96790737,11.7375273 C2.99796999,11.7458555 3.02788,11.7542344 3.05840042,11.7625117 C3.10255329,11.7744453 3.14762178,11.7862773 3.19274114,11.7981094 C3.22198987,11.8057773 3.25088254,11.8134961 3.28053821,11.8210625 C3.33140558,11.8341133 3.38344289,11.8469102 3.43553108,11.8597578 C3.46055782,11.8659023 3.48502502,11.8721992 3.51030611,11.878293 C3.58833665,11.8971836 3.66748627,11.9158711 3.74811104,11.9343047 C5.97142191,12.4431836 8.92157657,12.7234961 12.0551081,12.7234961 C15.1886396,12.7234961 18.1388451,12.4431836 20.3621051,11.9343047 C20.4427299,11.9158711 20.5218795,11.8971328 20.5999101,11.878293 C20.625242,11.8721484 20.6497601,11.8659023 20.6747868,11.8597578 C20.7268242,11.8469609 20.7787597,11.8341133 20.8295762,11.8211133 C20.8592828,11.8134961 20.8882772,11.8057773 20.9175768,11.7981094 C20.9625944,11.7863281 21.007612,11.7745469 21.051714,11.7625625 C21.0822344,11.7542852 21.1121445,11.7459062 21.1422071,11.7375781 C21.1838674,11.726 21.2254261,11.7144219 21.2662217,11.7027422 C21.2966404,11.6940078 21.3265504,11.6852227 21.3564096,11.6764375 C21.3955774,11.6649102 21.434491,11.653332 21.4727941,11.6417031 C21.5025515,11.6326641 21.5320037,11.6235234 21.5613033,11.6143828 C21.5985382,11.6027539 21.6353662,11.5910742 21.6717872,11.579293 C21.700629,11.57 21.7293691,11.5606562 21.7577022,11.5512617 C21.7934111,11.5394297 21.8285096,11.5274961 21.8634046,11.5155117 C21.8909747,11.5060664 21.9185448,11.4966211 21.9456063,11.4870742 C21.9803487,11.4748359 22.0142772,11.4624453 22.0481549,11.4500547 C22.0739446,11.4406094 22.0999887,11.4312656 22.1252698,11.4217187 C22.1599613,11.4087187 22.1936355,11.3955156 22.2274115,11.3823633 C22.2505561,11.3733242 22.2741586,11.3643359 22.2968963,11.3552461 C22.3342838,11.3402656 22.3705014,11.3251328 22.4067189,11.3099492 C22.4245734,11.3024844 22.4429874,11.2951211 22.4605366,11.2876055 C22.5132352,11.2650586 22.5646621,11.2423086 22.6147665,11.2193555 C22.6283989,11.2131094 22.6412175,11.2067617 22.6546974,11.2004648 C22.6910675,11.1835039 22.7272851,11.1664922 22.7622818,11.1492773 C22.7810519,11.1400352 22.7989572,11.1306914 22.8173712,11.1213477 C22.8459587,11.106875 22.8746478,11.0924023 22.9022688,11.0778281 C22.9213441,11.0677227 22.9397072,11.0575156 22.9583247,11.0473086 C22.9839618,11.033293 23.009599,11.0192773 23.0343714,11.0051094 C23.0528871,10.9945469 23.0707924,10.9838828 23.0887995,10.9732187 C23.1124528,10.9592031 23.1359535,10.9451875 23.1587421,10.9310703 C23.1762405,10.9202539 23.193281,10.9093359 23.2102707,10.8984687 C23.232398,10.88425 23.2541693,10.8699805 23.2754318,10.8556602 C23.2836215,10.850125 23.2924724,10.8446914 23.3006112,10.8391562 L23.3006112,16.3191133 L23.3006112,16.3191133 C23.3006112,16.3469414 23.2948632,16.3778672 23.2824007,16.4115859 Z M20.1914451,11.1914766 C18.0224606,11.6879648 15.132889,11.9614219 12.0550572,11.9614219 C8.97722547,11.9614219 6.08765384,11.6879648 3.91866933,11.1914766 C1.46442062,10.6296836 0.80955414,9.97765234 0.80955414,9.68088672 L0.80955414,4.20092969 C0.817642052,4.20646484 0.826492973,4.21189844 0.834682619,4.21743359 C0.855945179,4.23175391 0.877716412,4.24602344 0.899843716,4.26024219 C0.916833417,4.27116016 0.933873984,4.28202734 0.951372359,4.29284375 C0.974211806,4.30696094 0.99771253,4.32102734 1.02141672,4.33504297 C1.0393729,4.34565625 1.05722735,4.35632031 1.0756922,4.36683203 C1.10051548,4.381 1.12615263,4.39501562 1.15184065,4.40908203 C1.17045811,4.41923828 1.18877036,4.42944531 1.20784562,4.43955078 C1.2354666,4.45417578 1.26410493,4.46864844 1.29274326,4.48307031 C1.31115724,4.49236328 1.32906256,4.50175781 1.34783261,4.511 C1.38282936,4.52821484 1.41904693,4.54517578 1.45541709,4.5621875 C1.46884608,4.56848437 1.48171552,4.57483203 1.49534798,4.58107812 C1.54545233,4.60403125 1.59693011,4.62678125 1.64957783,4.64932812 C1.66697447,4.65679297 1.68533759,4.66410547 1.70303944,4.67151953 C1.73935874,4.68670312 1.77567804,4.7019375 1.81316728,4.71696875 C1.835905,4.72605859 1.85950746,4.73504687 1.88265211,4.74408594 C1.91637717,4.75723828 1.95010224,4.77044141 1.98479378,4.78344141 C2.01007486,4.7929375 2.03611895,4.80233203 2.06190871,4.81177734 C2.09578637,4.82416797 2.12971491,4.83650781 2.16445732,4.84879687 C2.19146789,4.85834375 2.21908887,4.86778906 2.24660812,4.87723437 C2.281554,4.88921875 2.31670335,4.90115234 2.35246311,4.91303516 C2.38074536,4.92242969 2.40943456,4.93172266 2.43822549,4.94101562 C2.47469739,4.95279687 2.51152536,4.96447656 2.54881114,4.97615625 C2.57805988,4.98529687 2.60751208,4.99438672 2.63726949,5.00342578 C2.67562349,5.01510547 2.71448615,5.02668359 2.75365403,5.03816016 C2.78356404,5.04694531 2.81347405,5.05578125 2.84384187,5.06446484 C2.8846375,5.07614453 2.92614527,5.08777344 2.96785651,5.09930078 C2.99791912,5.10762891 3.02782913,5.11600781 3.05834955,5.12428516 C3.10250243,5.13621875 3.14757091,5.14805078 3.19269027,5.15988281 C3.221939,5.16755078 3.25083167,5.17526953 3.28048734,5.18283594 C3.33135471,5.19583594 3.38339203,5.20868359 3.43548021,5.22153125 C3.46050695,5.22767578 3.48497416,5.23397266 3.51025524,5.24006641 C3.58828578,5.25895703 3.6674354,5.27764453 3.74806018,5.29607812 C5.97132017,5.80495703 8.92147484,6.08526953 12.0550572,6.08526953 C15.1886396,6.08526953 18.1388451,5.80495703 20.3620543,5.29607812 C20.442679,5.27764453 20.5218287,5.25890625 20.5998592,5.24006641 C20.6251912,5.23392187 20.6497092,5.22767578 20.674736,5.22153125 C20.7267733,5.20873437 20.7787089,5.19588672 20.8295254,5.18288672 C20.8592319,5.17526953 20.8882263,5.16755078 20.9175259,5.15988281 C20.9625435,5.14810156 21.0075612,5.13632031 21.0516632,5.12433594 C21.0821836,5.11605859 21.1120936,5.10767969 21.1421562,5.09935156 C21.1838166,5.08777344 21.2253752,5.07619531 21.2661708,5.06451562 C21.2965895,5.05578125 21.3264995,5.04699609 21.3563587,5.03821094 C21.3955266,5.02668359 21.4344401,5.01510547 21.4727432,5.00347656 C21.5025006,4.9944375 21.5319528,4.98529687 21.5612524,4.97615625 C21.5984874,4.96452734 21.6353153,4.95284766 21.6717364,4.94106641 C21.7005782,4.93177344 21.7293182,4.92242969 21.7576513,4.91303516 C21.7933602,4.90120312 21.8284587,4.88926953 21.8633537,4.87728516 C21.8909238,4.86783984 21.918494,4.85839453 21.9455554,4.84884766 C21.9802978,4.83660937 22.0142263,4.82421875 22.048104,4.81182812 C22.0738938,4.80238281 22.0999379,4.79303906 22.1252189,4.78349219 C22.1599105,4.77049219 22.1935847,4.75728906 22.2273606,4.74413672 C22.2505053,4.73509766 22.2741077,4.72610937 22.2968454,4.71701953 C22.3342329,4.70203906 22.3704505,4.68690625 22.4066681,4.67172266 C22.4245225,4.66425781 22.4429365,4.65689453 22.4604857,4.64937891 C22.5131843,4.62683203 22.5646112,4.60408203 22.6147156,4.58112891 C22.6283481,4.57488281 22.6411666,4.56853516 22.6546465,4.56223828 C22.6910167,4.54527734 22.7272342,4.52826562 22.762231,4.51105078 C22.781001,4.50180859 22.7989063,4.49246484 22.8173203,4.48312109 C22.8459078,4.46864844 22.874597,4.45417578 22.902218,4.43960156 C22.9212932,4.42949609 22.9396563,4.41928906 22.9582738,4.40908203 C22.9839109,4.39506641 23.0095481,4.38105078 23.0343205,4.36688281 C23.0528362,4.35632031 23.0707415,4.34565625 23.0887486,4.33499219 C23.1124019,4.32097656 23.1359026,4.30696094 23.1586912,4.29284375 C23.1761896,4.28202734 23.1932302,4.27110937 23.2102199,4.26024219 C23.2323472,4.24602344 23.2541184,4.23175391 23.275381,4.21743359 C23.2835706,4.21189844 23.2924215,4.20646484 23.3005603,4.20092969 L23.3005603,9.68088672 L23.3005603,9.68088672 C23.3005603,9.97760156 22.6457447,10.6296836 20.1914451,11.1914766 Z" id="Shape"></path>
                <path d="M20.1691143,7.33839844 C19.5888194,6.75923828 18.644772,6.75923828 18.0645279,7.33839844 C17.4843347,7.91766016 17.4843347,8.86010938 18.0645279,9.43937109 C18.3546245,9.72892578 18.7357228,9.87380469 19.1168211,9.87380469 C19.4979194,9.87380469 19.8789669,9.72897656 20.1691143,9.43937109 C20.7493075,8.86010938 20.7493075,7.91766016 20.1691143,7.33839844 Z M19.6292081,8.90042969 C19.4923749,9.03708203 19.3103715,9.11233984 19.1168211,9.11233984 C18.9232708,9.11233984 18.7412674,9.03708203 18.6044341,8.90042969 C18.4675501,8.76382813 18.3921646,8.58213281 18.3921646,8.38891016 C18.3921646,8.1956875 18.4675501,8.01399219 18.6044341,7.87739062 C18.7412674,7.74073828 18.9232708,7.66548047 19.1168211,7.66548047 C19.3103715,7.66548047 19.4923749,7.74073828 19.6292081,7.87739062 C19.7660922,8.01399219 19.8414776,8.1956875 19.8414776,8.38891016 C19.8414776,8.58213281 19.7660922,8.76382813 19.6292081,8.90042969 Z" id="Shape"></path>
                <path d="M20.1691143,13.889332 C19.5888194,13.3101719 18.644772,13.3101719 18.0645279,13.889332 C17.4843347,14.4685938 17.4843347,15.411043 18.0645279,15.9903047 C18.3546245,16.2798594 18.7357228,16.4247383 19.1168211,16.4247383 C19.4979194,16.4247383 19.8789669,16.2799102 20.1691143,15.9903047 C20.7493075,15.411043 20.7493075,14.4685938 20.1691143,13.889332 Z M19.6292081,15.4513633 C19.4923749,15.5880156 19.3103715,15.6632734 19.1168211,15.6632734 C18.9232708,15.6632734 18.7412674,15.5880156 18.6044341,15.4513633 C18.4675501,15.3147617 18.3921646,15.1330664 18.3921646,14.9398438 C18.3921646,14.7466211 18.4675501,14.5649258 18.6044341,14.4283242 C18.7412674,14.2916719 18.9232708,14.2164141 19.1168211,14.2164141 C19.3103715,14.2164141 19.4923749,14.2916719 19.6292081,14.4283242 C19.7660922,14.5649258 19.8414776,14.7466211 19.8414776,14.9398438 C19.8414776,15.1330664 19.7660922,15.3147617 19.6292081,15.4513633 Z" id="Shape"></path>
                <path d="M20.1691143,20.450168 C19.5888194,19.8710078 18.644772,19.8710078 18.0645279,20.450168 C17.4843347,21.0294297 17.4843347,21.9718789 18.0645279,22.5511406 C18.3546245,22.8406953 18.7357228,22.9855742 19.1168211,22.9855742 C19.4979194,22.9855742 19.8789669,22.8407461 20.1691143,22.5511406 C20.7493075,21.9718789 20.7493075,21.0294297 20.1691143,20.450168 Z M19.6292081,22.0121992 C19.4923749,22.1488516 19.3103715,22.2241094 19.1168211,22.2241094 C18.9232708,22.2241094 18.7412674,22.1488516 18.6044341,22.0121992 C18.4675501,21.8755977 18.3921646,21.6939023 18.3921646,21.5006797 C18.3921646,21.307457 18.4675501,21.1257617 18.6044341,20.9891602 C18.7412674,20.8525078 18.9232708,20.77725 19.1168211,20.77725 C19.3103715,20.77725 19.4923749,20.8525078 19.6292081,20.9891602 C19.7660922,21.1257617 19.8414776,21.307457 19.8414776,21.5006797 C19.8414776,21.6938516 19.7660922,21.8755977 19.6292081,22.0121992 Z" id="Shape"></path>
                <path d="M16.2556844,22.0671953 C16.2387964,21.8575195 16.0541987,21.7003516 15.8445743,21.7179727 C15.3107213,21.760832 14.7591156,21.7948047 14.2050682,21.8188242 C13.9944773,21.8280156 13.8311422,22.0058516 13.8402983,22.2161367 C13.849251,22.4207852 14.0181815,22.5806445 14.2213966,22.5806445 C14.226992,22.5806445 14.2326383,22.580543 14.2382846,22.5802891 C14.8016916,22.5558125 15.3626569,22.5212813 15.9058186,22.4776094 C16.1159517,22.46075 16.2726232,22.2769727 16.2556844,22.0671953 Z" id="Path"></path>
                <path d="M12.1738834,21.8648828 C12.1735782,21.8648828 12.1732221,21.8648828 12.1729169,21.8648828 L12.0551081,21.8649844 C8.9551999,21.8649844 6.06339011,21.5874141 3.91236177,21.0834102 C3.70756975,21.0355234 3.50170952,21.1624258 3.45348726,21.3673281 C3.40531586,21.5722813 3.53268775,21.7773359 3.7378867,21.8254258 C5.94441133,22.3424297 8.89817758,22.6271094 12.0551081,22.6271094 L12.174799,22.6270078 C12.3856442,22.6264492 12.5561008,22.455418 12.5555932,22.2449805 C12.5549817,22.0348477 12.38422,21.8648828 12.1738834,21.8648828 Z" id="Path"></path>
            </g>
            <g id="Shape-2" transform="translate(0.046086, 0.000000)"></g>
        </g>
    </g>
</svg>