<?xml version="1.0" encoding="UTF-8"?>
<svg width="41px" height="41px" viewBox="0 0 41 41" version="1.1" xmlns="http://www.w3.org/2000/svg" xmlns:xlink="http://www.w3.org/1999/xlink">
    <title>Artboard Copy 2</title>
    <g id="Artboard-Copy-2" stroke="none" stroke-width="1" fill="none" fill-rule="evenodd">
        <rect id="Rectangle" x="0" y="0" width="41" height="41"></rect>
        <g id="Group" transform="translate(7.000000, 9.000000)" stroke="#60666A">
            <path d="M2.5,0 L24.5,0 C25.8807119,-2.53632657e-16 27,1.11928813 27,2.5 C27,3.88071187 25.8807119,5 24.5,5 L13.1734425,5 L2.5,5 C1.11928813,5 1.69088438e-16,3.88071187 0,2.5 C-1.69088438e-16,1.11928813 1.11928813,2.53632657e-16 2.5,0 Z" id="Rectangle"></path>
            <path d="M2.5,9 L24.5,9 C25.8807119,9 27,10.1192881 27,11.5 C27,12.8807119 25.8807119,14 24.5,14 L13.1734425,14 L2.5,14 C1.11928813,14 1.69088438e-16,12.8807119 0,11.5 C-1.69088438e-16,10.1192881 1.11928813,9 2.5,9 Z" id="Rectangle"></path>
            <path d="M2,18 L12,18 C13.1045695,18 14,18.8954305 14,20 C14,21.1045695 13.1045695,22 12,22 L6.83067391,22 L2,22 C0.8954305,22 1.3527075e-16,21.1045695 0,20 C-1.3527075e-16,18.8954305 0.8954305,18 2,18 Z" id="Rectangle" fill="#60666A"></path>
        </g>
    </g>
</svg>