<svg width="32" height="32" viewBox="0 0 32 32" fill="none" xmlns="http://www.w3.org/2000/svg">
<path d="M29.3334 16V12C29.3334 5.33334 26.6667 2.66667 20.0001 2.66667H12.0001C5.33341 2.66667 2.66675 5.33334 2.66675 12V20C2.66675 26.6667 5.33341 29.3333 12.0001 29.3333H16.0001" stroke="#525252" stroke-width="1.5" stroke-linecap="round" stroke-linejoin="round"/>
<path d="M27.9466 23.7866L25.7732 24.52C25.1732 24.72 24.6932 25.1867 24.4932 25.8L23.7599 27.9733C23.1332 29.8533 20.4932 29.8133 19.9066 27.9333L17.4399 20C16.9599 18.4267 18.4132 16.96 19.9732 17.4533L27.9199 19.92C29.7866 20.5067 29.8132 23.16 27.9466 23.7866Z" stroke="#525252" stroke-width="1.5" stroke-linecap="round" stroke-linejoin="round"/>
</svg>
