<svg width="26" height="26" viewBox="0 0 26 26" fill="none" xmlns="http://www.w3.org/2000/svg">
<path d="M20.9298 11.6459H5.08059C3.03309 11.6459 1.36475 9.97753 1.36475 7.93003V5.08086C1.36475 3.03336 3.03309 1.36502 5.08059 1.36502H20.9298C22.9773 1.36502 24.6456 3.03336 24.6456 5.08086V7.93003C24.6456 9.97753 22.9773 11.6459 20.9298 11.6459ZM5.06974 2.97919C3.91058 2.97919 2.97892 3.92169 2.97892 5.07002V7.91919C2.97892 9.07836 3.92141 10.01 5.06974 10.01H20.9189C22.0781 10.01 23.0098 9.06752 23.0098 7.91919V5.07002C23.0098 3.91085 22.0673 2.97919 20.9189 2.97919H5.06974Z" fill="#525252"/>
<path d="M20.9298 24.6459H5.08059C3.03309 24.6459 1.36475 22.9776 1.36475 20.9301V18.0809C1.36475 16.0334 3.03309 14.3651 5.08059 14.3651H20.9298C22.9773 14.3651 24.6456 16.0334 24.6456 18.0809V20.9301C24.6456 22.9776 22.9773 24.6459 20.9298 24.6459ZM5.06974 15.9792C3.91058 15.9792 2.97892 16.9217 2.97892 18.07V20.9192C2.97892 22.0784 3.92141 23.0101 5.06974 23.0101H20.9189C22.0781 23.0101 23.0098 22.0676 23.0098 20.9192V18.07C23.0098 16.9109 22.0673 15.9792 20.9189 15.9792H5.06974Z" fill="#525252"/>
<path d="M6.5 8.39582C6.05583 8.39582 5.6875 8.02749 5.6875 7.58332V5.41666C5.6875 4.97249 6.05583 4.60416 6.5 4.60416C6.94417 4.60416 7.3125 4.97249 7.3125 5.41666V7.58332C7.3125 8.02749 6.94417 8.39582 6.5 8.39582Z" fill="#525252"/>
<path d="M10.8333 8.39582C10.3891 8.39582 10.0208 8.02749 10.0208 7.58332V5.41666C10.0208 4.97249 10.3891 4.60416 10.8333 4.60416C11.2774 4.60416 11.6458 4.97249 11.6458 5.41666V7.58332C11.6458 8.02749 11.2774 8.39582 10.8333 8.39582Z" fill="#525252"/>
<path d="M6.5 21.3958C6.05583 21.3958 5.6875 21.0275 5.6875 20.5833V18.4166C5.6875 17.9725 6.05583 17.6041 6.5 17.6041C6.94417 17.6041 7.3125 17.9725 7.3125 18.4166V20.5833C7.3125 21.0275 6.94417 21.3958 6.5 21.3958Z" fill="#525252"/>
<path d="M10.8333 21.3958C10.3891 21.3958 10.0208 21.0275 10.0208 20.5833V18.4166C10.0208 17.9725 10.3891 17.6041 10.8333 17.6041C11.2774 17.6041 11.6458 17.9725 11.6458 18.4166V20.5833C11.6458 21.0275 11.2774 21.3958 10.8333 21.3958Z" fill="#525252"/>
<path d="M19.5001 7.3125H15.1667C14.7226 7.3125 14.3542 6.94417 14.3542 6.5C14.3542 6.05583 14.7226 5.6875 15.1667 5.6875H19.5001C19.9442 5.6875 20.3126 6.05583 20.3126 6.5C20.3126 6.94417 19.9442 7.3125 19.5001 7.3125Z" fill="#525252"/>
<path d="M19.5001 20.3125H15.1667C14.7226 20.3125 14.3542 19.9442 14.3542 19.5C14.3542 19.0558 14.7226 18.6875 15.1667 18.6875H19.5001C19.9442 18.6875 20.3126 19.0558 20.3126 19.5C20.3126 19.9442 19.9442 20.3125 19.5001 20.3125Z" fill="#525252"/>
</svg>
