<svg width="32" height="32" viewBox="0 0 32 32" fill="none" xmlns="http://www.w3.org/2000/svg">
<path d="M23.3867 11.08C25.1982 11.08 26.6667 9.61148 26.6667 7.79999C26.6667 5.98849 25.1982 4.51999 23.3867 4.51999C21.5752 4.51999 20.1067 5.98849 20.1067 7.79999C20.1067 9.61148 21.5752 11.08 23.3867 11.08Z" stroke="#525252" stroke-width="1.5" stroke-miterlimit="10" stroke-linecap="round" stroke-linejoin="round"/>
<path d="M8.61326 11.08C10.4248 11.08 11.8932 9.61148 11.8932 7.79999C11.8932 5.98849 10.4248 4.51999 8.61326 4.51999C6.80177 4.51999 5.33325 5.98849 5.33325 7.79999C5.33325 9.61148 6.80177 11.08 8.61326 11.08Z" stroke="#525252" stroke-width="1.5" stroke-miterlimit="10" stroke-linecap="round" stroke-linejoin="round"/>
<path d="M23.3867 27.48C25.1982 27.48 26.6667 26.0115 26.6667 24.2C26.6667 22.3885 25.1982 20.92 23.3867 20.92C21.5752 20.92 20.1067 22.3885 20.1067 24.2C20.1067 26.0115 21.5752 27.48 23.3867 27.48Z" stroke="#525252" stroke-width="1.5" stroke-miterlimit="10" stroke-linecap="round" stroke-linejoin="round"/>
<path d="M8.61326 27.48C10.4248 27.48 11.8932 26.0115 11.8932 24.2C11.8932 22.3885 10.4248 20.92 8.61326 20.92C6.80177 20.92 5.33325 22.3885 5.33325 24.2C5.33325 26.0115 6.80177 27.48 8.61326 27.48Z" stroke="#525252" stroke-width="1.5" stroke-miterlimit="10" stroke-linecap="round" stroke-linejoin="round"/>
</svg>
