<svg width="32" height="32" viewBox="0 0 32 32" fill="none" xmlns="http://www.w3.org/2000/svg">
<path d="M12.0001 29.3333H20.0001C26.6667 29.3333 29.3334 26.6667 29.3334 20V12C29.3334 5.33334 26.6667 2.66667 20.0001 2.66667H12.0001C5.33341 2.66667 2.66675 5.33334 2.66675 12V20C2.66675 26.6667 5.33341 29.3333 12.0001 29.3333Z" stroke="#525252" stroke-width="1.5" stroke-linecap="round" stroke-linejoin="round"/>
<path d="M11.9999 13.3333C13.4727 13.3333 14.6666 12.1394 14.6666 10.6667C14.6666 9.19391 13.4727 8 11.9999 8C10.5272 8 9.33325 9.19391 9.33325 10.6667C9.33325 12.1394 10.5272 13.3333 11.9999 13.3333Z" stroke="#525252" stroke-width="1.5" stroke-linecap="round" stroke-linejoin="round"/>
<path d="M3.56006 25.2667L10.1334 20.8533C11.1867 20.1467 12.7067 20.2267 13.6534 21.04L14.0934 21.4267C15.1334 22.32 16.8134 22.32 17.8534 21.4267L23.4001 16.6667C24.4401 15.7733 26.1201 15.7733 27.1601 16.6667L29.3334 18.5333" stroke="#525252" stroke-width="1.5" stroke-linecap="round" stroke-linejoin="round"/>
</svg>
