<svg width="32" height="32" viewBox="0 0 32 32" fill="none" xmlns="http://www.w3.org/2000/svg">
<path d="M5.66667 6C4.2 6 3 7.2 3 8.66667C3 10.1333 4.2 11.3333 5.66667 11.3333C7.13333 11.3333 8.33333 10.1333 8.33333 8.66667C8.33333 7.2 7.13333 6 5.66667 6Z" stroke="#525252" stroke-width="1.5"/>
<path d="M15.9999 6C14.5333 6 13.3333 7.2 13.3333 8.66667C13.3333 10.1333 14.5333 11.3333 15.9999 11.3333C17.4666 11.3333 18.6666 10.1333 18.6666 8.66667C18.6666 7.2 17.4666 6 15.9999 6Z" stroke="#525252" stroke-width="1.5"/>
<path d="M26.5 6C25.125 6 24 7.125 24 8.5C24 9.875 25.125 11 26.5 11C27.875 11 29 9.875 29 8.5C29 7.125 27.875 6 26.5 6Z" stroke="#525252" stroke-width="1.5"/>
<path d="M9.57289 19.4094C9.55868 19.2662 9.49772 19.1549 9.39 19.0756C9.28229 18.9963 9.1361 18.9567 8.95144 18.9567C8.82596 18.9567 8.72002 18.9744 8.63361 19.0099C8.5472 19.0443 8.48091 19.0922 8.43475 19.1538C8.38977 19.2153 8.36728 19.2852 8.36728 19.3633C8.36491 19.4284 8.37852 19.4852 8.40811 19.5337C8.43889 19.5823 8.48091 19.6243 8.53418 19.6598C8.58745 19.6941 8.649 19.7243 8.71884 19.7504C8.78868 19.7752 8.86325 19.7965 8.94256 19.8143L9.26926 19.8924C9.42788 19.9279 9.57348 19.9753 9.70605 20.0344C9.83863 20.0936 9.95345 20.1664 10.0505 20.2528C10.1476 20.3393 10.2227 20.4411 10.276 20.5582C10.3305 20.6754 10.3583 20.8098 10.3595 20.9613C10.3583 21.1838 10.3015 21.3768 10.189 21.5401C10.0777 21.7023 9.91676 21.8284 9.70605 21.9183C9.49654 22.0071 9.24382 22.0515 8.94789 22.0515C8.65433 22.0515 8.39864 22.0065 8.18084 21.9165C7.96422 21.8266 7.79495 21.6934 7.67303 21.517C7.55229 21.3395 7.48896 21.1199 7.48304 20.8583H8.22701C8.23529 20.9802 8.27021 21.082 8.33176 21.1637C8.3945 21.2442 8.47795 21.3052 8.58212 21.3466C8.68747 21.3868 8.80643 21.407 8.93901 21.407C9.06922 21.407 9.18226 21.388 9.27814 21.3501C9.37521 21.3123 9.45037 21.2596 9.50364 21.1921C9.55691 21.1246 9.58354 21.0471 9.58354 20.9595C9.58354 20.8778 9.55927 20.8092 9.51074 20.7536C9.46339 20.6979 9.39355 20.6506 9.30123 20.6115C9.21008 20.5724 9.09822 20.5369 8.96564 20.505L8.56969 20.4055C8.26311 20.331 8.02104 20.2144 7.84348 20.0558C7.66593 19.8971 7.57774 19.6835 7.57892 19.4148C7.57774 19.1946 7.63633 19.0022 7.75471 18.8377C7.87426 18.6732 8.0382 18.5447 8.24654 18.4524C8.45487 18.3601 8.69161 18.3139 8.95676 18.3139C9.22665 18.3139 9.46221 18.3601 9.66344 18.4524C9.86586 18.5447 10.0233 18.6732 10.1357 18.8377C10.2482 19.0022 10.3062 19.1928 10.3097 19.4094H9.57289ZM12.6113 20.8388V19.2727H13.3677V22H12.6415V21.5046H12.6131C12.5516 21.6644 12.4492 21.7929 12.3059 21.8899C12.1639 21.987 11.9905 22.0355 11.7857 22.0355C11.6034 22.0355 11.443 21.9941 11.3045 21.9112C11.166 21.8284 11.0577 21.7106 10.9796 21.5579C10.9026 21.4052 10.8636 21.2223 10.8624 21.0092V19.2727H11.6188V20.8743C11.62 21.0353 11.6632 21.1625 11.7484 21.256C11.8336 21.3496 11.9479 21.3963 12.0911 21.3963C12.1822 21.3963 12.2675 21.3756 12.3468 21.3342C12.4261 21.2915 12.49 21.2288 12.5385 21.146C12.5882 21.0631 12.6125 20.9607 12.6113 20.8388ZM13.9869 22V18.3636H14.7433V19.7308H14.7664C14.7996 19.6574 14.8475 19.5829 14.9102 19.5071C14.9742 19.4302 15.057 19.3662 15.1588 19.3153C15.2618 19.2633 15.3896 19.2372 15.5423 19.2372C15.7412 19.2372 15.9247 19.2893 16.0928 19.3935C16.2609 19.4964 16.3952 19.6521 16.4958 19.8604C16.5964 20.0676 16.6468 20.3274 16.6468 20.6399C16.6468 20.9441 16.5976 21.201 16.4994 21.4105C16.4023 21.6188 16.2697 21.7769 16.1017 21.8846C15.9347 21.9911 15.7477 22.0444 15.5406 22.0444C15.3938 22.0444 15.2689 22.0201 15.1659 21.9716C15.0641 21.9231 14.9807 21.8621 14.9156 21.7887C14.8505 21.7141 14.8008 21.639 14.7664 21.5632H14.7327V22H13.9869ZM14.7274 20.6364C14.7274 20.7985 14.7499 20.94 14.7948 21.0607C14.8398 21.1815 14.9049 21.2756 14.9901 21.343C15.0754 21.4093 15.1789 21.4425 15.3009 21.4425C15.424 21.4425 15.5281 21.4087 15.6134 21.3413C15.6986 21.2726 15.7631 21.1779 15.8069 21.0572C15.8519 20.9353 15.8744 20.795 15.8744 20.6364C15.8744 20.4789 15.8525 20.3404 15.8087 20.2209C15.7649 20.1013 15.7004 20.0078 15.6151 19.9403C15.5299 19.8729 15.4252 19.8391 15.3009 19.8391C15.1778 19.8391 15.0736 19.8717 14.9884 19.9368C14.9043 20.0019 14.8398 20.0942 14.7948 20.2138C14.7499 20.3333 14.7274 20.4742 14.7274 20.6364ZM17.1515 22V19.2727H17.8723V19.7539H17.9043C17.9611 19.5941 18.0558 19.468 18.1884 19.3757C18.321 19.2834 18.4796 19.2372 18.6642 19.2372C18.8513 19.2372 19.0105 19.284 19.1419 19.3775C19.2733 19.4698 19.3609 19.5953 19.4047 19.7539H19.4331C19.4887 19.5977 19.5893 19.4728 19.7349 19.3793C19.8817 19.2846 20.0551 19.2372 20.2551 19.2372C20.5096 19.2372 20.7162 19.3183 20.8748 19.4805C21.0346 19.6415 21.1145 19.8699 21.1145 20.1658V22H20.3599V20.315C20.3599 20.1635 20.3197 20.0498 20.2392 19.9741C20.1587 19.8983 20.0581 19.8604 19.9373 19.8604C19.8 19.8604 19.6929 19.9042 19.6159 19.9918C19.539 20.0782 19.5005 20.1925 19.5005 20.3345V22H18.7672V20.299C18.7672 20.1652 18.7288 20.0587 18.6518 19.9794C18.5761 19.9001 18.476 19.8604 18.3517 19.8604C18.2677 19.8604 18.1919 19.8817 18.1245 19.9244C18.0582 19.9658 18.0055 20.0244 17.9664 20.1001C17.9274 20.1747 17.9078 20.2623 17.9078 20.3629V22H17.1515ZM21.712 22V19.2727H22.4684V22H21.712ZM22.092 18.9212C21.9795 18.9212 21.883 18.8839 21.8026 18.8093C21.7232 18.7335 21.6836 18.643 21.6836 18.5376C21.6836 18.4335 21.7232 18.3441 21.8026 18.2695C21.883 18.1938 21.9795 18.1559 22.092 18.1559C22.2044 18.1559 22.3003 18.1938 22.3796 18.2695C22.4601 18.3441 22.5004 18.4335 22.5004 18.5376C22.5004 18.643 22.4601 18.7335 22.3796 18.8093C22.3003 18.8839 22.2044 18.9212 22.092 18.9212ZM24.5249 19.2727V19.8409H22.8825V19.2727H24.5249ZM23.2554 18.6193H24.0118V21.1619C24.0118 21.2318 24.0225 21.2862 24.0438 21.3253C24.0651 21.3632 24.0947 21.3898 24.1325 21.4052C24.1716 21.4206 24.2166 21.4283 24.2675 21.4283C24.303 21.4283 24.3385 21.4253 24.374 21.4194C24.4095 21.4123 24.4368 21.407 24.4557 21.4034L24.5747 21.9663C24.5368 21.9781 24.4835 21.9917 24.4149 22.0071C24.3462 22.0237 24.2628 22.0337 24.1645 22.0373C23.9822 22.0444 23.8224 22.0201 23.6851 21.9645C23.549 21.9089 23.443 21.8224 23.3673 21.7053C23.2915 21.5881 23.2542 21.4401 23.2554 21.2614V18.6193Z" fill="#525252"/>
<rect x="3.25" y="15.75" width="25.5" height="9.5" rx="1.25" stroke="#515253" stroke-width="1.5"/>
</svg>
