<svg width="32" height="32" viewBox="0 0 32 32" fill="none" xmlns="http://www.w3.org/2000/svg">
<path d="M6.66667 13.3333C5.2 13.3333 4 14.5333 4 16C4 17.4667 5.2 18.6667 6.66667 18.6667C8.13333 18.6667 9.33333 17.4667 9.33333 16C9.33333 14.5333 8.13333 13.3333 6.66667 13.3333Z" stroke="#525252" stroke-width="1.5"/>
<path d="M25.3334 13.3333C23.8667 13.3333 22.6667 14.5333 22.6667 16C22.6667 17.4667 23.8667 18.6667 25.3334 18.6667C26.8001 18.6667 28.0001 17.4667 28.0001 16C28.0001 14.5333 26.8001 13.3333 25.3334 13.3333Z" stroke="#525252" stroke-width="1.5"/>
<path d="M15.9999 13.3333C14.5333 13.3333 13.3333 14.5333 13.3333 16C13.3333 17.4667 14.5333 18.6667 15.9999 18.6667C17.4666 18.6667 18.6666 17.4667 18.6666 16C18.6666 14.5333 17.4666 13.3333 15.9999 13.3333Z" stroke="#525252" stroke-width="1.5"/>
</svg>
