<svg width="32" height="32" viewBox="0 0 32 32" fill="none" xmlns="http://www.w3.org/2000/svg">
<path fill-rule="evenodd" clip-rule="evenodd" d="M27.0324 13.5C28.5512 13.5 29.7825 12.2688 29.7825 10.75V6.75C29.7825 6.33579 29.4467 6 29.0325 6C28.6182 6 28.2825 6.33579 28.2825 6.75V10.75C28.2825 11.4404 27.7228 12 27.0324 12H11.0497H10.0506H4.75C4.05964 12 3.5 11.4404 3.5 10.75V7.06579C3.5 6.65158 3.16421 6.31579 2.75 6.31579C2.33579 6.31579 2 6.65158 2 7.06579V10.75C2 12.2688 3.23122 13.5 4.75 13.5H10.0506H11.0497H27.0324Z" fill="#515253"/>
<path fill-rule="evenodd" clip-rule="evenodd" d="M5.07691 19C3.55813 19 2.3269 20.2312 2.3269 21.75V25.75C2.3269 26.1642 2.66269 26.5 3.0769 26.5C3.49112 26.5 3.8269 26.1642 3.8269 25.75V21.75C3.8269 21.0596 4.38655 20.5 5.07691 20.5H20.7611H23.1795H26.9231C27.6134 20.5 28.1731 21.0596 28.1731 21.75V25.4342C28.1731 25.8484 28.5088 26.1842 28.9231 26.1842C29.3373 26.1842 29.6731 25.8484 29.6731 25.4342V21.75C29.6731 20.2312 28.4418 19 26.9231 19H23.1795H20.7611H5.07691Z" fill="#515253"/>
</svg>
