<svg width="30" height="30" viewBox="0 0 30 30" fill="none" xmlns="http://www.w3.org/2000/svg">
<path d="M26.25 28.4375H3.75C3.2375 28.4375 2.8125 28.0125 2.8125 27.5C2.8125 26.9875 3.2375 26.5625 3.75 26.5625H26.25C26.7625 26.5625 27.1875 26.9875 27.1875 27.5C27.1875 28.0125 26.7625 28.4375 26.25 28.4375Z" fill="#525252"/>
<path d="M26.25 3.4375H3.75C3.2375 3.4375 2.8125 3.0125 2.8125 2.5C2.8125 1.9875 3.2375 1.5625 3.75 1.5625H26.25C26.7625 1.5625 27.1875 1.9875 27.1875 2.5C27.1875 3.0125 26.7625 3.4375 26.25 3.4375Z" fill="#525252"/>
<path d="M15 23.4375C14.4875 23.4375 14.0625 23.0125 14.0625 22.5V7.5C14.0625 6.9875 14.4875 6.5625 15 6.5625C15.5125 6.5625 15.9375 6.9875 15.9375 7.5V22.5C15.9375 23.0125 15.5125 23.4375 15 23.4375Z" fill="#525252"/>
<path d="M18.5375 10.5875C18.3 10.5875 18.0625 10.5 17.875 10.3125L15 7.4375L12.125 10.3125C11.7625 10.675 11.1625 10.675 10.8 10.3125C10.4375 9.95 10.4375 9.35 10.8 8.9875L14.3375 5.45C14.6875 5.1 15.3125 5.1 15.6625 5.45L19.2 8.9875C19.5625 9.35 19.5625 9.95 19.2 10.3125C19.0125 10.5 18.775 10.5875 18.5375 10.5875Z" fill="#525252"/>
<path d="M15 24.3375C14.75 24.3375 14.5125 24.2375 14.3375 24.0625L10.8 20.525C10.4375 20.1625 10.4375 19.5625 10.8 19.2C11.1625 18.8375 11.7625 18.8375 12.125 19.2L15 22.075L17.875 19.2C18.2375 18.8375 18.8375 18.8375 19.2 19.2C19.5625 19.5625 19.5625 20.1625 19.2 20.525L15.6625 24.0625C15.4875 24.2375 15.25 24.3375 15 24.3375Z" fill="#525252"/>
</svg>
