<svg width="32" height="32" viewBox="0 0 32 32" fill="none" xmlns="http://www.w3.org/2000/svg">
<path d="M2.66675 2.66667H4.98676C6.42676 2.66667 7.56008 3.90667 7.44008 5.33334L6.33341 18.6133C6.14675 20.7867 7.86674 22.6533 10.0534 22.6533H24.2534C26.1734 22.6533 27.8534 21.08 28.0001 19.1733L28.7201 9.17335C28.8801 6.96001 27.2001 5.16 24.9734 5.16H7.76009" stroke="#525252" stroke-width="1.5" stroke-miterlimit="10" stroke-linecap="round" stroke-linejoin="round"/>
<path d="M21.6667 29.3333C22.5871 29.3333 23.3333 28.5871 23.3333 27.6667C23.3333 26.7462 22.5871 26 21.6667 26C20.7462 26 20 26.7462 20 27.6667C20 28.5871 20.7462 29.3333 21.6667 29.3333Z" stroke="#525252" stroke-width="1.5" stroke-miterlimit="10" stroke-linecap="round" stroke-linejoin="round"/>
<path d="M10.9999 29.3333C11.9204 29.3333 12.6666 28.5871 12.6666 27.6667C12.6666 26.7462 11.9204 26 10.9999 26C10.0794 26 9.33325 26.7462 9.33325 27.6667C9.33325 28.5871 10.0794 29.3333 10.9999 29.3333Z" stroke="#525252" stroke-width="1.5" stroke-miterlimit="10" stroke-linecap="round" stroke-linejoin="round"/>
<path d="M12 10.6667H28" stroke="#525252" stroke-width="1.5" stroke-miterlimit="10" stroke-linecap="round" stroke-linejoin="round"/>
</svg>
