<svg version="1.1" viewBox="0 0 24 24" xmlns="http://www.w3.org/2000/svg" xmlns:xlink="http://www.w3.org/1999/xlink"><g fill="currentColor"><path d="M10.5,0h-10c-0.276,0 -0.5,0.224 -0.5,0.5v10c0,0.276 0.224,0.5 0.5,0.5h10c0.275,0 0.5,-0.224 0.5,-0.5v-10c0,-0.276 -0.225,-0.5 -0.5,-0.5Z"></path><path d="M23.5,0h-10c-0.276,0 -0.5,0.224 -0.5,0.5v10c0,0.276 0.224,0.5 0.5,0.5h10c0.275,0 0.5,-0.224 0.5,-0.5v-10c0,-0.276 -0.225,-0.5 -0.5,-0.5Z"></path><path d="M10.5,13h-10c-0.276,0 -0.5,0.224 -0.5,0.5v10c0,0.276 0.224,0.5 0.5,0.5h10c0.275,0 0.5,-0.224 0.5,-0.5v-10c0,-0.276 -0.225,-0.5 -0.5,-0.5Z"></path><path d="M23.5,13h-10c-0.276,0 -0.5,0.224 -0.5,0.5v10c0,0.276 0.224,0.5 0.5,0.5h10c0.275,0 0.5,-0.224 0.5,-0.5v-10c0,-0.276 -0.225,-0.5 -0.5,-0.5Z"></path></g><path fill="none" d="M0,0h24v24h-24Z"></path></svg>
