<svg version="1.1" viewBox="0 0 24 24" xmlns="http://www.w3.org/2000/svg" xmlns:xlink="http://www.w3.org/1999/xlink"><g fill="currentColor"><path d="M19,0h-14c-0.553,0 -1,0.447 -1,1v3c0,0.553 0.447,1 1,1c0.553,0 1,-0.447 1,-1v-2h5v14h-2c-0.553,0 -1,0.447 -1,1c0,0.553 0.447,1 1,1h6c0.553,0 1,-0.447 1,-1c0,-0.553 -0.447,-1 -1,-1h-2v-14h5v2c0,0.553 0.447,1 1,1c0.553,0 1,-0.447 1,-1v-3c0,-0.553 -0.447,-1 -1,-1Z"></path><path d="M18.931,21.585l0.868,-0.602h-15.598l0.868,0.602c0.452,0.313 0.568,0.936 0.253,1.392c-0.314,0.454 -0.938,0.567 -1.392,0.253l-3.5,-2.424c-0.562,-0.389 -0.558,-1.256 -0.009,-1.638l3.5,-2.483c0.449,-0.319 1.074,-0.214 1.394,0.236c0.319,0.451 0.214,1.074 -0.237,1.394l-0.94,0.685h15.725l-0.94,-0.685c-0.451,-0.32 -0.557,-0.943 -0.237,-1.394c0.319,-0.45 0.944,-0.556 1.393,-0.236l3.5,2.483c0.548,0.382 0.555,1.249 -0.009,1.638l-3.5,2.424c-0.454,0.314 -1.077,0.201 -1.392,-0.253c-0.315,-0.456 -0.201,-1.079 0.253,-1.392Z"></path></g><path fill="none" d="M0,0h24v24h-24Z"></path></svg>
