<svg version="1.1" viewBox="0 0 24 24" xmlns="http://www.w3.org/2000/svg" xmlns:xlink="http://www.w3.org/1999/xlink"><g fill="currentColor"><path d="M23.913,12.188c-0.031,-0.068 -0.781,-1.699 -2.839,-3.367c-0.429,-0.348 -1.058,-0.282 -1.407,0.148c-0.348,0.427 -0.281,1.058 0.147,1.405c1.028,0.834 1.654,1.642 1.981,2.139c-1.199,1.453 -5.031,5.586 -9.795,5.586c-0.441,0 -0.894,-0.036 -1.348,-0.106c-0.545,-0.086 -1.057,0.289 -1.142,0.835c-0.084,0.544 0.289,1.058 0.834,1.142c0.555,0.086 1.111,0.13 1.656,0.13c6.787,0 11.611,-6.635 11.812,-6.918c0.208,-0.291 0.246,-0.67 0.101,-0.994Z"></path><path d="M2.874,16.333c0.425,0.349 1.054,0.288 1.407,-0.142c0.349,-0.428 0.285,-1.059 -0.144,-1.407c-1.004,-0.82 -1.613,-1.61 -1.935,-2.099c1.199,-1.451 5.033,-5.586 9.798,-5.586c0.307,0 0.621,0.017 0.936,0.051c0.55,0.062 1.043,-0.336 1.103,-0.886c0.061,-0.548 -0.336,-1.041 -0.885,-1.102c-0.386,-0.041 -0.775,-0.063 -1.154,-0.063c-6.788,0 -11.611,6.635 -11.814,6.919c-0.205,0.288 -0.244,0.663 -0.1,0.988c0.03,0.067 0.758,1.673 2.788,3.327Z"></path><path d="M12.583,16.223c2.205,0 4,-1.794 4,-4c0,-0.417 -0.065,-0.818 -0.184,-1.197l-5.013,5.014c0.378,0.119 0.781,0.183 1.197,0.183Z"></path><path d="M8.583,12.223c0,0.298 0.035,0.587 0.097,0.867l4.77,-4.769c-0.279,-0.061 -0.568,-0.097 -0.866,-0.097c-2.207,-0.001 -4.001,1.794 -4.001,3.999Z"></path><path d="M23.051,1.548c-0.366,-0.373 -0.997,-0.402 -1.396,-0.016c-0.006,0.005 -0.013,0.009 -0.019,0.016l-19.5,19.5c-0.353,0.279 -0.429,0.989 0,1.414c0.001,0.001 0.003,0.002 0.004,0.004c0.377,0.372 1.029,0.372 1.405,0c0.001,-0.001 0.003,-0.002 0.005,-0.004l19.5,-19.5c0.393,-0.396 0.387,-1.028 0.001,-1.414Z"></path></g><path fill="none" d="M0,0h24v24h-24Z"></path></svg>
