<svg xmlns="http://www.w3.org/2000/svg" viewBox="0 0 128 128">
  <g fill="none" fill-rule="evenodd">
    <path fill="#23282D" d="M56,19.9992122 L10,20 C4.4771525,20 -1.10000309e-15,15.5228475 0,10 C-6.61662521e-16,4.5971155 4.37990327,0.217212229 9.78278777,0.217212229 C9.8543947,0.217212229 9.92599948,0.217998439 9.99758914,0.219570718 L66.8367796,1.46789386 C70.9424147,1.55806332 74.3834686,4.27942675 75.5633162,7.9999083 L76,8 L76,32 L81.1715729,32 C81.7020059,32 82.2107137,32.2107137 82.5857864,32.5857864 C83.366835,33.366835 83.366835,34.633165 82.5857864,35.4142136 L82.5857864,35.4142136 L67.4142136,50.5857864 C66.633165,51.366835 65.366835,51.366835 64.5857864,50.5857864 L64.5857864,50.5857864 L49.4142136,35.4142136 C49.0391408,35.0391408 48.8284271,34.530433 48.8284271,34 C48.8284271,32.8954305 49.7238576,32 50.8284271,32 L50.8284271,32 L56,32 L56,19.9992122 Z" transform="translate(30 24)"/>
    <path fill="#23282D" d="M56,20 L8,20 C3.581722,20 5.41083001e-16,16.418278 0,12 L0,8 C-5.41083001e-16,3.581722 3.581722,8.11624501e-16 8,0 L68,0 C72.3349143,-7.96310831e-16 75.8645429,3.44783777 75.9961932,7.75082067 L76,8 L76,32 L81.1715729,32 C81.7020059,32 82.2107137,32.2107137 82.5857864,32.5857864 C83.366835,33.366835 83.366835,34.633165 82.5857864,35.4142136 L82.5857864,35.4142136 L67.4142136,50.5857864 C66.633165,51.366835 65.366835,51.366835 64.5857864,50.5857864 L64.5857864,50.5857864 L49.4142136,35.4142136 C49.0391408,35.0391408 48.8284271,34.530433 48.8284271,34 C48.8284271,32.8954305 49.7238576,32 50.8284271,32 L50.8284271,32 L56,32 L56,20 Z" transform="rotate(180 49 52)"/>
  </g>
</svg>
