<svg version="1.1" viewBox="0 0 30 30" xmlns="http://www.w3.org/2000/svg" xmlns:xlink="http://www.w3.org/1999/xlink">
	<path d="M15,26h0.5l-0.5,-0.001v0.001Zm7,-26h-14c-1.378,0 -2.5,1.122 -2.5,2.5v25c0,1.378 1.122,2.5 2.5,2.5h14c1.378,0 2.5,-1.122 2.5,-2.5v-25c0,-1.378 -1.122,-2.5 -2.5,-2.5Zm-2.008,2h0.01c0.275,0 0.498,0.224 0.498,0.5c0,0.276 -0.223,0.5 -0.498,0.5c-0.275,0 -0.502,-0.224 -0.502,-0.5c0,-0.276 0.218,-0.5 0.492,-0.5Zm-5.992,0h2c0.276,0 0.5,0.224 0.5,0.5c0,0.276 -0.224,0.5 -0.5,0.5h-2c-0.276,0 -0.5,-0.224 -0.5,-0.5c0,-0.276 0.224,-0.5 0.5,-0.5Zm1,25c-0.551,0 -1,-0.449 -1,-1c0,-0.551 0.449,-1 1,-1c0.551,0 1,0.449 1,1c0,0.551 -0.449,1 -1,1Zm8.5,-4h-17v-18h17v18Z" fill="currentColor"></path>
</svg>
