<svg version="1.1" viewBox="0 0 30 30" xmlns="http://www.w3.org/2000/svg" xmlns:xlink="http://www.w3.org/1999/xlink"><g><path d="M8.5,10.5c0,-0.3 -0.2,-0.5 -0.5,-0.5h-5c-0.3,0 -0.5,0.2 -0.5,0.5c0,0.3 0.2,0.5 0.5,0.5h5c0.3,0 0.5,-0.2 0.5,-0.5Z"></path><path d="M17.5,10.5c0,0.3 0.2,0.5 0.5,0.5h5c0.3,0 0.5,-0.2 0.5,-0.5c0,-0.3 -0.2,-0.5 -0.5,-0.5h-5c-0.3,0 -0.5,0.2 -0.5,0.5Z"></path><path d="M13,6c0.3,0 0.5,-0.2 0.5,-0.5v-5c0,-0.3 -0.2,-0.5 -0.5,-0.5c-0.3,0 -0.5,0.2 -0.5,0.5v5c0,0.3 0.2,0.5 0.5,0.5Z"></path><path d="M6.3,3.1c-0.2,-0.2 -0.5,-0.2 -0.7,0c-0.2,0.2 -0.2,0.5 0,0.7l3.5,3.5c0.1,0.1 0.2,0.1 0.4,0.1c0.2,0 0.3,0 0.4,-0.1c0.2,-0.2 0.2,-0.5 0,-0.7l-3.6,-3.5Z"></path><path d="M9.1,13.7l-3.5,3.5c-0.2,0.2 -0.2,0.5 0,0.7c0.1,0.1 0.2,0.1 0.4,0.1c0.2,0 0.3,0 0.4,-0.1l3.5,-3.5c0.2,-0.2 0.2,-0.5 0,-0.7c-0.2,-0.2 -0.6,-0.2 -0.8,0Z"></path><path d="M16.5,7.5c0.1,0 0.3,0 0.4,-0.1l3.5,-3.5c0.2,-0.2 0.2,-0.5 0,-0.7c-0.2,-0.2 -0.5,-0.2 -0.7,0l-3.5,3.5c-0.2,0.2 -0.2,0.5 0,0.7c0.1,0 0.2,0.1 0.3,0.1Z"></path><path d="M27.3,21.1l-14,-11c-0.1,-0.1 -0.3,-0.1 -0.5,-1.77636e-15c-0.2,0.1 -0.3,0.3 -0.3,0.4v19c0,0.2 0.1,0.4 0.4,0.5c0,0 0.1,0 0.1,0c0.2,0 0.3,-0.1 0.4,-0.2l4.9,-7.8h8.7c0.2,0 0.4,-0.1 0.5,-0.3c0,-0.2 0,-0.5 -0.2,-0.6Z"></path></g></svg>
