<svg version="1.1" viewBox="0 0 30 30" xmlns="http://www.w3.org/2000/svg" xmlns:xlink="http://www.w3.org/1999/xlink"><g><path d="M27.3,21.1l-14,-11c-0.1,-0.1 -0.3,-0.1 -0.5,-1.77636e-15c-0.2,0.1 -0.3,0.3 -0.3,0.4v19c0,0.2 0.1,0.4 0.4,0.5c0,0 0.1,0 0.1,0c0.2,0 0.3,-0.1 0.4,-0.2l4.9,-7.8h8.7c0.2,0 0.4,-0.1 0.5,-0.3c0,-0.2 0,-0.5 -0.2,-0.6Z"></path><path d="M9.2,19.2c-3.5,-1.5 -5.7,-4.9 -5.7,-8.7c8.88178e-16,-5.2 4.3,-9.5 9.5,-9.5c5.2,0 9.5,4.3 9.5,9.5c0,0.8 -0.1,1.6 -0.3,2.4c-0.1,0.3 0.1,0.5 0.4,0.6c0.3,0.1 0.5,-0.1 0.6,-0.4c0.2,-0.9 0.3,-1.8 0.3,-2.6c0,-5.8 -4.7,-10.5 -10.5,-10.5c-5.8,0 -10.5,4.7 -10.5,10.5c0,4.2 2.5,7.9 6.3,9.6c0.1,0 0.1,0 0.2,0c0.2,0 0.4,-0.1 0.5,-0.3c0.1,-0.2 0,-0.5 -0.3,-0.6Z"></path><path d="M10.8,15.5c-2,-0.9 -3.3,-2.9 -3.3,-5c-8.88178e-16,-3 2.5,-5.5 5.5,-5.5c3,0 5.5,2.5 5.5,5.5c0,0.4 -0.1,0.9 -0.2,1.4c-0.1,0.3 0.1,0.5 0.4,0.6c0.3,0.1 0.5,-0.1 0.6,-0.4c0.1,-0.6 0.2,-1.1 0.2,-1.6c0,-3.6 -2.9,-6.5 -6.5,-6.5c-3.6,0 -6.5,2.9 -6.5,6.5c0,2.6 1.5,4.9 3.9,6c0.1,0 0.1,0 0.2,0c0.2,0 0.4,-0.1 0.5,-0.3c0.1,-0.3 0,-0.6 -0.3,-0.7Z"></path></g></svg>
