<svg version="1.1" viewBox="0 0 30 30" xmlns="http://www.w3.org/2000/svg" xmlns:xlink="http://www.w3.org/1999/xlink"><g><path d="M8,11h-5c-0.3,0 -0.5,-0.2 -0.5,-0.5c0,-0.3 0.2,-0.5 0.5,-0.5h5c0.3,0 0.5,0.2 0.5,0.5c0,0.3 -0.2,0.5 -0.5,0.5Z"></path><path d="M23,11h-5c-0.3,0 -0.5,-0.2 -0.5,-0.5c0,-0.3 0.2,-0.5 0.5,-0.5h5c0.3,0 0.5,0.2 0.5,0.5c0,0.3 -0.2,0.5 -0.5,0.5Z"></path><path d="M13,6c-0.3,0 -0.5,-0.2 -0.5,-0.5v-5c0,-0.3 0.2,-0.5 0.5,-0.5c0.3,0 0.5,0.2 0.5,0.5v5c0,0.3 -0.2,0.5 -0.5,0.5Z"></path><path d="M9.5,7.5c-0.1,0 -0.3,0 -0.4,-0.1l-3.5,-3.6c-0.2,-0.2 -0.2,-0.5 0,-0.7c0.2,-0.2 0.5,-0.2 0.7,0l3.5,3.5c0.2,0.2 0.2,0.5 0,0.7c-0.1,0.1 -0.2,0.2 -0.3,0.2Z"></path><path d="M5.9,18.1c-0.1,0 -0.3,0 -0.4,-0.1c-0.2,-0.2 -0.2,-0.5 0,-0.7l3.5,-3.5c0.2,-0.2 0.5,-0.2 0.7,0c0.2,0.2 0.2,0.5 0,0.7l-3.5,3.5c8.88178e-16,0 -0.1,0.1 -0.3,0.1Z"></path><path d="M16.5,7.5c-0.1,0 -0.3,0 -0.4,-0.1c-0.2,-0.2 -0.2,-0.5 0,-0.7l3.5,-3.5c0.2,-0.2 0.5,-0.2 0.7,0c0.2,0.2 0.2,0.5 0,0.7l-3.5,3.5c0,0 -0.1,0.1 -0.3,0.1Z"></path><path d="M13,30c0,0 -0.1,0 -0.1,0c-0.2,-0.1 -0.4,-0.3 -0.4,-0.5v-19c0,-0.2 0.1,-0.4 0.3,-0.4c0.2,-0.1 0.4,-0.1 0.5,0.1l14,11c0.2,0.1 0.2,0.4 0.2,0.6c-0.1,0.1 -0.3,0.2 -0.5,0.2h-8.7l-4.9,7.8c-0.1,0.1 -0.2,0.2 -0.4,0.2Zm0.5,-18.5v16.2l4.1,-6.5c0.1,-0.1 0.3,-0.2 0.4,-0.2h7.6l-12.1,-9.5Z"></path></g></svg>
