<svg version="1.1" viewBox="0 0 24 24" xmlns="http://www.w3.org/2000/svg" xmlns:xlink="http://www.w3.org/1999/xlink"><g fill="currentColor"><path d="M10.5,24c-0.048,0 -0.097,-0.007 -0.145,-0.021c-0.211,-0.064 -0.355,-0.259 -0.355,-0.479v-15c0,-0.193 0.111,-0.369 0.286,-0.452c0.173,-0.084 0.381,-0.058 0.531,0.064l11,9c0.164,0.134 0.226,0.356 0.154,0.555c-0.071,0.2 -0.259,0.333 -0.471,0.333h-6.732l-3.852,5.777c-0.094,0.142 -0.252,0.223 -0.416,0.223Zm0.5,-14.445v12.293l3.084,-4.626c0.093,-0.138 0.249,-0.222 0.416,-0.222h5.599l-9.099,-7.445Z"></path><path d="M7.628,16.467c-0.06,0 -0.121,-0.011 -0.18,-0.033c-4.374,-1.683 -6.564,-6.61 -4.882,-10.985c1.683,-4.374 6.61,-6.564 10.985,-4.882c4.374,1.683 6.564,6.61 4.882,10.985c-0.1,0.258 -0.39,0.385 -0.646,0.287c-0.257,-0.099 -0.386,-0.389 -0.287,-0.646c1.484,-3.86 -0.448,-8.208 -4.308,-9.692c-3.86,-1.486 -8.208,0.447 -9.692,4.307c-1.484,3.86 0.448,8.208 4.308,9.692c0.257,0.099 0.386,0.389 0.287,0.646c-0.077,0.199 -0.266,0.321 -0.467,0.321Z"></path></g></svg>
