<svg version="1.1" viewBox="0 0 30 30" xmlns="http://www.w3.org/2000/svg" xmlns:xlink="http://www.w3.org/1999/xlink"><path d="M9.5,5h11c0.276,0 0.5,-0.224 0.5,-0.5v-1c0,-1.378 -1.122,-2.5 -2.5,-2.5h-1.774c-0.353,-0.609 -1.007,-1 -1.726,-1c-0.718,0 -1.373,0.39 -1.726,1h-1.774c-1.378,0 -2.5,1.122 -2.5,2.5v1c0,0.276 0.224,0.5 0.5,0.5Zm14.766,-2h-1.766c-0.276,0 -0.5,0.224 -0.5,0.5v1c0,0.828 -0.672,1.5 -1.5,1.5h-11c-0.826,0 -1.5,-0.672 -1.5,-1.5v-1c0,-0.276 -0.224,-0.5 -0.5,-0.5h-1.765c-0.956,0 -1.735,0.781 -1.735,1.739v23.523c0,0.957 0.779,1.738 1.735,1.738h18.529c0.957,0 1.736,-0.781 1.736,-1.739v-23.522c0,-0.958 -0.778,-1.739 -1.734,-1.739Z" fill="currentColor"></path></svg>
