<svg version="1.1" viewBox="0 0 512 512" xmlns="http://www.w3.org/2000/svg" xmlns:xlink="http://www.w3.org/1999/xlink">
	<g fill="currentColor">
		<path d="M352,115h90c3.3,0 6,-2.7 6,-6c0,-8.2 -3.7,-16 -10,-21.3l-77.1,-64.2c-4.9,-4.1 -14.2,-7.4 -20.6,-7.4c-4.1,0 -7.4,3.3 -7.4,7.4v72.5c0.1,10.5 8.6,19 19.1,19Z"></path>
		<path d="M307,96v-80h-131c-17.6,0 -32,14.4 -32,32v336c0,17.6 14.4,32 32,32h240c17.6,0 32,-14.4 32,-32v-243h-96c-24.8,0 -45,-20.2 -45,-45Z"></path>
		<path d="M116,412v-332h-20c-17.6,0 -32,14.4 -32,32v352c0,17.6 14.4,32 32,32h256c17.6,0 32,-14.4 32,-32v-20h-236c-17.6,0 -32,-14.4 -32,-32Z"></path>
	</g>
</svg>
