<svg version="1.1" viewBox="0 0 16 16" xmlns="http://www.w3.org/2000/svg" xmlns:xlink="http://www.w3.org/1999/xlink">
	<path d="M8,16l-2.62268e-07,-7.10543e-15c3.31371,1.44847e-07 6,-2.68629 6,-6c0,-1.655 -1.122,-2.904 -2.432,-4.362c-1.314,-1.462 -2.818,-3.135 -3.568,-5.638c0,0 -6,5.686 -6,10l6.83897e-14,9.05975e-07c5.00356e-07,3.31371 2.68629,6 6,6Zm-1.354,-11.354c-0.376,0.377 -1.272,1.489 -2.093,3.13l0.894,0.448c0.78,-1.559 1.616,-2.58 1.907,-2.87l-0.708,-0.708Z" fill="currentColor" fill-rule="evenodd"></path>
</svg>
