<svg version="1.1" viewBox="0 0 16 16" xmlns="http://www.w3.org/2000/svg" xmlns:xlink="http://www.w3.org/1999/xlink"><g fill="currentColor" fill-rule="evenodd"><path d="M0,2.5l1.77636e-14,2.26494e-07c-1.25089e-07,-0.828427 0.671573,-1.5 1.5,-1.5h13l-1.78873e-08,1.77636e-15c0.828427,-1.34968e-07 1.5,0.671573 1.5,1.5c1.06581e-14,7.64678e-08 1.77636e-14,1.50026e-07 1.77636e-14,2.26494e-07v11v0c0,0.828427 -0.671573,1.5 -1.5,1.5h-13l-6.55671e-08,-1.77636e-15c-0.828427,-3.62117e-08 -1.5,-0.671573 -1.5,-1.5v-11Zm1.5,-0.5h-2.18557e-08c-0.276142,1.20706e-08 -0.5,0.223858 -0.5,0.5c0,0 0,0 0,0v11l5.32907e-15,7.54979e-08c4.16963e-08,0.276142 0.223858,0.5 0.5,0.5h13h-2.18557e-08c0.276142,1.20706e-08 0.5,-0.223858 0.5,-0.5v-11v0c0,-0.276142 -0.223858,-0.5 -0.5,-0.5h-13Z"></path><path d="M5,15v-14h1v14h-1Zm5,0v-14h1v14h-1Z"></path></g></svg>
