<svg version="1.1" viewBox="0 0 16 16" xmlns="http://www.w3.org/2000/svg" xmlns:xlink="http://www.w3.org/1999/xlink"><path d="M2,4l2.30926e-14,3.01992e-07c-1.66785e-07,-1.10457 0.89543,-2 2,-2h8l-8.74228e-08,1.77636e-15c1.10457,-4.82823e-08 2,0.89543 2,2c4.82823e-08,1.10457 -0.89543,2 -2,2h-8l-8.74228e-08,-1.77636e-15c-1.10457,-4.82823e-08 -2,-0.895431 -2,-2c0,0 0,-8.88178e-16 0,-8.88178e-16Zm2,-1l-4.37114e-08,8.88178e-16c-0.552285,2.41411e-08 -1,0.447715 -1,1c2.41411e-08,0.552285 0.447715,1 1,1h8l-4.37114e-08,-8.88178e-16c0.552285,2.41411e-08 1,-0.447715 1,-1c2.41411e-08,-0.552285 -0.447715,-1 -1,-1h-8Z" fill-rule="evenodd"></path><path d="M14,4v0c0,2.20914 -1.79086,4 -4,4c-2.20914,0 -4,-1.79086 -4,-4l4.61853e-14,6.03983e-07c-3.33571e-07,-2.20914 1.79086,-4 4,-4c2.20914,-3.33571e-07 4,1.79086 4,4c0,0 0,3.55271e-15 0,3.55271e-15Z"></path><g fill-rule="evenodd"><path d="M9.465,10h2.535l-8.74228e-08,1.77636e-15c1.10457,-4.82823e-08 2,0.89543 2,2c4.82823e-08,1.10457 -0.89543,2 -2,2h-2.535c0.34,-0.588 0.535,-1.271 0.535,-2c0,-0.729 -0.195,-1.412 -0.535,-2Z"></path><path d="M6,15l-1.31134e-07,-3.55271e-15c-1.65685,-7.24234e-08 -3,-1.34315 -3,-3c7.24234e-08,-1.65685 1.34315,-3 3,-3l-1.31134e-07,3.55271e-15c1.65685,-7.24234e-08 3,1.34315 3,3c7.24234e-08,1.65685 -1.34315,3 -3,3Zm0,1l-1.74846e-07,-3.55271e-15c-2.20914,-9.65645e-08 -4,-1.79086 -4,-4c9.65645e-08,-2.20914 1.79086,-4 4,-4l-1.74846e-07,3.55271e-15c2.20914,-9.65645e-08 4,1.79086 4,4c9.65645e-08,2.20914 -1.79086,4 -4,4Z"></path></g></svg>
