<svg version="1.1" viewBox="0 0 16 16" xmlns="http://www.w3.org/2000/svg" xmlns:xlink="http://www.w3.org/1999/xlink"><path d="M4.5,9l-1.5299e-07,3.55271e-15c-1.933,8.4494e-08 -3.5,1.567 -3.5,3.5c8.4494e-08,1.933 1.567,3.5 3.5,3.5h7l-1.5299e-07,-3.55271e-15c1.933,8.4494e-08 3.5,-1.567 3.5,-3.5c8.4494e-08,-1.933 -1.567,-3.5 -3.5,-3.5h-7Zm7,6l-1.09278e-07,-3.55271e-15c1.38071,6.03528e-08 2.5,-1.11929 2.5,-2.5c6.03528e-08,-1.38071 -1.11929,-2.5 -2.5,-2.5l-1.09278e-07,3.55271e-15c-1.38071,6.03528e-08 -2.5,1.11929 -2.5,2.5c6.03528e-08,1.38071 1.11929,2.5 2.5,2.5Zm-7,-14l-1.09278e-07,2.66454e-15c-1.38071,6.03528e-08 -2.5,1.11929 -2.5,2.5c6.03528e-08,1.38071 1.11929,2.5 2.5,2.5l-1.09278e-07,-2.66454e-15c1.38071,6.03528e-08 2.5,-1.11929 2.5,-2.5c6.03528e-08,-1.38071 -1.11929,-2.5 -2.5,-2.5Zm2.45,0l-3.5466e-08,-3.468e-08c0.672655,0.657747 1.05127,1.55921 1.05,2.5l4.63124e-08,3.45059e-05c0.00125804,0.940794 -0.377364,1.84225 -1.05002,2.49999h4.55l-1.09278e-07,-2.66454e-15c1.38071,6.03528e-08 2.5,-1.11929 2.5,-2.5c6.03528e-08,-1.38071 -1.11929,-2.5 -2.5,-2.5h-4.54998Zm-2.45,-1h7l-1.5299e-07,3.55271e-15c1.933,-8.4494e-08 3.5,1.567 3.5,3.5c8.4494e-08,1.933 -1.567,3.5 -3.5,3.5h-7l-1.5299e-07,-3.55271e-15c-1.933,-8.4494e-08 -3.5,-1.567 -3.5,-3.5c8.4494e-08,-1.933 1.567,-3.5 3.5,-3.5Z" fill-rule="evenodd"></path></svg>
