<svg xmlns="http://www.w3.org/2000/svg" viewBox="-0.75 -0.75 24 24" height="24" width="24"><defs></defs><title>css-1</title><path d="M2.098125 0.706875h18.28125s1.40625 0 1.40625 1.40625v18.28125s0 1.40625 -1.40625 1.40625h-18.28125s-1.40625 0 -1.40625 -1.40625v-18.28125s0 -1.40625 1.40625 -1.40625" fill="none" stroke="currentcolor" stroke-linecap="round" stroke-linejoin="round" stroke-width="1.5"></path><path d="M7.0200000000000005 9.84375a2.8125 2.8125 0 0 0 -2.8125 2.8125V14.0625a2.8125 2.8125 0 0 0 2.8125 2.8125" fill="none" stroke="currentcolor" stroke-linecap="round" stroke-linejoin="round" stroke-width="1.5"></path><path d="M12.645 9.84375h-1.40625a1.40625 1.40625 0 0 0 -1.40625 1.40625c0 2.109375 2.8125 2.109375 2.8125 4.21875a1.40625 1.40625 0 0 1 -1.40625 1.40625h-1.40625" fill="none" stroke="currentcolor" stroke-linecap="round" stroke-linejoin="round" stroke-width="1.5"></path><path d="M18.27 9.84375h-1.40625a1.40625 1.40625 0 0 0 -1.40625 1.40625c0 2.109375 2.8125 2.109375 2.8125 4.21875a1.40625 1.40625 0 0 1 -1.40625 1.40625h-1.40625" fill="none" stroke="currentcolor" stroke-linecap="round" stroke-linejoin="round" stroke-width="1.5"></path></svg>