<svg xmlns="http://www.w3.org/2000/svg" viewBox="0 0 24 24" height="24" width="24"><path d="M22.5 4.5h-21A1.5 1.5 0 0 0 0 6v12a1.5 1.5 0 0 0 1.5 1.5h21A1.5 1.5 0 0 0 24 18V6a1.5 1.5 0 0 0 -1.5 -1.5Zm-14 9.88a0.63 0.63 0 0 1 0 1.25 3.63 3.63 0 0 1 0 -7.25 0.63 0.63 0 0 1 0 1.25 2.38 2.38 0 1 0 0 4.75Zm2.93 -3.51 1.84 1.22a1.94 1.94 0 0 1 -1.07 3.54h-1.7a0.63 0.63 0 0 1 0 -1.25h1.7a0.68 0.68 0 0 0 0.37 -1.25l-1.84 -1.22a1.94 1.94 0 0 1 -0.85 -1.61 1.92 1.92 0 0 1 1.92 -1.92h1.7a0.63 0.63 0 0 1 0 1.25h-1.7a0.68 0.68 0 0 0 -0.68 0.67 0.69 0.69 0 0 0 0.31 0.57Zm5 0 1.84 1.22a1.94 1.94 0 0 1 -1.07 3.54h-1.7a0.63 0.63 0 0 1 0 -1.25h1.7a0.68 0.68 0 0 0 0.37 -1.25l-1.84 -1.22a1.94 1.94 0 0 1 -0.85 -1.61 1.92 1.92 0 0 1 1.92 -1.92h1.7a0.63 0.63 0 0 1 0 1.25h-1.7a0.68 0.68 0 0 0 -0.68 0.67 0.69 0.69 0 0 0 0.31 0.57Z" fill="currentcolor" stroke-width="1"></path></svg>