<svg viewBox="-0.75 -0.75 24 24" xmlns="http://www.w3.org/2000/svg" height="24" width="24"><path d="m1.395 3.519375 19.6875 0" fill="none" stroke="currentcolor" stroke-linecap="round" stroke-linejoin="round" stroke-width="1.5"></path><path d="m1.395 18.988125 19.6875 0" fill="none" stroke="currentcolor" stroke-linecap="round" stroke-linejoin="round" stroke-width="1.5"></path><path d="M7.0200000000000005 7.738124999999999a2.8125 2.8125 0 0 0 -2.8125 2.8125v1.40625a2.8125 2.8125 0 0 0 2.8125 2.8125" fill="none" stroke="currentcolor" stroke-linecap="round" stroke-linejoin="round" stroke-width="1.5"></path><path d="M12.645 7.738124999999999h-1.40625a1.40625 1.40625 0 0 0 -1.40625 1.40625c0 2.109375 2.8125 2.109375 2.8125 4.21875a1.40625 1.40625 0 0 1 -1.40625 1.40625h-1.40625" fill="none" stroke="currentcolor" stroke-linecap="round" stroke-linejoin="round" stroke-width="1.5"></path><path d="M18.27 7.738124999999999h-1.40625a1.40625 1.40625 0 0 0 -1.40625 1.40625c0 2.109375 2.8125 2.109375 2.8125 4.21875a1.40625 1.40625 0 0 1 -1.40625 1.40625h-1.40625" fill="none" stroke="currentcolor" stroke-linecap="round" stroke-linejoin="round" stroke-width="1.5"></path></svg>