<svg version="1.1" viewBox="0 0 30 30" xmlns="http://www.w3.org/2000/svg" xmlns:xlink="http://www.w3.org/1999/xlink">
	<path d="M27.744,2.5h-25.488c-0.968,0 -1.756,0.788 -1.756,1.755v17.489c0,0.968 0.788,1.755 1.756,1.755h12.244v3h-5.5c-0.276,0 -0.5,0.224 -0.5,0.5c0,0.276 0.224,0.5 0.5,0.5h12c0.276,0 0.5,-0.224 0.5,-0.5c0,-0.276 -0.224,-0.5 -0.5,-0.5h-5.5v-3h12.244c0.968,0 1.756,-0.788 1.756,-1.755v-17.489c0,-0.967 -0.788,-1.755 -1.756,-1.755Zm-1.244,18h-23v-15h23v15Z" fill="currentColor"></path>
</svg>
