<svg version="1.1" viewBox="0 0 16 16" xmlns="http://www.w3.org/2000/svg" xmlns:xlink="http://www.w3.org/1999/xlink">
	<g fill="currentColor" fill-rule="evenodd">
		<path d="M2,8l5.32907e-15,7.54979e-08c-4.16963e-08,-0.276142 0.223858,-0.5 0.5,-0.5h11l-2.18557e-08,8.88178e-16c0.276142,-1.20706e-08 0.5,0.223858 0.5,0.5c1.20706e-08,0.276142 -0.223858,0.5 -0.5,0.5h-11l-2.78181e-08,-3.55271e-15c-0.276142,-4.49893e-08 -0.5,-0.223858 -0.5,-0.5Zm6,-1.5l-2.18557e-08,-8.88178e-16c0.276142,1.20706e-08 0.5,-0.223858 0.5,-0.5v-4.5v0c0,-0.276142 -0.223858,-0.5 -0.5,-0.5c-0.276142,0 -0.5,0.223858 -0.5,0.5v4.5l5.32907e-15,7.54979e-08c4.16963e-08,0.276142 0.223858,0.5 0.5,0.5Z"></path>
		<path d="M10.354,3.854l2.23014e-08,-2.2245e-08c0.195509,-0.195015 0.195909,-0.511597 0.000893739,-0.707106c-0.000297551,-0.000298304 -0.000595479,-0.000596232 -0.000893784,-0.000893784l-2,-2l4.41373e-09,4.4249e-09c-0.195015,-0.195509 -0.511597,-0.195909 -0.707106,-0.000893793c-0.000298304,0.000297551 -0.000596232,0.000595479 -0.000893784,0.000893784l-2,2l-2.1107e-09,2.1107e-09c-0.195509,0.195509 -0.195509,0.512491 4.22141e-09,0.708c0.195509,0.195509 0.512491,0.195509 0.708,-4.22141e-09l1.646,-1.647l1.646,1.647l-3.52833e-08,-3.53726e-08c0.195015,0.195509 0.511597,0.195909 0.707106,0.000893854c0.000298304,-0.000297551 0.000596233,-0.000595479 0.000893784,-0.000893784Zm-2.354,5.646h-2.18557e-08c0.276142,-1.20706e-08 0.5,0.223858 0.5,0.5v4.5v0c0,0.276142 -0.223858,0.5 -0.5,0.5c-0.276142,0 -0.5,-0.223858 -0.5,-0.5v-4.5l5.32907e-15,7.54979e-08c-4.16963e-08,-0.276142 0.223858,-0.5 0.5,-0.5Z"></path>
		<path d="M10.354,12.146l2.23014e-08,2.2245e-08c0.195509,0.195015 0.195909,0.511597 0.000893739,0.707106c-0.000297551,0.000298304 -0.000595479,0.000596232 -0.000893784,0.000893784l-2,2l4.41373e-09,-4.4249e-09c-0.195015,0.195509 -0.511597,0.195909 -0.707106,0.000893793c-0.000298304,-0.000297551 -0.000596232,-0.000595479 -0.000893784,-0.000893784l-2,-2l-2.1107e-09,-2.1107e-09c-0.195509,-0.195509 -0.195509,-0.512491 4.22141e-09,-0.708c0.195509,-0.195509 0.512491,-0.195509 0.708,4.22141e-09l1.646,1.647l1.646,-1.647l-3.52833e-08,3.53726e-08c0.195015,-0.195509 0.511597,-0.195909 0.707106,-0.000893854c0.000298304,0.000297551 0.000596233,0.000595479 0.000893784,0.000893784Z"></path>
	</g>
</svg>
