<svg version="1.1" viewBox="0 0 16 16" xmlns="http://www.w3.org/2000/svg" xmlns:xlink="http://www.w3.org/1999/xlink">
	<g fill="currentColor" fill-rule="evenodd">
		<path d="M0.5,8h-2.18557e-08c0.276142,-1.20706e-08 0.5,0.223858 0.5,0.5v3.5l1.06581e-14,1.50996e-07c8.33927e-08,0.552285 0.447715,1 1,1h12l-4.37114e-08,-3.55271e-15c0.552285,2.41411e-08 1,-0.447715 1,-1v-3.5l3.55271e-15,-4.56956e-08c4.16963e-08,-0.276142 0.223858,-0.5 0.5,-0.5c0.276142,4.16963e-08 0.5,0.223858 0.5,0.5v3.5v0c0,1.10457 -0.895431,2 -2,2h-12l-8.74228e-08,-3.55271e-15c-1.10457,-4.82823e-08 -2,-0.895431 -2,-2c0,0 0,0 0,0v-3.5l5.32907e-15,7.54979e-08c-4.16963e-08,-0.276142 0.223858,-0.5 0.5,-0.5Zm4.5,-3.146l-3.07653e-08,-3.0756e-08c0.19525,0.195191 0.51175,0.195191 0.707,6.15119e-08l2.293,-2.294l2.293,2.293l-1.02237e-08,-1.05854e-08c0.191839,0.198626 0.508374,0.204128 0.707,0.0122882c0.198626,-0.191839 0.204128,-0.508374 0.0122882,-0.707c-0.00402457,-0.00416695 -0.00812126,-0.00826363 -0.0122882,-0.0122882l-2.646,-2.646l4.41373e-09,4.4249e-09c-0.195015,-0.195509 -0.511597,-0.195909 -0.707106,-0.000893793c-0.000298304,0.000297551 -0.000596232,0.000595479 -0.000893784,0.000893784l-2.646,2.646l-5.3249e-08,5.31146e-08c-0.195509,0.195015 -0.195909,0.511597 -0.000893677,0.707106c0.000297551,0.000298304 0.000595479,0.000596232 0.000893784,0.000893784Z"></path>
		<path d="M8,2h-2.18557e-08c0.276142,-1.20706e-08 0.5,0.223858 0.5,0.5v8v0c0,0.276142 -0.223858,0.5 -0.5,0.5c-0.276142,0 -0.5,-0.223858 -0.5,-0.5v-8l4.44089e-15,-5.36422e-08c4.16963e-08,-0.276142 0.223858,-0.5 0.5,-0.5Z"></path>
	</g>
</svg>
