<svg version="1.1" viewBox="0 0 30 30" xmlns="http://www.w3.org/2000/svg" xmlns:xlink="http://www.w3.org/1999/xlink">
	<path d="M15,0c-8.3,0 -15,6.7 -15,15c0,8.3 6.7,15 15,15c8.3,0 15,-6.7 15,-15c0,-8.3 -6.7,-15 -15,-15Zm5.5,9c0.8,0 1.5,0.7 1.5,1.5c0,0.8 -0.7,1.5 -1.5,1.5c-0.8,0 -1.5,-0.7 -1.5,-1.5c0,-0.8 0.7,-1.5 1.5,-1.5Zm-11,0c0.8,0 1.5,0.7 1.5,1.5c0,0.8 -0.7,1.5 -1.5,1.5c-0.8,0 -1.5,-0.7 -1.5,-1.5c0,-0.8 0.7,-1.5 1.5,-1.5Zm13,14.9c-0.2,0.1 -0.5,0.1 -0.7,-0.2c-1.5,-2.3 -4,-3.7 -6.7,-3.7c-2.8,0 -5.3,1.4 -6.8,3.7c-0.1,0.2 -0.3,0.3 -0.5,0.3c-0.1,0 -0.2,0 -0.3,-0.1c-0.2,-0.1 -0.3,-0.5 -0.2,-0.7c1.8,-2.6 4.6,-4.2 7.7,-4.2c3.1,0 5.9,1.6 7.6,4.1c0.2,0.3 0.1,0.6 -0.1,0.8Z" fill="currentColor"></path>
</svg>
