<svg version="1.1" viewBox="0 0 24 24" xmlns="http://www.w3.org/2000/svg" xmlns:xlink="http://www.w3.org/1999/xlink"><path d="M14.204,0.043c-0.217,-0.097 -0.472,-0.027 -0.61,0.166l-10,14c-0.108,0.152 -0.124,0.352 -0.038,0.52c0.085,0.165 0.257,0.271 0.445,0.271h7.376l-1.864,8.391c-0.052,0.232 0.067,0.469 0.284,0.566c0.216,0.099 0.474,0.026 0.61,-0.166l10,-14c0.109,-0.151 0.123,-0.352 0.038,-0.519c-0.086,-0.168 -0.258,-0.272 -0.445,-0.272h-7.377l1.865,-8.392c0.052,-0.232 -0.068,-0.468 -0.284,-0.565Z" fill="currentColor"></path><path fill="none" d="M0,0h24v24h-24Z"></path></svg>
