<svg version="1.1" viewBox="0 0 512 512" xmlns="http://www.w3.org/2000/svg" xmlns:xlink="http://www.w3.org/1999/xlink">
	<g fill="currentColor">
		<path d="M408,96h-155.89l5.76213e-07,-1.84575e-09c-4.73503,0.0151674 -9.36778,-1.37709 -13.31,-4l-27.8,-18.59l5.64185e-07,3.77271e-07c-9.20572,-6.15587 -20.0357,-9.43167 -31.11,-9.41h-75.89l6.94458e-08,-7.4273e-11c-30.9142,0.0330692 -55.9669,25.0858 -56,56v24h416c0,-30.88 -25.12,-48 -56,-48Z"></path>
		<path d="M423.75,448h-335.5l6.67985e-07,7.58064e-10c-30.5718,-0.0346928 -55.466,-24.5817 -55.93,-55.15l-16.14,-164.74v-0.28l-6.23766e-07,-7.7925e-06c-2.11525,-26.4251 17.5918,-49.5617 44.017,-51.677c1.26516,-0.101272 2.53384,-0.152325 3.80305,-0.153037h384.1l-1.29778e-07,-1.2696e-10c26.5097,0.0259314 47.979,21.5373 47.953,48.0469c-0.00123501,1.26255 -0.0522827,2.52455 -0.153024,3.78307v0.28l-16.22,164.74l1.97122e-06,-0.000129869c-0.463945,30.5683 -25.3581,55.1154 -55.9299,55.1501Zm56.15,-221.45v0Z"></path>
	</g>
</svg>
