<svg version="1.1" viewBox="0 0 30 30" xmlns="http://www.w3.org/2000/svg" xmlns:xlink="http://www.w3.org/1999/xlink">
	<path d="M21.304,1.717c-2.397,0 -4.664,0.948 -6.304,2.62c-1.64,-1.672 -3.907,-2.62 -6.304,-2.62c-4.795,4.44089e-16 -8.696,3.774 -8.696,8.413c0,2.098 0.876,4.15 2.534,5.936c2.881,3.103 12.025,11.986 12.118,12.076c0.097,0.094 0.223,0.141 0.348,0.141c0.125,0 0.251,-0.047 0.348,-0.141c0.092,-0.089 9.237,-8.973 12.118,-12.076c1.658,-1.786 2.534,-3.838 2.534,-5.936c0,-4.639 -3.901,-8.413 -8.696,-8.413Zm-12.804,3c-3.033,0 -5.5,2.467 -5.5,5.5c0,0.276 -0.224,0.5 -0.5,0.5c-0.276,0 -0.5,-0.224 -0.5,-0.5c0,-3.584 2.916,-6.5 6.5,-6.5c0.276,0 0.5,0.224 0.5,0.5c0,0.276 -0.224,0.5 -0.5,0.5Z" fill="currentColor"></path>
</svg>
