<svg version="1.1" viewBox="0 0 16 16" xmlns="http://www.w3.org/2000/svg" xmlns:xlink="http://www.w3.org/1999/xlink">
	<path d="M16,8v0c0,4.41828 -3.58172,8 -8,8c-4.41828,0 -8,-3.58172 -8,-8l9.14824e-14,1.20797e-06c-6.67141e-07,-4.41828 3.58172,-8 8,-8c4.41828,-6.67141e-07 8,3.58172 8,8c0,0 0,7.10543e-15 0,7.10543e-15Zm-9.43,-1.967h-1.32c-0.03,-1.886 1.43,-2.533 2.756,-2.533c1.397,0 2.673,0.73 2.673,2.24c0,1.08 -0.635,1.594 -1.244,2.057c-0.737,0.559 -1.01,0.768 -1.01,1.486v0.355h-1.308l-0.007,-0.463c-0.038,-0.927 0.495,-1.498 1.168,-1.987c0.59,-0.444 0.965,-0.736 0.965,-1.371c0,-0.825 -0.628,-1.168 -1.314,-1.168c-0.901,0 -1.358,0.603 -1.358,1.384Zm1.251,6.443c-0.584,0 -1.009,-0.394 -1.009,-0.927c0,-0.552 0.425,-0.94 1.01,-0.94c0.609,0 1.028,0.388 1.028,0.94c0,0.533 -0.42,0.927 -1.029,0.927Z" fill="currentColor" fill-rule="evenodd"></path>
</svg>
