<svg version="1.1" viewBox="0 0 30 30" xmlns="http://www.w3.org/2000/svg" xmlns:xlink="http://www.w3.org/1999/xlink">
	<g fill="currentColor">
		<path d="M30,26.6c0,-0.1 0,-0.1 0,0v-23.1c0,-0.3 -0.2,-0.5 -0.5,-0.5h-29c-0.3,0 -0.5,0.2 -0.5,0.5v23c0,0 0,0 0,0c0,0 0,0.1 0,0.1c0,0 0,0.1 0,0.1c0,0 0,0.1 0.1,0.1c0,0 0,0.1 0.1,0.1c0,0 0,0 0,0c0,0 0,0 0,0c0,0 0.1,0 0.1,0c0,0 0.1,0 0.1,0c0,0 0,0 0.1,0h29c0.1,0 0.2,0 0.2,-0.1c0,0 0,0 0,0c0,0 0,0 0,0c0,0 0.1,0 0.1,-0.1c0,0 0,0 0.1,-0.1c0.1,-0.1 0.1,0.1 0.1,0c0,0 0,0 0,0Zm-1,-22.6v20.7l-10.1,-16.5c-0.1,-0.1 -0.2,-0.2 -0.4,-0.2c-0.2,0 -0.3,0.1 -0.4,0.3l-4.7,8.4l-3.5,-3.5c-0.2,-0.2 -0.3,-0.2 -0.4,-0.2c-0.1,0 -0.3,0.1 -0.4,0.2l-8.1,11.7v-20.9h28Z"></path>
		<path d="M13.1213,6.87868c1.17157,1.17157 1.17157,3.07107 0,4.24264c-1.17157,1.17157 -3.07107,1.17157 -4.24264,0c-1.17157,-1.17157 -1.17157,-3.07107 0,-4.24264c1.17157,-1.17157 3.07107,-1.17157 4.24264,-8.88178e-16"></path>
	</g>
</svg>
