<svg version="1.1" viewBox="0 0 24 24" xmlns="http://www.w3.org/2000/svg" xmlns:xlink="http://www.w3.org/1999/xlink"><g fill="currentColor"><path d="M13.5,11.332c-0.548,0 -0.996,-0.442 -1,-0.991c-0.007,-0.872 0.352,-1.575 1.052,-1.979c0.48,-0.278 1.084,-0.356 1.9,-0.362l4.548,0.003c2.251,0 3.983,1.046 4,3.245v3.598c0.011,1.422 -0.724,2.172 -1.343,2.551c-0.656,0.402 -1.515,0.595 -2.625,0.604c-2.799,0 2.683,0 -4.532,0c-1.027,0 -2.984,-0.002 -3,-1.998c-0.004,-0.551 0.463,-0.996 1.015,-1c0.506,-0.005 0.922,0.26 0.985,0.997l5.515,0.006c0.972,-0.006 1.992,-0.17 1.985,-1.145v-3.597c-0.008,-1.133 -1.072,-1.266 -2,-1.263h-5.5c0,0 0,0 0,0.324c0,0.552 -0.448,1.002 -1,1.007Z"></path><path d="M10.5,11.332c0.548,0 0.996,-0.442 1,-0.991c0.007,-0.872 -0.352,-1.575 -1.052,-1.979c-0.48,-0.277 -1.085,-0.356 -1.901,-0.362l-4.547,0.003c-2.252,0 -3.983,1.046 -4,3.245v3.598c-0.011,1.422 0.724,2.172 1.343,2.551c0.655,0.401 1.515,0.595 2.625,0.603c2.799,0 -2.683,0 4.532,0c1.027,0 2.984,-0.002 3,-1.998c0.004,-0.551 -0.463,-0.996 -1.015,-1c-0.506,-0.004 -0.923,0.261 -0.985,0.998l-5.515,0.006c-0.972,-0.006 -1.992,-0.17 -1.985,-1.145v-3.597c0.008,-1.133 1.072,-1.266 2,-1.264h5.5c0,0 0,0 0,0.324c0,0.553 0.448,1.003 1,1.008Z"></path><path d="M17.969,13c0,-0.552 -0.448,-1 -1,-1h-10c-0.552,0 -1,0.448 -1,1c0,0.552 0.448,1 1,1h10c0.552,0 1,-0.448 1,-1Z"></path></g><path fill="none" d="M0,0h24v24h-24Z"></path></svg>
