<svg version="1.1" viewBox="0 0 24 24" xmlns="http://www.w3.org/2000/svg" xmlns:xlink="http://www.w3.org/1999/xlink"><path d="M17.5,5c-5.718,0 -6.862,11 -11,11c-2.481,0 -4.5,-2.019 -4.5,-4.5c0,-2.481 2.019,-4.5 4.5,-4.5c0.975,0.002 1.89,0.509 2.705,1.506c0.35,0.427 0.979,0.49 1.406,0.142c0.428,-0.35 0.491,-0.98 0.142,-1.407c-1.195,-1.464 -2.674,-2.238 -4.253,-2.241c-3.584,0 -6.5,2.916 -6.5,6.5c0,3.584 2.916,6.5 6.5,6.5c5.75,0 6.877,-11 11,-11c2.481,0 4.5,2.019 4.5,4.5c0,2.481 -2.019,4.5 -4.5,4.5c-1.395,-0.003 -2.565,-0.826 -3.299,-1.536c-0.396,-0.385 -1.029,-0.375 -1.414,0.022c-0.384,0.397 -0.374,1.03 0.023,1.414c0.998,0.966 2.628,2.096 4.689,2.1c3.584,0 6.5,-2.916 6.5,-6.5c0,-3.584 -2.915,-6.5 -6.499,-6.5Z"></path><path fill="none" d="M0,0h24v24h-24Z"></path></svg>
