<svg version="1.1" viewBox="0 0 16 16" xmlns="http://www.w3.org/2000/svg" xmlns:xlink="http://www.w3.org/1999/xlink">
	<path d="M3,9.5l-6.55671e-08,-1.77636e-15c-0.828427,-3.62117e-08 -1.5,-0.671573 -1.5,-1.5c3.62117e-08,-0.828427 0.671573,-1.5 1.5,-1.5l-6.55671e-08,1.77636e-15c0.828427,-3.62117e-08 1.5,0.671573 1.5,1.5c3.62117e-08,0.828427 -0.671573,1.5 -1.5,1.5Zm5,0l-6.55671e-08,-1.77636e-15c-0.828427,-3.62117e-08 -1.5,-0.671573 -1.5,-1.5c3.62117e-08,-0.828427 0.671573,-1.5 1.5,-1.5l-6.55671e-08,1.77636e-15c0.828427,-3.62117e-08 1.5,0.671573 1.5,1.5c3.62117e-08,0.828427 -0.671573,1.5 -1.5,1.5Zm5,0l-6.55671e-08,-1.77636e-15c-0.828427,-3.62117e-08 -1.5,-0.671573 -1.5,-1.5c3.62117e-08,-0.828427 0.671573,-1.5 1.5,-1.5l-6.55671e-08,1.77636e-15c0.828427,-3.62117e-08 1.5,0.671573 1.5,1.5c3.62117e-08,0.828427 -0.671573,1.5 -1.5,1.5Z" fill="currentColor" fill-rule="evenodd"></path>
</svg>
