<svg version="1.1" viewBox="0 0 30 30" xmlns="http://www.w3.org/2000/svg" xmlns:xlink="http://www.w3.org/1999/xlink">
	<path d="M24,17.5v-7.5c0,-0.8 -0.7,-1.5 -1.5,-1.5c-0.8,0 -1.5,0.7 -1.5,1.5v1c0,0.3 -0.2,0.5 -0.5,0.5c-0.3,0 -0.5,-0.2 -0.5,-0.5v-1v-2c0,-0.8 -0.7,-1.5 -1.5,-1.5c-0.8,0 -1.5,0.7 -1.5,1.5v2c0,0.3 -0.2,0.5 -0.5,0.5c-0.3,0 -0.5,-0.2 -0.5,-0.5v-2v-1c0,-0.8 -0.7,-1.5 -1.5,-1.5c-0.8,0 -1.5,0.7 -1.5,1.5v1v2c0,0.3 -0.2,0.5 -0.5,0.5c-0.3,0 -0.5,-0.2 -0.5,-0.5v-2c0,-0.8 -0.7,-1.5 -1.5,-1.5c-0.8,0 -1.5,0.7 -1.5,1.5v6c0,0.3 -0.2,0.5 -0.5,0.5c-0.3,0 -0.5,-0.2 -0.5,-0.5v-1.9l-1,0.9c-0.7,0.6 -1,1.4 -1,2.3v1.9c0,0.9 0.4,1.7 1,2.3l2.7,2.5c1.7,1.6 4.1,2.5 6.6,2.5c4.3,0 7.7,-3.1 7.7,-7Z" fill="currentColor"></path>
</svg>
