<svg version="1.1" viewBox="0 0 16 16" xmlns="http://www.w3.org/2000/svg" xmlns:xlink="http://www.w3.org/1999/xlink">
	<g fill="currentColor" fill-rule="evenodd">
		<path d="M1.5,13l1.77636e-14,2.26494e-07c1.25089e-07,0.828427 0.671573,1.5 1.5,1.5h8l-6.55671e-08,-1.77636e-15c0.828427,3.62117e-08 1.5,-0.671573 1.5,-1.5v-4v0c0,-0.276142 -0.223858,-0.5 -0.5,-0.5c-0.276142,0 -0.5,0.223858 -0.5,0.5v4v0c0,0.276142 -0.223858,0.5 -0.5,0.5h-8h-2.18557e-08c-0.276142,-1.20706e-08 -0.5,-0.223858 -0.5,-0.5c0,0 0,-1.77636e-15 0,-1.77636e-15v-8l5.32907e-15,7.54979e-08c-4.16963e-08,-0.276142 0.223858,-0.5 0.5,-0.5h4l-2.18557e-08,-8.88178e-16c0.276142,1.20706e-08 0.5,-0.223858 0.5,-0.5c1.20706e-08,-0.276142 -0.223858,-0.5 -0.5,-0.5h-4l-6.55671e-08,1.33227e-15c-0.828427,3.62117e-08 -1.5,0.671573 -1.5,1.5v8Zm7,-11l5.32907e-15,7.54979e-08c-4.16963e-08,-0.276142 0.223858,-0.5 0.5,-0.5h5l-2.18557e-08,8.88178e-16c0.276142,-1.20706e-08 0.5,0.223858 0.5,0.5v5v0c0,0.276142 -0.223858,0.5 -0.5,0.5c-0.276142,0 -0.5,-0.223858 -0.5,-0.5v-4.5h-4.5l-2.18557e-08,-4.44089e-16c-0.276142,-1.20706e-08 -0.5,-0.223858 -0.5,-0.5c0,0 0,-2.22045e-16 0,-2.22045e-16Z"></path>
		<path d="M14.354,1.646l2.23014e-08,2.2245e-08c0.195509,0.195015 0.195909,0.511597 0.000893739,0.707106c-0.000297551,0.000298304 -0.000595479,0.000596232 -0.000893784,0.000893784l-8,8l3.44632e-08,-3.44632e-08c-0.195509,0.195509 -0.512491,0.195509 -0.708,6.89263e-08c-0.195509,-0.195509 -0.195509,-0.512491 -6.89263e-08,-0.708l8,-8l-3.52833e-08,3.53726e-08c0.195015,-0.195509 0.511597,-0.195909 0.707106,-0.000893854c0.000298304,0.000297551 0.000596233,0.000595479 0.000893784,0.000893784Z"></path>
	</g>
</svg>
