<svg version="1.1" viewBox="0 0 30 30" xmlns="http://www.w3.org/2000/svg" xmlns:xlink="http://www.w3.org/1999/xlink">
	<path d="M15,0c-8.3,0 -15,6.7 -15,15c0,8.3 6.7,15 15,15c8.3,0 15,-6.7 15,-15c0,-8.3 -6.7,-15 -15,-15Zm-5.5,9c0.8,0 1.5,0.7 1.5,1.5c0,0.8 -0.7,1.5 -1.5,1.5c-0.8,0 -1.5,-0.7 -1.5,-1.5c0,-0.8 0.7,-1.5 1.5,-1.5Zm12.1,11l-13,2c0,0 -0.1,0 -0.1,0c-0.2,0 -0.5,-0.2 -0.5,-0.4c0,-0.3 0.2,-0.6 0.4,-0.6l13,-2c0.3,0 0.5,0.1 0.6,0.4c0,0.3 -0.2,0.6 -0.4,0.6Zm-1.1,-8c-0.8,0 -1.5,-0.7 -1.5,-1.5c0,-0.8 0.7,-1.5 1.5,-1.5c0.8,0 1.5,0.7 1.5,1.5c0,0.8 -0.7,1.5 -1.5,1.5Z" fill="currentColor"></path>
</svg>
