<svg version="1.1" viewBox="0 0 512 512" xmlns="http://www.w3.org/2000/svg" xmlns:xlink="http://www.w3.org/1999/xlink"><g><path d="M64,144h226.75l-1.28827e-06,-3.64029e-06c8.8441,24.9909 36.2728,38.0804 61.2637,29.2363c13.6584,-4.83361 24.4027,-15.5779 29.2363,-29.2363h66.75l-6.99382e-07,-2.84217e-14c8.83656,3.86258e-07 16,-7.16344 16,-16c3.86258e-07,-8.83656 -7.16344,-16 -16,-16h-66.75l1.79729e-06,5.07863e-06c-8.8441,-24.9909 -36.2728,-38.0804 -61.2637,-29.2363c-13.6584,4.83361 -24.4027,15.5779 -29.2363,29.2363h-226.75l-6.99382e-07,1.42109e-14c-8.83656,3.86258e-07 -16,7.16344 -16,16c3.86258e-07,8.83656 7.16344,16 16,16Z"></path><path d="M448,368h-66.75l1.79729e-06,5.07863e-06c-8.8441,-24.9909 -36.2728,-38.0804 -61.2637,-29.2363c-13.6584,4.83361 -24.4027,15.5779 -29.2363,29.2363h-226.75h-6.99382e-07c-8.83656,3.86258e-07 -16,7.16344 -16,16c3.86258e-07,8.83656 7.16344,16 16,16h226.75l-1.28827e-06,-3.64029e-06c8.8441,24.9909 36.2728,38.0804 61.2637,29.2363c13.6584,-4.83361 24.4027,-15.5779 29.2363,-29.2363h66.75h-6.99382e-07c8.83656,3.86258e-07 16,-7.16344 16,-16c3.86258e-07,-8.83656 -7.16344,-16 -16,-16Z"></path><path d="M448,240h-226.75l1.79729e-06,5.07863e-06c-8.8441,-24.9909 -36.2728,-38.0804 -61.2637,-29.2363c-13.6584,4.83361 -24.4027,15.5779 -29.2363,29.2363h-66.75h-2.50326e-08c-8.83656,3.86258e-07 -16,7.16344 -16,16c3.86258e-07,8.83656 7.16344,16 16,16h66.75l-1.28827e-06,-3.64029e-06c8.8441,24.9909 36.2728,38.0804 61.2637,29.2363c13.6584,-4.83361 24.4027,-15.5779 29.2363,-29.2363h226.75h-6.99382e-07c8.83656,3.86258e-07 16,-7.16344 16,-16c3.86258e-07,-8.83656 -7.16344,-16 -16,-16Z"></path></g></svg>
