<svg version="1.1" viewBox="0 0 512 512" xmlns="http://www.w3.org/2000/svg" xmlns:xlink="http://www.w3.org/1999/xlink"><g transform="matrix(1,0,0,1,0,512)"><path fill="none" stroke="currentColor" stroke-linecap="round" stroke-linejoin="round" stroke-width="32" d="M176,496c-26.5094,0 -48,-21.4906 -48,-48v-384c0,-26.5094 21.4906,-48 48,-48h160c26.5094,0 48,21.4906 48,48v384c0,26.5094 -21.4906,48 -48,48Z" transform="matrix(6.12323e-17,-1,1,6.12323e-17,0,0)"></path></g><path d="M16,336v-24l9.23706e-14,1.20797e-06c-6.67141e-07,-4.41828 3.58172,-8 8,-8v0h-6.99382e-07c8.83656,3.86258e-07 16,-7.16344 16,-16v-64v0c0,-8.83656 -7.16344,-16 -16,-16v0h-3.49691e-07c-4.41828,-1.93129e-07 -8,-3.58172 -8,-8c0,0 0,-2.84217e-14 0,-2.84217e-14v-24" stroke-linecap="round" stroke-width="32" stroke="currentColor" fill="none" stroke-linejoin="round"></path></svg>
