<svg version="1.1" viewBox="0 0 512 512" xmlns="http://www.w3.org/2000/svg" xmlns:xlink="http://www.w3.org/1999/xlink"><g stroke-linecap="round" stroke-width="32" stroke="currentColor" fill="none" stroke-linejoin="round"><path d="M176,496c-26.5094,0 -48,-21.4906 -48,-48v-384c0,-26.5094 21.4906,-48 48,-48h160c26.5094,0 48,21.4906 48,48v384c0,26.5094 -21.4906,48 -48,48Z"></path><path d="M176,16h24l-3.49691e-07,7.10543e-15c4.41828,-1.93129e-07 8,3.58172 8,8v0l1.7053e-13,2.41593e-06c1.33428e-06,8.83656 7.16345,16 16,16h64l-6.99382e-07,-1.42109e-14c8.83656,3.86258e-07 16,-7.16344 16,-16v0l1.13687e-13,1.20797e-06c-6.67141e-07,-4.41828 3.58172,-8 8,-8h24"></path></g></svg>
