<svg version="1.1" viewBox="0 0 24 24" xmlns="http://www.w3.org/2000/svg" xmlns:xlink="http://www.w3.org/1999/xlink"><path d="M16,17.499v-3.792l4.5,-4.5l0.646,0.647c0.196,0.195 0.512,0.195 0.707,0l2,-2c0.195,-0.195 0.196,-0.513 0,-0.708l-7.001,-7.001c-0.195,-0.193 -0.511,-0.193 -0.707,0l-1.999,2.001c-0.195,0.195 -0.195,0.513 0,0.708l0.647,0.646l-4.5,4.5h-3.793c-0.131,0 -0.26,0.053 -0.353,0.144l-1.5,1.5c-0.195,0.196 -0.196,0.514 0,0.709l4.146,4.147l-8.647,8.645c-0.195,0.196 -0.194,0.514 0,0.709c0.195,0.195 0.512,0.195 0.707,0l8.647,-8.647l4.145,4.145c0.195,0.197 0.512,0.197 0.707,0.002l1.5,-1.5c0.095,-0.093 0.148,-0.223 0.148,-0.355Z" fill="currentColor"></path><path fill="none" d="M0,0h24v24h-24Z"></path></svg>
