<svg version="1.1" viewBox="0 0 16 16" xmlns="http://www.w3.org/2000/svg" xmlns:xlink="http://www.w3.org/1999/xlink">
	<g fill="currentColor" fill-rule="evenodd">
		<path d="M5.578,4.437l2.50644e-07,-1.38788e-07c-2.41579,1.33769 -3.28977,4.38048 -1.95209,6.79627c1.33769,2.41579 4.38048,3.28977 6.79627,1.95209c2.41579,-1.33769 3.28977,-4.38048 1.95209,-6.79627c-0.439895,-0.794429 -1.08784,-1.45406 -1.87427,-1.90809l0.5,-0.866l3.73422e-07,2.15676e-07c2.86949,1.65732 3.85214,5.32703 2.19482,8.19651c-1.65732,2.86949 -5.32703,3.85214 -8.19651,2.19482c-2.86949,-1.65732 -3.85214,-5.32703 -2.19482,-8.19651c0.544695,-0.943084 1.33581,-1.72013 2.28851,-2.24782l0.486,0.875Z"></path>
		<path d="M7.5,8v-7h1v7h-1Z"></path>
	</g>
</svg>
