<svg version="1.1" viewBox="0 0 16 16" xmlns="http://www.w3.org/2000/svg" xmlns:xlink="http://www.w3.org/1999/xlink">
	<path d="M16,8v0c0,4.41828 -3.58172,8 -8,8c-4.41828,0 -8,-3.58172 -8,-8l9.05942e-14,1.20797e-06c-6.67141e-07,-4.41828 3.58172,-8 8,-8c4.41828,-6.67141e-07 8,3.58172 8,8c0,0 0,7.10543e-15 0,7.10543e-15Zm-8,-4.5v0c0,-0.276142 -0.223858,-0.5 -0.5,-0.5c-0.276142,0 -0.5,0.223858 -0.5,0.5v5.5l3.81233e-09,1.14153e-05c6.19612e-05,0.179399 0.0962313,0.345016 0.25201,0.433994l3.5,2l-7.07194e-08,-3.82201e-08c0.242934,0.131293 0.546304,0.0407902 0.677597,-0.202143c0.12692,-0.234842 0.0469767,-0.527967 -0.181597,-0.665856l-3.24801,-1.85601v-5.21Z" fill="currentColor" fill-rule="evenodd"></path>
</svg>
