<svg version="1.1" viewBox="0 0 512 512" xmlns="http://www.w3.org/2000/svg" xmlns:xlink="http://www.w3.org/1999/xlink"><path d="M464,428l-124.08,-124.1l4.99117e-06,-6.85889e-06c19.9961,-27.4787 30.7527,-60.5959 30.72,-94.58c8.16203e-09,-88.95 -72.37,-161.32 -161.32,-161.32c-88.95,0 -161.32,72.37 -161.32,161.32c0,88.95 72.37,161.32 161.32,161.32l-1.09225e-06,-1.05092e-09c33.9841,0.0326989 67.1013,-10.7239 94.58,-30.72l124.1,124.08Zm-254.68,-108.31l-4.04769e-06,3.66583e-10c-60.9612,0.00552036 -110.384,-49.4088 -110.39,-110.37c-0.00552036,-60.9612 49.4088,-110.384 110.37,-110.39c60.9612,-0.00552036 110.384,49.4088 110.39,110.37c6.03675e-07,0.00666636 6.03431e-07,0.0133327 -7.33394e-10,0.0199991l3.93609e-06,-0.0033918c-0.0697677,60.926 -49.4406,110.3 -110.367,110.373Z"></path></svg>
