<svg version="1.1" viewBox="3 -3 30 30" xmlns="http://www.w3.org/2000/svg" xmlns:xlink="http://www.w3.org/1999/xlink">
	<path d="M32.707,25.293l-9.406,-9.406c1.682,-2 2.699,-4.576 2.699,-7.387c0,-6.341 -5.159,-11.5 -11.5,-11.5c-6.341,0 -11.5,5.159 -11.5,11.5c0,6.341 5.159,11.5 11.5,11.5c2.811,0 5.387,-1.017 7.387,-2.699l9.406,9.406c0.195,0.195 0.451,0.293 0.707,0.293c0.256,0 0.512,-0.098 0.707,-0.293c0.391,-0.391 0.391,-1.023 0,-1.414Zm-18.207,-7.293c-5.238,0 -9.5,-4.262 -9.5,-9.5c0,-5.238 4.262,-9.5 9.5,-9.5c5.238,0 9.5,4.262 9.5,9.5c0,5.238 -4.262,9.5 -9.5,9.5Z" fill="currentColor"></path>
</svg>
