<svg version="1.1" viewBox="0 0 30 30" xmlns="http://www.w3.org/2000/svg" xmlns:xlink="http://www.w3.org/1999/xlink">
	<path d="M29,18.4l-2.8,-2.2c0,-0.3 0.1,-0.8 0.1,-1.2c0,-0.4 0,-0.9 -0.1,-1.2l2.8,-2.2c0.5,-0.4 0.6,-1 0.3,-1.6l-2.9,-5c-0.3,-0.5 -0.9,-0.8 -1.5,-0.5l-3.3,1.3c-0.7,-0.5 -1.3,-0.9 -2.1,-1.2l-0.4,-3.6c-0.1,-0.6 -0.6,-1 -1.2,-1h-5.8c-0.6,0 -1.1,0.4 -1.2,1l-0.5,3.6c-0.7,0.3 -1.4,0.7 -2,1.2l-3.4,-1.3c-0.5,-0.3 -1.2,0 -1.5,0.5l-2.9,5c-0.3,0.5 -0.2,1.2 0.3,1.6l2.8,2.2c0,0.5 -0.1,0.8 -0.1,1.2c0,0.4 0,0.7 0.1,1.2l-2.7,2.2c-0.5,0.4 -0.6,1 -0.3,1.6l2.9,5c0.3,0.5 0.9,0.8 1.5,0.5l3.3,-1.3c0.7,0.5 1.3,0.9 2.1,1.2l0.5,3.6c0.1,0.6 0.6,1 1.2,1h5.8c0.6,0 1.1,-0.4 1.2,-1l0.5,-3.6c0.7,-0.3 1.4,-0.7 2,-1.2l3.3,1.3c0.1,0.1 0.3,0.1 0.4,0.1v0c0.4,0 0.8,-0.2 1,-0.6l2.9,-5c0.3,-0.6 0.2,-1.2 -0.3,-1.6Zm-8.9,-3.4c0,2.8 -2.2,5 -5,5c-2.8,0 -5,-2.2 -5,-5c0,-2.8 2.2,-5 5,-5c2.8,0 5,2.2 5,5Z" fill="currentColor"></path>
</svg>
