<svg version="1.1" viewBox="0 0 16 16" xmlns="http://www.w3.org/2000/svg" xmlns:xlink="http://www.w3.org/1999/xlink">
	<g fill="currentColor">
		<path d="M1.5,10c-0.82842,0 -1.5,-0.67158 -1.5,-1.5v-7c0,-0.82842 0.67158,-1.5 1.5,-1.5h13c0.82842,0 1.5,0.67158 1.5,1.5v7c0,0.82842 -0.67158,1.5 -1.5,1.5Z" transform="matrix(1,0,0,-1,0,14.5)"></path>
		<path fill-rule="evenodd" d="M2,3l5.32907e-15,7.54979e-08c4.16963e-08,0.276142 0.223858,0.5 0.5,0.5h11h-2.18557e-08c0.276142,1.20706e-08 0.5,-0.223858 0.5,-0.5c1.20706e-08,-0.276142 -0.223858,-0.5 -0.5,-0.5h-11v0c-0.276142,-5.37669e-08 -0.5,0.223858 -0.5,0.5c-5.32907e-15,3.26915e-08 -8.88178e-15,6.46621e-08 -8.88178e-15,9.73536e-08Zm2,-2l5.32907e-15,7.54979e-08c4.16963e-08,0.276142 0.223858,0.5 0.5,0.5h7l-2.18557e-08,-4.44089e-16c0.276142,1.20706e-08 0.5,-0.223858 0.5,-0.5c1.20706e-08,-0.276142 -0.223858,-0.5 -0.5,-0.5h-7l8.88178e-16,-5.55112e-17c-0.276142,-5.37669e-08 -0.5,0.223858 -0.5,0.5c-6.21725e-15,3.26915e-08 -9.76996e-15,6.46621e-08 -9.76996e-15,9.73536e-08Z"></path>
	</g>
</svg>
