<svg viewBox="0 0 24 24" xmlns="http://www.w3.org/2000/svg"><path d="M3.749 9a8.25 8.25 0 0 1 13.5 -6.364" fill="none" stroke="currentcolor" stroke-linecap="round" stroke-linejoin="round" stroke-width="1.5"></path><path d="M19.687 6a8.23 8.23 0 0 1 0.562 3v6A8.25 8.25 0 0 1 12 23.25a8.336 8.336 0 0 1 -1.5 -0.136" fill="none" stroke="currentcolor" stroke-linecap="round" stroke-linejoin="round" stroke-width="1.5"></path><path d="M6.751 21.365a8.234 8.234 0 0 1 -3 -6.365v-2.25" fill="none" stroke="currentcolor" stroke-linecap="round" stroke-linejoin="round" stroke-width="1.5"></path><path d="M15.749 15V9a3.75 3.75 0 0 0 -6 -3" fill="none" stroke="currentcolor" stroke-linecap="round" stroke-linejoin="round" stroke-width="1.5"></path><path d="M8.249 9v6a3.753 3.753 0 0 0 5.251 3.438" fill="none" stroke="currentcolor" stroke-linecap="round" stroke-linejoin="round" stroke-width="1.5"></path><path d="m11.999 9.75 0 4.5" fill="none" stroke="currentcolor" stroke-linecap="round" stroke-linejoin="round" stroke-width="1.5"></path></svg>
