<svg version="1.1" viewBox="0 0 24 24" xmlns="http://www.w3.org/2000/svg" xmlns:xlink="http://www.w3.org/1999/xlink"><g fill="currentColor"><path d="M19.5,16h-4c-0.552,0 -1,0.448 -1,1c0,0.552 0.448,1 1,1h4c2.607,0 4.5,-2.103 4.5,-5v-1c0,-2.898 -1.893,-5 -4.5,-5h-4c-0.552,0 -1,0.448 -1,1c0,0.552 0.448,1 1,1h4c1.727,0 2.5,1.506 2.5,3v1c0,1.494 -0.773,3 -2.5,3Z"></path><path d="M0,12v1c0,2.897 1.893,5 4.5,5h4c0.552,0 1,-0.448 1,-1c0,-0.552 -0.448,-1 -1,-1h-4c-1.727,0 -2.5,-1.506 -2.5,-3v-1c0,-1.494 0.773,-3 2.5,-3h4c0.552,0 1,-0.448 1,-1c0,-0.552 -0.448,-1 -1,-1h-4c-2.607,0.001 -4.5,2.102 -4.5,5Z"></path><path d="M12,6.001c0.552,0 1,-0.448 1,-1v-3.001c0,-0.552 -0.448,-1 -1,-1c-0.552,0 -1,0.448 -1,1v3c0,0.553 0.448,1.001 1,1.001Z"></path><path d="M11,23c0,0.552 0.448,1 1,1c0.552,0 1,-0.448 1,-1v-3c0,-0.552 -0.448,-1 -1,-1c-0.552,0 -1,0.448 -1,1v3Z"></path><path d="M9.707,5.207v0c-0.392,0.392 -1.024,0.391 -1.414,0l-1.501,-1.5c-0.391,-0.391 -0.391,-1.024 0,-1.415v0c0.391,-0.391 1.024,-0.389 1.415,0l1.5,1.501c0.39,0.39 0.391,1.023 0,1.414Z"></path><path d="M14.293,5.207v0c0.392,0.392 1.024,0.391 1.414,0l1.501,-1.5c0.391,-0.391 0.391,-1.024 0,-1.415v0c-0.391,-0.391 -1.024,-0.389 -1.415,0l-1.5,1.501c-0.39,0.39 -0.391,1.023 0,1.414Z"></path><path d="M9.707,19.793v0c-0.392,-0.391 -1.024,-0.39 -1.414,0l-1.501,1.501c-0.391,0.39 -0.391,1.024 0,1.415v0c0.391,0.391 1.024,0.39 1.415,-0.001l1.5,-1.501c0.39,-0.39 0.391,-1.023 0,-1.414Z"></path><path d="M14.293,19.793v0c0.392,-0.391 1.024,-0.39 1.414,0l1.501,1.501c0.391,0.39 0.391,1.024 0,1.415v0c-0.391,0.391 -1.024,0.39 -1.415,-0.001l-1.5,-1.501c-0.39,-0.39 -0.391,-1.023 0,-1.414Z"></path></g><path fill="none" d="M0,0h24v24h-24Z"></path></svg>
