<svg version="1.1" viewBox="0 0 512 512" xmlns="http://www.w3.org/2000/svg" xmlns:xlink="http://www.w3.org/1999/xlink"><path d="M376,192h-188v-48c0,-18.1 7.1,-35.1 20,-48c12.9,-12.9 29.9,-20 48,-20c18.1,0 35.1,7.1 48,20c12.9,12.9 20,29.9 20,48c0,7.7 6.3,14 14,14c7.7,0 14,-6.3 14,-14c0,-53.2 -43.9,-96.7 -97.3,-96c-52.7,0.7 -94.7,44.5 -94.7,97.3v46.7h-24c-22,0 -40,18 -40,40v192c0,22 18,40 40,40h240c22,0 40,-18 40,-40v-192c0,-22 -18,-40 -40,-40Zm-106,124.8v68.8c0,7.5 -5.8,14 -13.3,14.4c-8,0.4 -14.7,-6 -14.7,-14v-69.2c-11.5,-5.6 -19.1,-17.8 -17.9,-31.7c1.4,-15.5 14.1,-27.9 29.6,-29c18.7,-1.3 34.3,13.5 34.3,31.9c0,12.7 -7.3,23.6 -18,28.8Z" fill="currentColor"></path></svg>
