<svg version="1.1" viewBox="0 0 30 30" xmlns="http://www.w3.org/2000/svg" xmlns:xlink="http://www.w3.org/1999/xlink">
	<path d="M15,0c-8.3,0 -15,6.7 -15,15c0,8.3 6.7,15 15,15c8.3,0 15,-6.7 15,-15c0,-8.3 -6.7,-15 -15,-15Zm0,1c3.3,0 6.3,1.1 8.6,3c0,0 -0.1,0 -0.1,0c-0.8,0 -2.5,0.3 -2.5,3c0,0.9 0.8,1.9 1.8,3.1c1.2,1.5 2.6,3.1 2.3,4.6c-0.4,1 -0.8,1.9 -1.3,2.9c-0.6,1.3 -1.3,2.7 -2.1,4.9l-4.6,-13.8c0.4,-0.1 0.7,-0.2 1.1,-0.3c0.3,-0.1 0.4,-0.4 0.3,-0.6c-0.1,-0.3 -0.4,-0.4 -0.6,-0.3c-1,0.3 -2.4,0.5 -3.3,0.5c-1,0 -2.9,-0.2 -3.8,-0.5c-0.3,-0.1 -0.5,0.1 -0.6,0.3c-0.1,0.3 0.1,0.5 0.3,0.6c0.5,0.2 1.1,0.3 1.7,0.4l2.4,6.7l-2.8,7.8l-4.7,-14.6c0.4,-0.1 0.7,-0.2 1.1,-0.3c0.3,-0.1 0.4,-0.4 0.3,-0.6c-0.1,-0.2 -0.4,-0.4 -0.7,-0.3c-0.9,0.4 -2.4,0.5 -3.3,0.5c-0.6,0 -1.1,-0.1 -1.5,-0.3c2.5,-4 6.9,-6.7 12,-6.7Zm-14,14c0,-2 0.5,-4 1.2,-5.7l6.6,18.3c-4.6,-2.4 -7.8,-7.1 -7.8,-12.6Zm9.8,13.4c0.1,-0.1 0.1,-0.1 0.1,-0.2l4.1,-11.2l4,11.2c0,0.1 0.1,0.1 0.1,0.2c-1.2,0.4 -2.6,0.6 -4.1,0.6c-1.5,0 -2.9,-0.2 -4.2,-0.6Zm10,-0.7c1.7,-5.2 2.9,-7.7 3.9,-9.8c0.4,-0.9 0.8,-1.7 1.2,-2.6c0,-0.1 0.1,-0.1 0.1,-0.2c0,-0.1 0,-0.1 0.1,-0.2c0.2,-0.4 0.3,-0.8 0.4,-1.3c0.7,-2.1 0.9,-3.9 0.8,-5.5c1.1,2 1.8,4.3 1.8,6.8c-0.1,5.8 -3.5,10.6 -8.3,12.8Z" fill="currentColor"></path>
</svg>
