<svg version="1.1" viewBox="0 0 30 30" xmlns="http://www.w3.org/2000/svg" xmlns:xlink="http://www.w3.org/1999/xlink"><path d="M27.5,5h-25c-1.4,0 -2.5,1.1 -2.5,2.5v15c0,1.4 1.1,2.5 2.5,2.5h25c1.4,0 2.5,-1.1 2.5,-2.5v-15c0,-1.4 -1.1,-2.5 -2.5,-2.5Zm-16.7,10.9l-7,6c-0.1,0.1 -0.2,0.1 -0.3,0.1c-0.1,0 -0.3,-0.1 -0.4,-0.2c-0.2,-0.2 -0.2,-0.5 0.1,-0.7l7,-6c0.2,-0.2 0.5,-0.2 0.7,0.1c0.2,0.2 0.1,0.5 -0.1,0.7Zm3.9,0.1c-0.7,0 -1.5,-0.2 -2,-0.6l-9.5,-6.5c-0.2,-0.1 -0.3,-0.5 -0.1,-0.7c0.1,-0.2 0.4,-0.3 0.7,-0.1l9.5,6.5c0.8,0.6 2.1,0.6 2.9,0l10,-6.5c0.2,-0.2 0.5,-0.1 0.7,0.1c0.2,0.2 0.1,0.5 -0.1,0.7l-10,6.5c-0.6,0.4 -1.3,0.6 -2.1,0.6Zm12.2,5.8c-0.1,0.1 -0.2,0.2 -0.4,0.2c-0.1,0 -0.2,0 -0.3,-0.1l-7,-6c-0.2,-0.2 -0.2,-0.5 -0.1,-0.7c0.1,-0.2 0.5,-0.2 0.7,-0.1l7,6c0.2,0.2 0.3,0.5 0.1,0.7Z" fill="#fff"></path></svg>
