<svg version="1.1" viewBox="0 0 512 512" xmlns="http://www.w3.org/2000/svg" xmlns:xlink="http://www.w3.org/1999/xlink"><path d="M455.27,32h-398.54l-1.01757e-06,4.11262e-10c-13.6557,0.00551914 -24.7245,11.0743 -24.73,24.73v398.54l-5.44608e-07,-0.00145325c0.00471643,13.6557 11.0728,24.7251 24.7285,24.7315h199.271v-176h-53.55v-64h53.55v-51c0,-57.86 40.13,-89.36 91.82,-89.36c24.73,0 51.33,1.86 57.51,2.68v60.43h-41.18c-28.12,0 -33.48,13.3 -33.48,32.9v44.35h67l-8.75,64h-58.25v176h124.6l-1.14527e-06,4.62819e-10c13.6557,-0.00551794 24.7245,-11.0743 24.73,-24.73v-398.54l5.45583e-07,0.00145607c-0.00471487,-13.6557 -11.0728,-24.7251 -24.7285,-24.7315Z" fill="#000"></path></svg>
