<svg version="1.1" viewBox="0 0 512 512" xmlns="http://www.w3.org/2000/svg" xmlns:xlink="http://www.w3.org/1999/xlink"><path d="M444.17,32h-373.89c-20.43,0 -38.28,14.7 -38.28,34.89v374.72c0,20.3 17.85,38.39 38.28,38.39h373.78c20.54,0 35.94,-18.21 35.94,-38.39v-374.72c0.12,-20.19 -15.4,-34.89 -35.83,-34.89Zm-273.3,373.43h-64.18v-199.55h64.18Zm-29.87,-229.89h-0.46c-20.54,0 -33.84,-15.29 -33.84,-34.43c0,-19.49 13.65,-34.42 34.65,-34.42c21,0 33.85,14.82 34.31,34.42c-0.01,19.14 -13.31,34.43 -34.66,34.43Zm264.43,229.89h-64.18v-109.11c0,-26.14 -9.34,-44 -32.56,-44c-17.74,0 -28.24,12 -32.91,23.69c-1.75,4.2 -2.22,9.92 -2.22,15.76v113.66h-64.18v-199.55h64.18v27.77c9.34,-13.3 23.93,-32.44 57.88,-32.44c42.13,0 74,27.77 74,87.64Z" fill="#000"></path></svg>
