<svg viewBox="0 0 300 300" xmlns="http://www.w3.org/2000/svg" xmlns:xlink="http://www.w3.org/1999/xlink"><path fill="#fff" stroke="none" d="M 22.046997 135.832001 C 22.046997 135.832001 147.046997 84.531982 190.398987 66.468018 C 207.018005 59.242981 263.376007 36.121002 263.376007 36.121002 C 263.376007 36.121002 289.388 26.005981 287.220001 50.572021 C 286.497009 60.687988 280.71701 96.09198 274.937012 134.386993 C 266.265991 188.578003 256.872986 247.825989 256.872986 247.825989 C 256.872986 247.825989 255.428009 264.445007 243.144989 267.334991 C 230.862 270.225006 210.630005 257.220001 207.018005 254.32901 C 204.127014 252.161987 152.826996 219.647003 134.041 203.751007 C 128.983002 199.415985 123.203003 190.746002 134.763 180.630005 C 160.774994 156.786011 191.843994 127.161987 210.630005 108.376007 C 219.300995 99.705017 227.971008 79.473999 191.843994 104.039978 C 140.544006 139.445007 89.966003 172.682007 89.966003 172.682007 C 89.966003 172.682007 78.404999 179.907013 56.729004 173.403992 C 35.052002 166.902008 9.763 158.230988 9.763 158.230988 C 9.763 158.230988 -7.577003 147.393005 22.046997 135.832001 Z"/></svg>
