<svg version="1.1" viewBox="0 0 30 30" xmlns="http://www.w3.org/2000/svg" xmlns:xlink="http://www.w3.org/1999/xlink"><!--Generated by IJSVG (https://github.com/iconjar/IJSVG)--><path d="M25,16.6v-0.9l4.1,-5.3c0.6,-0.8 0.9,-1.8 0.9,-2.7c0,-1 -0.7,-1.7 -1.7,-1.7h-4.8c-0.6,0 -1.2,0.4 -1.4,0.9c-0.2,0.5 -0.4,1.1 -0.7,1.9c-0.6,1.6 -1.6,4.4 -2.2,4.8c-0.4,0.3 -1.1,0.4 -2,0.4c-0.1,0 -0.1,0 -0.2,0v-6.8c-3.55271e-15,-0.6 -0.6,-1.2 -1.2,-1.2h-5.8c-0.2,0 -0.4,0.2 -0.5,0.4c-0.1,0.2 0.1,0.5 0.3,0.6l0.5,0.3c0.4,0.4 0.7,1 0.7,1.7v4.8c-0.2,0.2 -0.6,0.3 -1,-0.2c-0.9,-0.9 -3.2,-5.6 -4,-7.3c-0.1,-0.2 -0.3,-0.3 -0.5,-0.3h-4c-0.8,0 -1.5,0.7 -1.5,1.5v0.3c0,1.4 0.4,2.9 1,3.9l0.5,0.8c3.5,5.6 7.3,11.5 10,11.5h4c0.8,0 1.5,-0.7 1.5,-1.4v-0.8c0,-0.7 0.6,-1.3 1.3,-1.3c0.3,0 0.7,0.1 0.9,0.4l2.9,2.3c0.5,0.5 1.2,0.8 1.9,0.8h4.6c0.6,0 1.1,-0.3 1.3,-0.9c0.2,-0.5 0.1,-1.1 -0.3,-1.5l-4.6,-5Z" fill="#000"></path></svg>
