<svg version="1.1" viewBox="0 0 512 512" xmlns="http://www.w3.org/2000/svg" xmlns:xlink="http://www.w3.org/1999/xlink"><path d="M260.062,32c-121.457,0 -219.928,97.701 -219.928,218.232c-1.42109e-14,41.23 11.532,79.79 31.559,112.687l-39.693,117.081l121.764,-38.682c31.508,17.285 67.745,27.146 106.298,27.146c121.473,0 219.938,-97.715 219.938,-218.232c0,-120.531 -98.465,-218.232 -219.938,-218.232Zm109.362,301.11c-5.174,12.827 -28.574,24.533 -38.899,25.072c-10.314,0.547 -10.608,7.994 -66.84,-16.434c-56.225,-24.434 -90.052,-83.844 -92.719,-87.67c-2.669,-3.812 -21.78,-31.047 -20.749,-58.455c1.038,-27.413 16.047,-40.346 21.404,-45.725c5.351,-5.387 11.486,-6.352 15.232,-6.413c4.428,-0.072 7.296,-0.132 10.573,-0.011c3.274,0.124 8.192,-0.685 12.45,10.639c4.256,11.323 14.443,39.153 15.746,41.989c1.302,2.839 2.108,6.126 0.102,9.771c-2.012,3.653 -3.042,5.935 -5.961,9.083c-2.935,3.148 -6.174,7.042 -8.792,9.449c-2.92,2.665 -5.97,5.572 -2.9,11.269c3.068,5.693 13.653,24.356 29.779,39.736c20.725,19.771 38.598,26.329 44.098,29.317c5.515,3.004 8.806,2.67 12.226,-0.929c3.404,-3.599 14.639,-15.746 18.596,-21.169c3.955,-5.438 7.661,-4.373 12.742,-2.329c5.078,2.052 32.157,16.556 37.673,19.551c5.51,2.989 9.193,4.529 10.51,6.9c1.317,2.38 0.901,13.531 -4.271,26.359Z" fill="#000"></path></svg>
