<svg xmlns="http://www.w3.org/2000/svg" width="200" height="200" fill="none" viewBox="0 0 200 200" version="1.1" xmlns:xlink="http://www.w3.org/1999/xlink" xmlns:svgjs="http://svgjs.dev/svgjs"><path fill="rgba(0, 0, 0, 1)" fill-rule="evenodd" d="M100 22c0-12.15-9.85-22-22-22H22C9.85 0 0 9.85 0 22v56.72c0 12.15 9.85 21.999 22 21.999h56c12.15 0 22 9.85 22 22V178c0 12.15 9.85 22 22 22h56c12.15 0 22-9.85 22-22v-56.72c0-12.15-9.85-22-22-22h-56c-12.15 0-22-9.85-22-22V22Z" clip-rule="evenodd"></path></svg>