<svg xmlns="http://www.w3.org/2000/svg" width="200" height="200" fill="none" viewBox="0 0 24 24" version="1.1" xmlns:xlink="http://www.w3.org/1999/xlink" xmlns:svgjs="http://svgjs.dev/svgjs"><path fill="rgba(0, 0, 0, 1)" fill-rule="evenodd" d="M3 5a2 2 0 1 1 4 0 2 2 0 0 1-4 0zm7 0a2 2 0 1 1 4 0 2 2 0 0 1-4 0zm7 0a2 2 0 1 1 4 0 2 2 0 0 1-4 0zM3 12a2 2 0 1 1 4 0 2 2 0 0 1-4 0zm7 0a2 2 0 1 1 4 0 2 2 0 0 1-4 0zm7 0a2 2 0 1 1 4 0 2 2 0 0 1-4 0zM3 19a2 2 0 1 1 4 0 2 2 0 0 1-4 0zm7 0a2 2 0 1 1 4 0 2 2 0 0 1-4 0zm7 0a2 2 0 1 1 4 0 2 2 0 0 1-4 0z" clip-rule="evenodd"></path></svg>