<svg xmlns="http://www.w3.org/2000/svg" id="SvgjsSvg1151" width="200" height="200" viewBox="0 0 512 512" version="1.1" xmlns:xlink="http://www.w3.org/1999/xlink" xmlns:svgjs="http://svgjs.dev/svgjs"><path d="m234.789 86.298-63.642-64.642L0 192.794v126.401l.447.445zM107.47 255.997l63.631-63.631 148.47 148.47-63.63 63.63zm212.17 255.556L86.298 277.211l-64.642 63.642L192.796 512h126.397zM192.358.445l233.348 234.348 64.642-63.639L319.208 0H192.803zm-.037 170.72 63.631-63.631 148.472 148.471-63.631 63.631zm148.53 319.177L512 319.193V191.924L277.211 425.702zM512 512V361.615L361.615 512zM0 361.617V512h150.374zm511.559-211.674.441-.441V0H361.628zM0 0v150.374L150.381 0z" fill="rgba(0, 0, 0, 1)"></path></svg>