<svg xmlns="http://www.w3.org/2000/svg" width="200" height="200" fill="none" viewBox="0 0 53 53" version="1.1" xmlns:xlink="http://www.w3.org/1999/xlink" xmlns:svgjs="http://svgjs.dev/svgjs"><path fill="rgba(0, 0, 0, 1)" d="M52.1 26.5c0 3.2-4.3 5.6-5.5 8.4-1.2 2.9.1 7.6-2.1 9.8-2.2 2.2-6.9.9-9.8 2.1-2.8 1.2-5.2 5.5-8.4 5.5s-5.6-4.3-8.4-5.5c-2.9-1.2-7.6.1-9.8-2.1-2.2-2.2-.9-6.9-2.1-9.8C4.8 32.1.5 29.7.5 26.5s4.3-5.6 5.5-8.4c1.2-2.9-.1-7.6 2.1-9.8 2.2-2.2 6.9-.9 9.8-2.1C20.7 5 23.1.7 26.3.7s5.6 4.3 8.4 5.5c2.9 1.2 7.6-.1 9.8 2.1 2.2 2.2.9 6.9 2.1 9.8 1.2 2.8 5.5 5.2 5.5 8.4Z"></path></svg>