<svg xmlns="http://www.w3.org/2000/svg" id="SvgjsSvg1214" width="200" height="200" viewBox="0 0 64 64" version="1.1" xmlns:xlink="http://www.w3.org/1999/xlink" xmlns:svgjs="http://svgjs.dev/svgjs"><path d="M58.46 5.98h-7.02S4.6 52.8 4.54 52.85v5.65a.99.99 0 0 0 1 1h5.59c.04-.08 48.16-48.21 48.16-48.21a1.157 1.157 0 0 1 .17-.14V6.98a.99.99 0 0 0-1-1zM45.92 59.5h12.54a.99.99 0 0 0 1-1V45.96C58.279 47.145 45.92 59.5 45.92 59.5zm-16 0h13.21c.04-.08 16.27-16.31 16.33-16.35V29.96zm-16 0h13.21c.04-.08 32.27-32.31 32.33-32.35V13.96zM48.6 5.98H35.44C33.481 7.94 4.6 36.8 4.54 36.85v13.19zm-16 0H19.44a13414.72 13414.72 0 0 1-14.9 14.87v13.19zm-16 0H5.54a.99.99 0 0 0-1 1v11.06C5.808 16.77 16.6 5.98 16.6 5.98z" fill="rgba(0, 0, 0, 1)"></path></svg>