<svg xmlns="http://www.w3.org/2000/svg" id="SvgjsSvg1182" x="0" y="0" version="1.1" viewBox="0 0 611.998 611.998" width="200" height="200" xmlns:xlink="http://www.w3.org/1999/xlink" xmlns:svgjs="http://svgjs.dev/svgjs"><path d="M23.538 156.923c16.412 0 23.419 4.67 34.023 11.739 13.128 8.752 29.465 19.646 60.129 19.646 30.665 0 47.003-10.893 60.13-19.646 10.601-7.069 17.607-11.737 34.014-11.737 16.411 0 23.415 4.67 34.019 11.737 13.13 8.754 29.467 19.646 60.135 19.646 30.663 0 47.004-10.893 60.134-19.646 10.601-7.068 17.607-11.737 34.018-11.737 16.414 0 23.422 4.67 34.026 11.739 13.13 8.752 29.469 19.646 60.136 19.646 30.665 0 47.003-10.893 60.132-19.646 10.606-7.069 17.612-11.739 34.026-11.739 13 0 23.538-10.539 23.538-23.538 0-13-10.538-23.54-23.538-23.54-30.67 0-47.009 10.893-60.139 19.646-10.604 7.069-17.61 11.737-34.019 11.737-16.414 0-23.419-4.67-34.023-11.739-13.13-8.752-29.47-19.646-60.139-19.646-30.665 0-47.004 10.893-60.134 19.646-10.602 7.069-17.607 11.739-34.018 11.739-16.414 0-23.419-4.67-34.023-11.739-13.128-8.752-29.469-19.646-60.132-19.646-30.665 0-47.003 10.893-60.13 19.646-10.601 7.069-17.607 11.737-34.014 11.737s-23.414-4.67-34.014-11.737c-13.13-8.754-29.469-19.648-60.137-19.648C10.538 109.846 0 120.385 0 133.385s10.538 23.538 23.538 23.538zm564.924 109.846c-30.67 0-47.009 10.893-60.139 19.646-10.604 7.069-17.61 11.737-34.019 11.737-16.414 0-23.419-4.67-34.023-11.739-13.13-8.752-29.47-19.646-60.139-19.646-30.665 0-47.004 10.893-60.134 19.646-10.602 7.068-17.607 11.737-34.018 11.737-16.414 0-23.419-4.67-34.023-11.739-13.128-8.752-29.469-19.646-60.132-19.646-30.665 0-47.003 10.893-60.13 19.646-10.601 7.069-17.607 11.737-34.014 11.737s-23.414-4.67-34.014-11.737c-13.13-8.752-29.469-19.646-60.137-19.646C10.538 266.769 0 277.308 0 290.307c0 13 10.538 23.538 23.538 23.538 16.412 0 23.419 4.67 34.023 11.739 13.128 8.752 29.465 19.646 60.129 19.646 30.665 0 47.003-10.893 60.13-19.646 10.601-7.069 17.607-11.737 34.014-11.737 16.411 0 23.415 4.67 34.019 11.737 13.13 8.754 29.467 19.646 60.135 19.646 30.663 0 47.004-10.893 60.134-19.646 10.601-7.069 17.607-11.739 34.018-11.739 16.414 0 23.422 4.67 34.026 11.739 13.13 8.752 29.469 19.646 60.136 19.646 30.665 0 47.003-10.892 60.132-19.646 10.606-7.069 17.612-11.739 34.026-11.739 13 0 23.538-10.539 23.538-23.538.002-12.999-10.536-23.538-23.536-23.538zm0 156.923c-30.67 0-47.009 10.893-60.139 19.646-10.604 7.069-17.61 11.739-34.019 11.739-16.414 0-23.419-4.67-34.023-11.739-13.13-8.752-29.47-19.646-60.139-19.646-30.665 0-47.004 10.893-60.134 19.646-10.602 7.068-17.607 11.739-34.018 11.739-16.414 0-23.419-4.67-34.023-11.739-13.128-8.752-29.469-19.646-60.132-19.646-30.665 0-47.003 10.893-60.13 19.646-10.601 7.069-17.607 11.739-34.014 11.739s-23.414-4.67-34.014-11.739c-13.13-8.752-29.469-19.646-60.137-19.646C10.538 423.692 0 434.231 0 447.23c0 13 10.538 23.54 23.538 23.54 16.412 0 23.419 4.67 34.023 11.739 13.128 8.752 29.465 19.646 60.129 19.646 30.665 0 47.003-10.893 60.13-19.646 10.601-7.069 17.607-11.737 34.014-11.737 16.411 0 23.415 4.67 34.019 11.737 13.13 8.752 29.467 19.646 60.135 19.646 30.663 0 47.004-10.893 60.134-19.646 10.601-7.069 17.607-11.739 34.018-11.739 16.414 0 23.422 4.67 34.026 11.739 13.13 8.752 29.469 19.644 60.136 19.644 30.665 0 47.003-10.892 60.132-19.644 10.606-7.069 17.612-11.739 34.026-11.739 13 0 23.538-10.539 23.538-23.54.002-12.999-10.536-23.538-23.536-23.538z" fill="rgba(0, 0, 0, 1)"></path></svg>