<svg xmlns="http://www.w3.org/2000/svg" id="SvgjsSvg1191" x="0" y="0" version="1.1" viewBox="0 0 512 512" width="200" height="200" xmlns:xlink="http://www.w3.org/1999/xlink" xmlns:svgjs="http://svgjs.dev/svgjs"><path d="M256 0c-34.849 0-63.2 28.352-63.2 63.2s28.352 63.2 63.2 63.2 63.2-28.351 63.2-63.2S290.849 0 256 0zm0 96.4c-18.307 0-33.2-14.893-33.2-33.2S237.693 30 256 30s33.2 14.894 33.2 33.2c0 18.306-14.893 33.2-33.2 33.2zm0 96.4c-34.849 0-63.2 28.352-63.2 63.2s28.352 63.2 63.2 63.2 63.2-28.352 63.2-63.2-28.351-63.2-63.2-63.2zm0 96.4c-18.307 0-33.2-14.894-33.2-33.2 0-18.306 14.894-33.2 33.2-33.2 18.306 0 33.2 14.894 33.2 33.2 0 18.306-14.893 33.2-33.2 33.2zm0 96.4c-34.849 0-63.2 28.351-63.2 63.2S221.151 512 256 512s63.2-28.352 63.2-63.2-28.351-63.2-63.2-63.2zm0 96.4c-18.307 0-33.2-14.894-33.2-33.2 0-18.306 14.894-33.2 33.2-33.2 18.306 0 33.2 14.893 33.2 33.2S274.307 482 256 482zM63.2 0C28.352 0 0 28.352 0 63.2s28.352 63.2 63.2 63.2 63.2-28.351 63.2-63.2S98.049 0 63.2 0zm0 96.4C44.894 96.4 30 81.507 30 63.2S44.894 30 63.2 30c18.306 0 33.2 14.894 33.2 33.2 0 18.306-14.893 33.2-33.2 33.2zm0 96.4C28.352 192.8 0 221.151 0 256s28.352 63.2 63.2 63.2 63.2-28.352 63.2-63.2-28.351-63.2-63.2-63.2zm0 96.4C44.894 289.2 30 274.307 30 256s14.894-33.2 33.2-33.2c18.306 0 33.2 14.894 33.2 33.2 0 18.306-14.893 33.2-33.2 33.2zm0 96.4C28.352 385.6 0 413.951 0 448.8S28.352 512 63.2 512s63.2-28.352 63.2-63.2-28.351-63.2-63.2-63.2zm0 96.4C44.894 482 30 467.106 30 448.8c0-18.306 14.894-33.2 33.2-33.2 18.306 0 33.2 14.893 33.2 33.2S81.507 482 63.2 482zM448.8 0c-34.848 0-63.2 28.352-63.2 63.2s28.351 63.2 63.2 63.2S512 98.049 512 63.2 483.648 0 448.8 0zm0 96.4c-18.306 0-33.2-14.893-33.2-33.2S430.493 30 448.8 30c18.307 0 33.2 14.894 33.2 33.2 0 18.306-14.894 33.2-33.2 33.2zm0 96.4c-34.849 0-63.2 28.352-63.2 63.2s28.352 63.2 63.2 63.2S512 290.849 512 256s-28.352-63.2-63.2-63.2zm0 96.4c-18.307 0-33.2-14.894-33.2-33.2 0-18.306 14.894-33.2 33.2-33.2 18.306 0 33.2 14.893 33.2 33.2s-14.894 33.2-33.2 33.2zm0 96.4c-34.849 0-63.2 28.351-63.2 63.2s28.352 63.2 63.2 63.2 63.2-28.352 63.2-63.2-28.352-63.2-63.2-63.2zm0 96.4c-18.307 0-33.2-14.894-33.2-33.2 0-18.306 14.894-33.2 33.2-33.2 18.306 0 33.2 14.893 33.2 33.2S467.106 482 448.8 482z" fill="rgba(0, 0, 0, 1)"></path></svg>