<svg xmlns="http://www.w3.org/2000/svg" id="SvgjsSvg1179" width="200" height="200" x="0" y="0" version="1.1" viewBox="0 0 45.163 45.163" xmlns:xlink="http://www.w3.org/1999/xlink" xmlns:svgjs="http://svgjs.dev/svgjs"><path d="M12.096 7.492a3.634 3.634 0 0 0 3.635-3.633c0-.998-.411-1.889-1.064-2.543a22.57 22.57 0 0 0-6.068 3.436 3.607 3.607 0 0 0 3.497 2.74zm-8.352 2.539a22.476 22.476 0 0 0-2.965 6.561 3.49 3.49 0 0 0 1.165.207 3.633 3.633 0 0 0 3.634-3.633c0-1.349-.742-2.51-1.834-3.135zm8.352-.5a3.634 3.634 0 1 0 0 7.268 3.634 3.634 0 1 0 0-7.268zM22.171.224a3.634 3.634 0 1 0 0 7.268 3.634 3.634 0 1 0 0-7.268zm10.152 7.268c1.87 0 3.396-1.42 3.594-3.238a22.57 22.57 0 0 0-5.956-3.129 3.591 3.591 0 0 0-1.271 2.734 3.632 3.632 0 0 0 3.633 3.633zM22.171 9.531a3.634 3.634 0 1 0 0 7.268 3.634 3.634 0 1 0 0-7.268zm10.152 0a3.634 3.634 0 1 0 0 7.268 3.634 3.634 0 1 0 0-7.268zM1.944 18.828c-.624 0-1.202.172-1.715.447A22.781 22.781 0 0 0 0 22.462c0 1.084.081 2.146.229 3.187a3.626 3.626 0 0 0 1.715.447 3.634 3.634 0 0 0 0-7.268zm10.152 0a3.634 3.634 0 1 0 0 7.268 3.634 3.634 0 1 0 0-7.268zM1.944 28.134c-.41 0-.798.078-1.163.205a22.458 22.458 0 0 0 2.974 6.57 3.617 3.617 0 0 0 1.823-3.143 3.634 3.634 0 0 0-3.634-3.632zm10.152 0a3.634 3.634 0 1 0 0 7.268 3.634 3.634 0 1 0 0-7.268zm10.075-9.306a3.634 3.634 0 1 0 0 7.268 3.634 3.634 0 1 0 0-7.268zm10.152 0a3.634 3.634 0 1 0 0 7.268 3.634 3.634 0 1 0 0-7.268zm-10.152 9.306a3.634 3.634 0 1 0 0 7.268 3.634 3.634 0 1 0 0-7.268zm10.152 0a3.634 3.634 0 1 0 0 7.268 3.634 3.634 0 1 0 0-7.268zm9.749-11.336c.816 0 1.558-.281 2.16-.738a22.526 22.526 0 0 0-3.063-6.4 3.622 3.622 0 0 0-2.729 3.506 3.629 3.629 0 0 0 3.632 3.632zm2.992 3.608a3.622 3.622 0 0 0-2.992-1.578 3.634 3.634 0 1 0 2.992 5.69c.062-.679.099-1.36.099-2.056 0-.693-.036-1.379-.099-2.056zm-6.626 11.362c0 1.69 1.16 3.103 2.726 3.506a22.462 22.462 0 0 0 3.069-6.407 3.583 3.583 0 0 0-2.16-.73 3.63 3.63 0 0 0-3.635 3.631zm-26.179 5.901a3.614 3.614 0 0 0-3.476 2.648 22.579 22.579 0 0 0 6.171 3.396 3.583 3.583 0 0 0 .939-2.41 3.633 3.633 0 0 0-3.634-3.634zm10.075 0a3.635 3.635 0 1 0 0 7.27 3.635 3.635 0 1 0 0-7.27zm10.152 0a3.635 3.635 0 0 0-3.635 3.636 3.62 3.62 0 0 0 1.026 2.521 22.503 22.503 0 0 0 6.149-3.234c-.331-1.664-1.779-2.923-3.54-2.923z" fill="rgba(0, 0, 0, 1)"></path></svg>