<svg xmlns="http://www.w3.org/2000/svg" width="200" height="200" fill="none" viewBox="0 0 51 45" version="1.1" xmlns:xlink="http://www.w3.org/1999/xlink" xmlns:svgjs="http://svgjs.dev/svgjs"><path fill="rgba(0, 0, 0, 1)" d="M50.3 22.4c0 4.2-4.6 7.2-6.5 10.6-2 3.5-2.4 9-5.9 11-3.4 2-8.3-.4-12.5-.4-4.2 0-9.1 2.3-12.5.4C9.4 42 9 36.5 7 33 5 29.6.5 26.6.5 22.4c0-4.2 4.6-7.2 6.5-10.6 2-3.5 2.4-8.9 5.9-11 3.4-2 8.3.4 12.5.4 4.2 0 9.1-2.3 12.5-.4 3.5 2 3.9 7.5 5.9 11 2 3.4 6.5 6.4 6.5 10.6Z"></path></svg>