<svg xmlns="http://www.w3.org/2000/svg" width="200" height="200" fill="none" viewBox="0 0 70 55" version="1.1" xmlns:xlink="http://www.w3.org/1999/xlink" xmlns:svgjs="http://svgjs.dev/svgjs"><path fill="rgba(0, 0, 0, 1)" d="M48.8 24.9c8.4-6.4 12.8-9.4 20.9-14.9-10 3.9-19.2 6.1-25.7 7.8.7-6.7 1.1-13.3 1.7-17.7-2 3-8.5 15.9-10.4 17.5-3.8-3.3-5.7-5.5-8.3-8 .6 3.5.2 7 .3 12-7.3-.9-15.7-2.1-26.4-3.7 9.2 3.6 15.7 7.4 23.2 10.7-3.5 3.5-5.6 6.4-12.6 12.4 5.8-1.7 9.3-2.5 17.6-5.1.1 4.7.7 12.3.6 19 2-3 5.5-13.4 7.7-17.6 3.7 3.4 5.5 4.6 9 8.4-.6-3.5-1.8-6.9-2.7-11.7 1.2-.1 7 .4 25.8 2.7-9.7-5.3-12.9-7.9-20.7-11.8Z"></path></svg>