<svg xmlns="http://www.w3.org/2000/svg" id="SvgjsSvg1176" width="200" height="200" x="0" y="0" version="1.1" viewBox="0 0 44.729 44.729" xmlns:xlink="http://www.w3.org/1999/xlink" xmlns:svgjs="http://svgjs.dev/svgjs"><path d="M1.732 30.985c1.218-9.961 6.295-13.156 10.841-15.987 4.642-2.892 8.657-5.425 8.174-14.942a22.223 22.223 0 0 0-6.191 1.348c.202 7.553-3.376 9.793-6.848 11.956C4.041 15.644.577 17.802.36 26.318c.29 1.621.751 3.186 1.372 4.667z" fill="rgba(0, 0, 0, 1)"></path><path d="M6.65 11.662c3.236-2.017 5.853-3.667 5.912-9.399C6.672 5.15 2.232 10.551.643 17.059c1.631-2.669 3.898-4.084 6.007-5.397zm.591 27.161c.788-10.616 5.446-14.321 9.963-17.908 4.907-3.896 9.544-7.588 9.283-20.54A22.41 22.41 0 0 0 22.743 0c.518 10.661-4.367 13.739-9.113 16.695-4.808 2.995-9.77 6.104-10.152 17.621a22.516 22.516 0 0 0 3.763 4.507zm23.951-11.672c4.482-3.597 8.71-7.021 8.484-18.957A22.541 22.541 0 0 0 35.54 4.29c-.063 13.04-5.132 17.116-10.045 21.058-4.624 3.711-8.989 7.222-9.309 18.515 1.844.53 3.783.831 5.787.867.527-10.573 4.938-14.142 9.219-17.579zm7.512 4.665c-3.21 1.956-5.994 3.671-6.318 10.549 6.155-3.093 10.692-8.941 11.984-15.92-1.442 2.794-3.629 4.13-5.666 5.371z" fill="rgba(0, 0, 0, 1)"></path><path d="M37.664 30.109c3.438-2.096 6.687-4.074 6.291-13.271l.103-.004a22.2 22.2 0 0 0-2.416-5.829c-.473 10.67-4.895 14.254-9.196 17.706-4.093 3.282-7.954 6.409-8.465 15.963a22.256 22.256 0 0 0 6.372-1.41c.122-8.774 3.94-11.101 7.311-13.155zm-13.419-6.321c4.915-3.943 9.559-7.678 9.287-20.806A22.273 22.273 0 0 0 28.499.848c.143 13.54-5.037 17.652-10.051 21.633-4.566 3.625-8.875 7.069-9.286 17.922a22.332 22.332 0 0 0 5.059 2.789c.494-11.725 5.332-15.639 10.024-19.404z" fill="rgba(0, 0, 0, 1)"></path></svg>