<svg xmlns="http://www.w3.org/2000/svg" width="200" height="200" fill="none" viewBox="0 0 63 59" version="1.1" xmlns:xlink="http://www.w3.org/1999/xlink" xmlns:svgjs="http://svgjs.dev/svgjs"><path fill="rgba(0, 0, 0, 1)" d="M29.8 46c-.9-1.6-3-2.1-4.5-1.1L17.1 54l3.7-11.4c-.1-1.8-1.7-3.2-3.5-3.2l-5 .2 2.3-4.4c.8-1.6.2-3.7-1.4-4.6L.1 28.1l13.1-2.4c1.6-.9 2.2-3 1.4-4.6l-2.3-4.4 5 .2c1.8.1 3.4-1.3 3.5-3.2L17.5.4l7.8 10.9c1.6 1 3.6.5 4.5-1.1l2.6-4.3 2.6 4.3c.9 1.6 3 2.1 4.5 1.1L47 2.6l-3 11.1c.1 1.8 1.7 3.2 3.5 3.2l5-.2-2.3 4.4c-.8 1.6-.2 3.7 1.4 4.6l10.9 2.5-10.9 2.4c-1.6.9-2.2 3-1.4 4.6l2.3 4.4-5-.2c-1.8-.1-3.4 1.3-3.5 3.2l5.6 15.9L39.5 45c-1.6-1-3.6-.5-4.5 1.1l-2.6 4.3-2.6-4.4Z"></path></svg>