<svg width="22" height="22" viewBox="0 0 22 22" xmlns="http://www.w3.org/2000/svg"><title>chained selects</title><g fill="none" class="nc-icon-wrapper"><path d="M15.66.283a5.23 5.23 0 0 0-2.19.966C13.01 1.603 9 5.634 8.86 5.886l-.102.183.183-.033c.73-.128 1.594-.085 2.431.13l.424.106 1.616-1.604c1.427-1.422 1.653-1.626 1.964-1.771 1.079-.5 2.184-.322 3.059.504.692.655.928 1.181.928 2.061 0 .628-.096.993-.392 1.444-.085.134-1.078 1.164-2.21 2.292-1.933 1.916-2.078 2.05-2.432 2.21-.65.29-1.208.328-1.905.135-.403-.107-.634-.236-1.004-.548-.526-.434-.8-.526-1.261-.43-.397.087-.81.5-.896.897-.103.494.032.848.493 1.283 1.025.971 2.56 1.476 3.988 1.304a5.234 5.234 0 0 0 2.544-1.014c.52-.397 4.342-4.261 4.616-4.67a5.959 5.959 0 0 0 .762-1.7c.166-.666.166-1.836-.006-2.464-.456-1.702-1.819-3.161-3.483-3.736-.73-.252-1.739-.322-2.517-.182z" fill="#111111"/><path d="M9.15 6.965c-.735.102-1.556.424-2.227.875-.392.263-4.261 4.1-4.67 4.626-1.19 1.557-1.378 3.644-.477 5.42.66 1.3 1.986 2.373 3.392 2.749.72.193 1.793.203 2.501.026a5.965 5.965 0 0 0 1.702-.762c.622-.418 4.97-4.808 4.862-4.916-.01-.01-.241.006-.515.038-.59.07-1.411 0-2.06-.172l-.425-.118-1.589 1.583c-.917.913-1.696 1.642-1.835 1.723-.451.252-.79.333-1.369.328-.858-.011-1.39-.253-2.034-.934-.82-.875-1.003-1.975-.504-3.06.15-.316.37-.558 2.232-2.425 1.798-1.804 2.12-2.104 2.437-2.27.676-.36 1.422-.425 2.104-.188.407.139.58.236.928.53.526.436.8.527 1.261.43.397-.086.81-.499.897-.896.102-.494-.032-.848-.494-1.283a5.589 5.589 0 0 0-1.369-.912c-.756-.333-1.937-.505-2.747-.392z" fill="#111111"/></g></svg>