<svg width="22" height="22" viewBox="0 0 22 22" xmlns="http://www.w3.org/2000/svg"><title>partial entries</title><g fill="none" class="nc-icon-wrapper"><path d="M2 1.75h14c.69 0 1.25.56 1.25 1.25v14c0 .69-.56 1.25-1.25 1.25H2c-.69 0-1.25-.56-1.25-1.25V3c0-.69.56-1.25 1.25-1.25z" stroke="#000" stroke-width="1.5"/><circle cx="16" cy="16" r="5" fill="#fff"/><path stroke="#000" stroke-width="1.5" d="M1 7.25h16"/><path stroke="#000" stroke-width="1.5" d="M1 12.25h9"/><path stroke="#000" stroke-width="1.5" d="M9.25 18V7"/><path d="M16.456 11.001a.428.428 0 0 0-.32.108.42.42 0 0 0-.136.31v4.163a.418.418 0 0 0 .418.418h4.164a.418.418 0 0 0 .416-.456A5.012 5.012 0 0 0 16.456 11z" fill="#000"/><path d="M15.591 19.327a2.912 2.912 0 0 1-1.25-5.544V12A4.586 4.586 0 1 0 20 17.66h-1.783a2.919 2.919 0 0 1-2.626 1.667z" fill="#000"/></g></svg>