<svg width="16" height="16" viewBox="0 0 16 16" fill="#363E43" xmlns="http://www.w3.org/2000/svg">
  <path d="M13.45 4.33L2.125 15.655c-.223.223-.514.34-.874.34-.362 0-.653-.117-.876-.34A1.187 1.187 0 010 14.78c0-.362.117-.653.34-.876L11.665 2.58H1.89c-.362 0-.653-.117-.876-.34A1.187 1.187 0 01.673 1.365c0-.362.117-.653.34-.876.223-.223.514-.34.876-.34h13.02c.362 0 .653.117.876.34.223.223.34.514.34.876v12.24c0 .362-.117.653-.34.876a1.187 1.187 0 01-.876.34c-.362 0-.653-.117-.876-.34a1.187 1.187 0 01-.34-.876V4.33z"/>
</svg>
