<svg width="339px" height="95px" viewBox="0 0 339 95" version="1.1" xmlns="http://www.w3.org/2000/svg" xmlns:xlink="http://www.w3.org/1999/xlink">
	<g id="Logos,-Favicon" stroke="none" stroke-width="1" fill="none" fill-rule="evenodd">
			<g id="Bricks---(Font:-Isidora-Sans)" transform="translate(-200.000000, -47.000000)" fill="#212121" fill-rule="nonzero">
					<path d="M235.597656,78.5351562 C244.269575,78.5351562 251.457003,81.5624697 257.160156,87.6171875 C262.785184,93.6719053 265.597656,101.132768 265.597656,110 C265.597656,118.906295 262.765653,126.367157 257.101562,132.382812 C251.398409,138.43753 244.230512,141.464844 235.597656,141.464844 C228.058556,141.464844 221.613308,138.769558 216.261719,133.378906 L216.261719,140 L200.558594,140 L200.558594,60.078125 L217.726562,58.1445312 L219.132812,59.0234375 L219.132812,83.4570312 C224.093775,80.1757648 229.582001,78.5351562 235.597656,78.5351562 Z M232.609375,125.585938 C237.02346,125.585938 240.597643,124.101577 243.332031,121.132812 C246.027357,118.20311 247.375,114.49221 247.375,110 C247.375,105.50779 246.007826,101.777359 243.273438,98.8085938 C240.539049,95.8788916 236.984397,94.4140625 232.609375,94.4140625 C228.468729,94.4140625 225.011733,95.8202984 222.238281,98.6328125 C219.46483,101.523452 218.078125,105.312477 218.078125,110 C218.078125,114.687523 219.46483,118.457017 222.238281,121.308594 C224.97267,124.160171 228.429667,125.585938 232.609375,125.585938 Z M319.09375,80.5859375 L319.914062,82.0507812 L316.105469,95 L314.757812,95.8203125 C313.055501,94.8581366 310.809807,94.3867936 308.020669,94.4062715 L307.550781,94.4140625 C303.957013,94.4140625 301.046886,95.6445189 298.820312,98.1054688 C296.554676,100.605481 295.421875,103.847636 295.421875,107.832031 L295.421875,140 L276.847656,140 L276.847656,80 L292.433594,80 L292.433594,87.7929688 C296.73049,81.6210629 302.257779,78.5351562 309.015625,78.5351562 C312.453142,78.5351562 315.812484,79.2187432 319.09375,80.5859375 Z M347.980469,59.140625 C347.980469,62.2656406 346.867199,64.9413951 344.640625,67.1679688 C342.414051,69.3945424 339.699235,70.5078125 336.496094,70.5078125 C333.25389,70.5078125 330.558604,69.3945424 328.410156,67.1679688 C326.183583,64.9413951 325.070312,62.2656406 325.070312,59.140625 C325.070312,55.937484 326.183583,53.2031363 328.410156,50.9375 C330.558604,48.7109264 333.25389,47.5976562 336.496094,47.5976562 C339.699235,47.5976562 342.414051,48.7109264 344.640625,50.9375 C346.867199,53.2031363 347.980469,55.937484 347.980469,59.140625 Z M345.695312,140 L327.238281,140 L327.238281,80 L345.695312,80 L345.695312,140 Z M389.757812,141.464844 C380.382766,141.464844 372.589875,138.476592 366.378906,132.5 C360.167938,126.523408 357.0625,119.023483 357.0625,110 C357.0625,100.976517 360.167938,93.4765924 366.378906,87.5 C372.589875,81.5234076 380.382766,78.5351562 389.757812,78.5351562 C400.031301,78.5351562 408.292937,82.0702771 414.542969,89.140625 L414.542969,90.4296875 L404.230469,99.921875 L402.824219,99.921875 C399.621078,96.2499816 395.500025,94.4140625 390.460938,94.4140625 C386.046853,94.4140625 382.453139,95.8593605 379.679688,98.75 C376.867173,101.679702 375.460938,105.429665 375.460938,110 C375.460938,114.455751 376.774987,118.090157 379.403124,120.903319 L379.679688,121.191406 C382.453139,124.121108 386.085915,125.585938 390.578125,125.585938 C395.773463,125.585938 399.855454,123.750018 402.824219,120.078125 L404.230469,120.078125 L414.542969,129.570312 L414.542969,130.859375 C408.292937,137.929723 400.031301,141.464844 389.757812,141.464844 Z M484.386719,81.3476562 L461.59375,107.246094 L485.207031,138.652344 L484.386719,140 L464.230469,140 L447.648438,116.503906 L442.960938,121.777344 L442.960938,140 L424.386719,140 L424.386719,60.078125 L441.554688,58.1445312 L442.960938,59.0234375 L442.960938,105.3125 L464.230469,80 L483.566406,80 L484.386719,81.3476562 Z M513.683594,141.582031 C508.136691,141.582031 502.960962,140.566416 498.15625,138.535156 C493.390601,136.582021 489.601577,133.906267 486.789062,130.507812 L486.789062,129.21875 L495.050781,119.960938 L496.398438,119.960938 C498.195321,122.109386 500.75389,123.925774 504.074219,125.410156 C507.394548,126.894539 510.636703,127.636719 513.800781,127.636719 C515.949229,127.636719 517.687493,127.19727 519.015625,126.318359 C520.343757,125.439449 521.007812,124.316413 521.007812,122.949219 C521.007812,121.855463 520.568364,120.859379 519.689453,119.960938 C518.810542,119.062496 517.785162,118.359378 516.613281,117.851562 L516.181334,117.671423 C515.396857,117.354727 513.997879,116.828839 511.984375,116.09375 C509.640613,115.390621 507.589853,114.707035 505.832031,114.042969 C504.386712,113.574216 502.492199,112.71485 500.148438,111.464844 C497.999989,110.410151 496.261725,109.218757 494.933594,107.890625 C491.808578,104.687484 490.246094,100.957053 490.246094,96.6992188 C490.246094,91.1132533 492.433572,86.6601729 496.808594,83.3398438 C501.183616,80.0585773 507.042932,78.4179688 514.386719,78.4179688 C519.503932,78.4179688 524.230447,79.3163973 528.566406,81.1132812 C532.863303,82.9101652 536.183582,85.2929539 538.527344,88.2617188 L538.527344,89.609375 L530.324219,98.2226562 L529.035156,98.2226562 C524.621072,93.9257598 519.738308,91.8164059 514.386719,91.8945312 C512.472647,91.8945312 510.919928,92.2753868 509.728516,93.0371094 C508.537103,93.7988319 507.941406,94.7656191 507.941406,95.9375 C507.941406,96.8805851 508.311898,97.6552515 509.052893,98.2615189 L509.230469,98.3984375 C510.167973,99.1406287 511.300775,99.7851535 512.628906,100.332031 C514.386728,101.03516 516.085929,101.679685 517.726562,102.265625 L517.867187,102.305615 C518.23242,102.423486 519.162102,102.781247 520.65625,103.378906 C526.632842,105.683605 531.105454,108.261704 534.074219,111.113281 C537.042984,113.964858 538.527344,118.027317 538.527344,123.300781 C538.527344,128.808621 536.24221,133.22264 531.671875,136.542969 C527.062477,139.902361 521.066443,141.582031 513.683594,141.582031 Z" id="bricks"></path>
			</g>
	</g>
</svg>
