<svg width="35px" height="45px" viewBox="0 0 35 45" version="1.1" xmlns="http://www.w3.org/2000/svg" xmlns:xlink="http://www.w3.org/1999/xlink">
	<g id="Logos,-Favicon" stroke="none" stroke-width="1" fill="none" fill-rule="evenodd">
			<g id="Favicon-(64x64)" transform="translate(-16.000000, -11.000000)" fill="#212121" fill-rule="nonzero">
					<path d="M25.1875,11.34375 L25.9375,11.8125 L25.9375,24.84375 C28.5833466,23.0937413 31.5104006,22.21875 34.71875,22.21875 C39.3437731,22.21875 43.1770681,23.8333172 46.21875,27.0625 C49.218765,30.2916828 50.71875,34.2708097 50.71875,39 C50.71875,43.7500237 49.2083484,47.7291506 46.1875,50.9375 C43.1458181,54.1666828 39.3229397,55.78125 34.71875,55.78125 C30.6978966,55.78125 27.2604309,54.3437644 24.40625,51.46875 L24.40625,55 L16.03125,55 L16.03125,12.375 L25.1875,11.34375 Z M33.125,30.6875 C30.9166556,30.6875 29.0729241,31.4374925 27.59375,32.9375 C26.1145759,34.4791744 25.375,36.4999875 25.375,39 C25.375,41.5000125 26.1145759,43.5104091 27.59375,45.03125 C29.0520906,46.5520909 30.8958222,47.3125 33.125,47.3125 C35.4791784,47.3125 37.3854094,46.5208413 38.84375,44.9375 C40.2812572,43.3749922 41,41.3958453 41,39 C41,36.6041547 40.2708406,34.6145913 38.8125,33.03125 C37.3541594,31.4687422 35.458345,30.6875 33.125,30.6875 Z" id="b"></path>
			</g>
	</g>
</svg>
